<svg width="125" height="125" viewBox="0 0 125 125" fill="none" xmlns="http://www.w3.org/2000/svg">
<path d="M37.4367 124.239C37.4367 124.239 8.77148 79.9994 8.77148 66.7603C8.77148 53.5202 14.81 32.5373 19.1558 26.6557C19.1558 26.6557 18.1339 16.3138 22.8378 9.5969C27.5417 2.88003 38.3638 6.99063 39.1304 6.65002C39.8971 6.30941 44.9521 1.48415 53.8948 1.48415C62.8376 1.48415 71.7874 -0.089157 85.4048 5.84615C99.0222 11.7814 103.519 13.9995 103.519 13.9995C103.519 13.9995 116.903 8.38753 119.555 17.587C122.207 26.7865 120.333 36.2303 120.333 36.2303C120.333 36.2303 126.024 48.2245 124.115 60.0728C122.207 71.9211 121.621 79.8454 114.681 88.3231C107.742 96.8008 93.0704 108.581 90.8451 110.817C88.6197 113.054 82.9252 116.256 81.9598 122.612C79.9745 122.612 37.4367 124.239 37.4367 124.239Z" fill="#F22F62"/>
<path d="M18.1416 71.8411C25.2968 84.0675 30.8289 90.6506 39.8967 92.8949C48.9646 95.1393 50.2669 95.8155 50.2669 95.8155C50.2669 95.8155 48.549 102.496 50.7965 102.496C53.0441 102.496 61.8173 102.313 61.8173 102.313L61.0154 97.3968C61.0154 97.3968 78.5458 94.9345 84.0547 93.9097C89.5636 92.8848 94.2695 94.5341 95.1804 87.354C96.0913 80.1738 80.3817 21.7828 80.3817 21.7828C80.3817 21.7828 55.1403 17.9013 48.3795 19.4117C41.6187 20.9222 19.4964 35.3422 19.4964 36.2313C19.4964 37.1183 18.1416 71.8411 18.1416 71.8411Z" fill="#F4CDC3"/>
<path d="M15.1524 38.2466C9.24806 53.0286 7.01666 62.3152 7.01666 71.4488C7.01666 80.5823 5.73552 96.6518 4.38377 101.495C3.03303 106.338 1.17285 111.099 1.17285 111.099C1.17285 111.099 6.42955 110.54 9.54464 105.992C12.6597 101.445 14.8316 96.0537 16.2772 93.2943C17.7227 90.536 18.8707 76.8924 18.8707 76.8924C18.8707 76.8924 21.4169 57.0297 21.7255 55.1726C22.0332 53.3154 24.9405 44.3461 28.3582 36.4523C31.7759 28.5595 36.7229 25.8428 36.7229 25.8428L44.7477 22.5624C44.7477 22.5624 40.9507 27.9604 40.9507 31.8561C40.9507 35.7518 39.376 37.3657 41.3481 37.3657C43.3203 37.3657 48.6244 35.5471 49.7129 33.9059C50.8013 32.2657 53.3323 29.3391 53.3323 29.3391C53.3323 29.3391 53.2375 40.2659 53.6511 41.6648C54.0647 43.0637 54.8384 43.526 56.6815 41.6739C58.5245 39.8219 59.9136 37.9374 59.9136 37.9374L63.9981 32.0588C63.9981 32.0588 64.4692 36.0863 68.3459 41.0789C72.2226 46.0704 78.2066 55.2283 79.2265 58.1671C80.2463 61.1058 83.4381 74.1108 84.5114 83.4978C85.5848 92.8838 88.0764 98.2109 90.3502 102.313C92.624 106.416 99.7348 114.311 99.7348 114.311C99.7348 114.311 95.4727 103.55 95.1186 97.3969C94.7646 91.2446 95.1802 87.354 95.1802 87.354C95.1802 87.354 96.7034 87.5547 98.6413 85.6063C100.579 83.659 105.986 73.1001 106.802 69.615C107.618 66.1298 107.172 43.8666 102.549 37.3667C97.9271 30.8657 93.3261 24.5209 88.3841 23.1321C83.4411 21.7433 73.4442 18.1557 63.1416 17.7452C52.8391 17.3346 49.8904 18.0676 41.7244 20.7772C33.5584 23.4859 18.9706 32.9175 18.9706 32.9175L15.1524 38.2466Z" fill="#FF9FAD"/>
<path d="M50.2675 103.138L40.5127 109.666L49.7379 123.772H67.7202L70.2583 111.869L60.8899 102.496L50.2675 103.138Z" fill="#FFEEF1"/>
<path d="M50.9785 78.1373C48.6604 79.0192 48.3951 80.4992 49.4815 81.591C50.568 82.6827 53.0072 84.6281 56.0496 83.4978C59.0921 82.3675 63.4379 81.6883 63.9211 79.0679C64.4043 76.4474 66.4319 74.9917 64.7906 73.9243C63.1484 72.8568 63.3905 71.837 60.3964 73.4874C57.4024 75.1377 56.3886 76.6907 54.5536 77.1752C52.7177 77.6598 50.9785 78.1373 50.9785 78.1373Z" fill="white"/>
<path d="M22.2046 22.9628C24.6691 21.7696 26.4284 19.4715 28.4055 17.6367C30.4372 15.7512 32.6262 14.0319 34.9192 12.4789C39.5504 9.34248 44.6478 6.94303 50.0396 5.46807C60.7477 2.53945 72.5463 3.4224 82.7833 7.70129C85.7723 8.9512 88.6443 10.4718 91.3458 12.265C94.0634 14.0684 96.3473 16.3665 98.9721 18.2682C100.622 19.4634 103.028 16.9342 101.746 15.3386C99.768 12.8773 97.005 10.9695 94.3902 9.23402C91.9177 7.59383 89.303 6.15436 86.6015 4.93486C80.9685 2.39246 75.0027 0.812087 68.8583 0.217036C57.1646 -0.916298 45.0452 2.4553 35.1895 8.77886C32.4326 10.5478 29.842 12.5691 27.4634 14.8267C25.2077 16.9677 22.4306 19.4989 21.8516 22.7043C21.8122 22.9182 22.018 23.053 22.2046 22.9628Z" fill="#FF83A1"/>
<path d="M19.7218 22.085C19.9487 21.715 20.1182 21.3054 20.3291 20.9253C20.5591 20.5127 20.8183 20.2065 21.0806 19.8213C21.5749 19.0955 21.7857 18.1305 22.159 17.3327C22.8833 15.7817 23.774 14.3412 25.1923 13.3447C28.7099 10.8753 33.1818 9.93557 36.4583 7.10427C36.9788 6.65418 36.997 5.73678 36.657 5.18431C36.2717 4.55885 35.5524 4.35204 34.8654 4.50207C32.4797 5.02414 30.2866 6.42205 28.1248 7.52091C26.1365 8.53159 24.1503 9.53518 22.4596 11.0182C20.903 12.3837 19.8348 14.2084 19.3122 16.2074C19.062 17.1644 18.7301 18.393 18.9369 19.3753C19.0328 19.8294 19.17 20.2319 19.2345 20.6982C19.2971 21.1432 19.3536 21.6207 19.4615 22.0566C19.4928 22.1823 19.6612 22.1833 19.7218 22.085Z" fill="#FF83A1"/>
<path d="M107.07 13.8444C107.494 14.0917 107.86 14.4252 108.316 14.6148C108.841 14.8338 109.433 14.9159 109.986 15.0517C110.965 15.292 111.878 15.6214 112.764 16.1049C114.601 17.1055 116.185 18.5612 117.266 20.3626C118.366 22.1974 118.779 24.3262 118.657 26.4509C118.532 28.6152 117.027 30.8048 117.762 32.9438C117.893 33.3239 118.275 33.6645 118.701 33.627C121.894 33.3482 122.584 29.0836 122.706 26.4996C122.841 23.6612 122.095 20.7072 120.579 18.3037C119.114 15.9772 116.906 14.1921 114.373 13.1733C113.063 12.6461 111.709 12.3056 110.301 12.1809C108.908 12.0572 108.027 12.4089 106.984 13.2878C106.804 13.4399 106.891 13.74 107.07 13.8444Z" fill="#FF83A1"/>
<path d="M118.645 40.2881C118.836 41.2856 118.791 42.275 118.92 43.2766C119.04 44.2102 119.24 45.1195 119.424 46.041C119.768 47.7683 120.087 49.513 120.302 51.2616C120.756 54.9678 120.802 58.7469 120.396 62.4601C119.997 66.1085 119.257 69.7244 118.109 73.2095C117.542 74.9318 116.852 76.5994 116.114 78.2538C115.72 79.1377 115.322 80.045 115.03 80.9685C114.751 81.8484 114.815 82.8287 114.534 83.6843C114.286 84.4425 115.312 84.8926 115.815 84.3928C116.184 84.0269 116.728 83.7907 117.124 83.4349C117.535 83.0649 117.889 82.6736 118.218 82.2296C118.791 81.4561 119.274 80.6411 119.693 79.7744C120.536 78.0277 121.232 76.198 121.844 74.3581C123.105 70.5617 123.902 66.6153 124.19 62.6243C124.478 58.6465 124.269 54.6596 123.628 50.7264C123.32 48.8348 122.913 46.9847 122.305 45.1661C122.008 44.2791 121.676 43.4114 121.235 42.5852C120.733 41.6435 119.994 40.8396 119.416 39.9404C119.139 39.5126 118.557 39.8279 118.645 40.2881Z" fill="#FF83A1"/>
<path d="M27.7162 92.7936C28.381 94.9771 29.2758 96.891 30.4268 98.8587C31.6302 100.914 33.0082 102.859 34.3126 104.851C35.5806 106.787 36.8395 108.733 38.0803 110.688C38.7037 111.669 39.42 112.577 40.0817 113.534C40.7404 114.487 41.4002 115.63 42.5703 115.938C43.2442 116.114 43.9645 115.668 44.1319 114.994C44.4114 113.868 43.7728 112.779 43.2664 111.795C42.7065 110.705 42.1709 109.583 41.5263 108.545C40.2673 106.516 38.9579 104.528 37.5921 102.571C36.2544 100.655 34.9067 98.737 33.3744 96.9721C31.8047 95.1657 30.1494 93.7161 28.1076 92.4753C27.9028 92.3506 27.6486 92.5716 27.7162 92.7936Z" fill="#FF83A1"/>
<path d="M75.0631 116.897C76.317 116.684 76.8486 115.569 77.5608 114.637C77.6758 114.458 77.699 114.432 77.6294 114.563C77.7636 114.395 77.8867 114.22 77.9996 114.038C78.1368 113.833 78.27 113.626 78.4102 113.424C78.4455 113.372 78.849 112.813 78.6654 113.061C78.8107 112.865 78.963 112.675 79.1113 112.48C79.7085 111.698 80.3027 110.923 80.9644 110.193C81.7492 109.328 82.7035 108.601 83.1111 107.479C82.9668 107.743 82.8226 108.007 82.6773 108.271C83.3754 107.43 84.1854 106.692 84.8502 105.82C85.5271 104.932 84.8694 103.538 83.6659 103.885C82.9739 104.084 82.3253 104.402 81.6918 104.744C81.4234 104.889 81.1742 105.059 80.9251 105.235C80.8918 105.258 80.5236 105.527 80.6799 105.421C80.9291 105.253 80.2411 105.612 80.1362 105.681C79.5128 106.09 78.9519 106.728 78.4415 107.269C77.9997 107.738 77.58 108.227 77.1775 108.73C76.3039 109.82 75.5504 110.976 74.9017 112.213C74.7857 112.434 74.6929 112.658 74.6051 112.891C74.703 112.632 74.5033 113.157 74.5053 113.152C74.363 113.508 74.1946 113.868 74.0886 114.237C73.9898 114.579 73.9888 114.969 73.9625 115.325C73.9242 115.848 74.0554 116.205 74.363 116.631C74.5416 116.878 74.7726 116.946 75.0631 116.897Z" fill="#FF83A1"/>
<path d="M31.0784 89.9724C31.5243 90.5259 31.9873 91.0662 32.4292 91.6217C32.8357 92.1326 33.5025 92.8808 33.7194 93.2944C34.4891 94.7622 36.0123 95.7222 37.353 96.6538C39.9889 98.4856 43.1584 99.7466 46.2705 100.467C45.7278 99.7852 45.1841 99.1039 44.6413 98.4217C44.7029 98.1845 44.7029 98.1906 44.6403 98.441C44.6504 98.3305 44.6938 98.2362 44.7725 98.1582C44.7241 98.2068 44.6766 98.2565 44.6282 98.3051C44.7866 98.1703 44.7604 98.1754 44.5485 98.3193C44.9339 98.2849 44.2308 98.3883 44.6393 98.297C44.374 98.3569 44.1864 98.296 43.8716 98.2068C42.8689 97.921 41.8259 97.2701 40.8665 96.7613C38.7138 95.6188 36.5934 94.373 34.7544 92.8625C34.0432 94.1641 33.331 95.4668 32.6198 96.7684C35.9155 97.9483 39.2172 99.1121 42.5209 100.27C42.8831 100.396 43.2452 100.52 43.6053 100.651C43.7496 100.704 43.8898 100.786 43.6719 100.678C43.8061 100.744 43.9392 100.812 44.0724 100.881C44.136 100.92 44.1985 100.958 44.261 100.997C44.1017 100.878 44.0815 100.874 44.2005 100.983C44.3569 101.211 44.1339 100.903 44.1148 100.862C44.0785 100.786 44.0542 100.421 44.0512 100.668C44.0472 100.971 43.9725 100.381 44.0492 100.669C44.0109 100.8 44.0139 100.808 44.0593 100.692C44.1249 100.545 44.1037 100.583 43.9957 100.807C43.907 100.964 43.8938 101.073 43.9745 100.86C43.9423 100.945 43.7355 101.114 43.9413 100.939C43.8182 101.044 43.6699 101.118 43.5357 101.208C43.4601 101.259 43.2089 101.389 43.4349 101.281C43.2502 101.369 43.0505 101.43 42.8568 101.495C42.3847 101.651 41.9409 101.799 41.499 102.04C40.8221 102.409 40.3621 103.293 40.4126 104.058C40.4408 104.49 40.5679 104.832 40.7535 105.214C41.0996 105.92 42.0145 106.328 42.761 106.306C44.8663 106.247 47.2823 104.814 48.1993 102.89C49.2988 100.584 48.5534 98.0426 46.3341 96.7603C45.4241 96.2341 44.3478 95.9503 43.3602 95.6076C42.2909 95.2366 41.2216 94.8646 40.1523 94.4936C38.0147 93.7515 35.8721 93.0227 33.7295 92.2948C31.603 91.5721 29.8205 94.7916 31.5949 96.2007C34.3246 98.369 37.3429 100.052 40.4761 101.553C42.1255 102.343 43.9977 103.074 45.8347 102.479C47.6303 101.897 49.0224 100.269 48.9417 98.3163C48.9034 97.3949 48.2427 96.4683 47.3126 96.2706C44.5284 95.6786 41.9056 94.7795 39.2959 93.6492C38.6674 93.3775 38.048 93.0865 37.4377 92.7763C36.7901 92.4469 36.1092 91.9836 35.401 91.8022C35.0197 91.7038 34.7201 91.6866 34.3589 91.5112C34.0573 91.3642 33.7607 91.2051 33.4652 91.0469C32.75 90.6648 32.0912 90.1701 31.4618 89.6602C31.259 89.498 30.8888 89.7372 31.0784 89.9724Z" fill="#D81823"/>
<path d="M65.4648 97.8114C64.2361 97.1332 63.0064 98.1885 62.4536 99.2387C61.7445 100.586 61.8585 102.171 62.5021 103.512C63.6279 105.856 65.4386 107.967 67.4107 109.633C69.4384 111.348 72.1671 109.092 70.9525 106.742C70.2666 105.415 69.5786 104.091 68.8694 102.778C68.5153 102.122 68.1603 101.465 67.8062 100.809C67.6539 100.528 67.5025 100.246 67.3502 99.9656C67.2493 99.778 67.1475 99.5905 67.0466 99.403C66.8357 98.9924 66.8408 99.0289 67.0647 99.5124C66.9679 99.9129 66.87 100.313 66.7732 100.714C65.4073 101.289 65.0643 101.546 65.7432 101.484C65.8613 101.486 65.9783 101.49 66.0963 101.496C66.4554 101.508 66.8136 101.519 67.1727 101.516C67.786 101.51 68.3983 101.477 69.0086 101.421C70.4391 101.29 71.8675 101.047 73.2687 100.733C75.8925 100.145 78.478 99.405 81.0382 98.5869C80.3432 97.037 79.6491 95.488 78.9541 93.938C76.2728 95.3968 73.6692 97.0329 71.01 98.5383C69.8056 99.2205 68.5739 99.8703 67.3906 100.589C66.0237 101.419 64.8918 102.725 64.9393 104.424C64.9887 106.197 66.3112 107.576 67.9192 108.107C69.399 108.595 70.9768 108.127 72.2629 107.341C73.4876 106.593 74.6124 105.642 75.7654 104.789C76.9971 103.879 78.2278 102.967 79.4595 102.057C80.5369 101.26 81.009 99.8358 80.2645 98.6265C79.518 97.412 78.0442 97.192 76.8528 97.8165C75.4698 98.5413 74.1473 99.3715 72.9055 100.32C72.1893 100.868 71.6042 101.441 71.0151 102.116C70.2081 103.042 69.965 103.836 70.1939 105.049C70.2948 105.585 70.8486 106.038 71.352 106.158C73.1275 106.582 74.5629 105.275 75.7402 104.393C76.9154 103.514 78.1612 102.739 79.4595 102.057C78.5909 100.643 77.7224 99.2296 76.8538 97.8155C74.9644 99.2164 73.074 100.616 71.1836 102.017C70.7528 102.337 70.3291 102.668 69.8822 102.964C69.7007 103.085 69.5171 103.207 69.3204 103.302C69.169 103.385 69.167 103.383 69.3153 103.297C69.2336 103.321 69.1519 103.344 69.0702 103.369C69.3072 103.384 69.5433 103.487 69.2205 103.32C69.3809 103.403 69.4949 103.422 69.6311 103.566C70.1021 104.064 69.7642 104.435 69.7188 104.942C69.5614 105.127 69.5433 105.155 69.6664 105.024C69.7884 104.904 69.7682 104.918 69.6058 105.065C70.4391 104.453 71.4257 104.002 72.3235 103.493C73.3221 102.927 74.3188 102.357 75.3205 101.798C77.4178 100.629 79.5755 99.5317 81.6415 98.3132C84.0928 96.8687 82.3163 92.6344 79.5574 93.6653C75.1531 95.3096 70.8769 96.9214 66.1326 96.7784C64.8172 96.7389 63.4614 97.039 62.7411 98.2696C61.8222 99.8388 62.7482 101.341 63.5007 102.735C64.6659 104.891 65.835 107.042 67.0385 109.177C68.2198 108.213 69.4 107.25 70.5803 106.286C69.1791 105.186 67.897 103.923 66.8832 102.461C66.4524 101.84 65.8814 101.089 65.6575 100.363C65.5122 99.8926 65.9591 99.2844 65.9995 98.7045C66.0267 98.3457 65.7624 97.9767 65.4648 97.8114Z" fill="#D81823"/>
<path d="M68.3905 28.891C70.1458 33.3929 73.1348 37.2126 75.7273 41.2462C78.3814 45.3751 80.8025 49.6489 82.822 54.1295C84.8073 58.5341 86.3245 63.2266 87.079 68.0093C87.4543 70.3885 87.6217 72.8082 87.5996 75.2168C87.5774 77.6203 87.3232 79.9721 87.5209 82.3716C87.6056 83.3975 89.0118 83.8607 89.5364 82.8673C91.3431 79.4491 91.331 75.303 91.0435 71.5198C90.7439 67.5866 89.947 63.6828 88.7647 59.9249C86.3446 52.2339 82.2975 45.2352 77.7419 38.6399C75.2028 34.9652 72.585 31.2662 69.0725 28.4703C68.7799 28.2372 68.2251 28.4663 68.3905 28.891Z" fill="#FFD2DB"/>
<path d="M89.6533 35.7609C90.422 37.8289 90.7075 40.0114 91.2149 42.1524C91.7243 44.3004 92.1077 46.4637 92.3326 48.6615C92.5556 50.8491 92.6736 53.0559 92.5969 55.2547C92.5616 56.2907 92.6 57.2912 92.5929 58.3222C92.5858 59.4028 92.2802 60.603 92.6544 61.633C92.9107 62.3385 93.8559 62.672 94.4026 62.0516C95.1229 61.2335 95.2742 60.1266 95.5042 59.0834C95.7645 57.9075 96.0187 56.8188 96.0782 55.6085C96.1972 53.1836 96.1044 50.7588 95.7382 48.3584C95.3811 46.0217 94.8031 43.7591 94.0112 41.533C93.2123 39.2897 91.804 37.3494 90.5512 35.3544C90.2586 34.8911 89.4506 35.2165 89.6533 35.7609Z" fill="#FFD2DB"/>
<path d="M20.3045 41.3465C16.336 48.1576 13.579 55.3459 12.1889 63.1393C10.8261 70.7787 9.96661 78.9229 11.4051 86.6058C11.7219 88.2967 14.0763 87.6388 14.1792 86.1588C14.4425 82.3796 14.4617 78.5934 14.6483 74.8102C14.8339 71.0422 15.2647 67.3087 15.8649 63.5864C17.0603 56.167 18.6198 48.6949 20.6102 41.4681C20.6606 41.2826 20.3983 41.1863 20.3045 41.3465Z" fill="#FFD2DB"/>
<path d="M56.8894 37.9059C57.3231 37.54 57.769 37.3494 58.0878 36.8466C58.3783 36.3884 58.5992 35.8431 58.8393 35.3565C59.3346 34.3519 59.7401 33.2834 60.2022 32.2616C60.6682 31.2306 61.1766 30.219 61.7254 29.2296C62.2732 28.2412 62.9178 27.3055 63.4282 26.2979C63.8943 25.3754 65.0705 23.9461 64.0809 22.9983C62.9803 21.945 61.8001 23.5558 61.1464 24.3181C59.6584 26.0536 58.5962 28.2179 57.6469 30.2889C57.0891 31.5053 56.5928 32.7735 56.2256 34.063C56.0591 34.6479 55.9431 35.2865 55.8685 35.8917C55.7767 36.6378 56.0561 37.094 56.2942 37.763C56.389 38.0337 56.6826 38.0803 56.8894 37.9059Z" fill="#FFD2DB"/>
<path d="M47.259 27.6167C47.4305 27.5944 47.6191 27.5894 47.7856 27.5438C47.9924 27.487 48.1679 27.3522 48.3575 27.2599C48.7681 27.0602 49.215 26.9396 49.6084 26.7074C50.3367 26.2786 51.0479 25.8012 51.7147 25.2832C52.4431 24.7175 53.1452 24.1316 53.8362 23.5223C54.5726 22.8725 55.6822 22.1457 55.8366 21.1198C55.7448 21.2871 55.654 21.4544 55.5622 21.6216C55.9324 21.1655 56.2865 20.7022 56.6325 20.2278C56.8423 19.9399 56.7182 19.4655 56.4812 19.2374C56.2088 18.9758 55.8123 18.9606 55.4906 19.134C55.0416 19.3752 54.6048 19.6297 54.1691 19.8942C54.3557 19.8385 54.5413 19.7828 54.7279 19.727C54.0924 19.7311 53.7252 19.9774 53.2511 20.3403C52.8829 20.6221 52.5328 20.9232 52.1828 21.2263C51.6209 21.7128 51.0439 22.1862 50.5133 22.7073C49.9806 23.2304 49.4621 23.7484 48.9789 24.3171C48.4483 24.9426 47.8895 25.5417 47.612 26.3283C47.6695 26.2239 47.726 26.1195 47.7835 26.015C47.6201 26.235 47.4305 26.4479 47.2852 26.6811C47.1571 26.8869 47.1097 27.119 47.0471 27.3511C47.0138 27.4738 47.1208 27.635 47.259 27.6167Z" fill="#FFD2DB"/>
<path d="M67.3689 68.3651C67.374 68.5111 67.378 68.6581 67.3831 68.8041C67.3871 68.944 67.3699 69.0362 67.3316 69.1741C67.4153 69.0585 67.4991 68.9439 67.5828 68.8284C66.4399 69.6677 67.1077 71.3343 68.2163 71.8543C68.9154 72.1828 69.7335 72.128 70.3408 71.6313C70.5879 71.4296 70.8018 71.1893 70.942 70.8964C71.1236 70.5162 71.1801 70.1939 71.2234 69.7782C71.2123 69.8847 71.2002 69.9921 71.1881 70.0986C71.3344 69.1578 71.1377 68.1208 70.3599 67.4974C69.9625 67.1791 69.4803 66.9013 68.9799 66.7969C68.7076 66.7401 68.4211 66.7047 68.1427 66.7209C67.6675 66.7483 67.2822 66.9115 66.8605 67.1172C66.458 67.3139 66.0918 67.62 65.7922 67.9535C65.2303 68.58 64.9792 69.3454 65.0013 70.1827C65.0195 70.869 65.2324 71.5279 65.5683 72.1209C65.9072 72.719 66.3965 73.1549 66.9473 73.5432C67.9127 74.2244 69.2362 74.3511 70.3509 74.0237C70.8078 73.8888 71.2709 73.6729 71.6481 73.3769C72.1646 72.9724 72.6529 72.5142 72.9273 71.8989C73.1966 71.2937 73.3903 70.649 73.3187 69.9759C73.247 69.3008 73.0705 68.6408 72.6801 68.0742C71.9366 66.9936 70.6979 66.1897 69.3461 66.2981C68.8629 66.3367 68.5573 66.4218 68.1396 66.6114C67.7472 66.7898 67.4698 66.9915 67.141 67.2895C66.6618 67.7234 66.3824 68.3175 66.1735 68.9156C65.7226 70.2091 66.4469 71.8878 67.6766 72.4767C68.3484 72.7981 69.2382 72.7535 69.7597 72.1544C70.2702 71.5664 70.3852 70.7291 69.9776 70.0469C69.9544 70.0083 69.9332 69.9698 69.9141 69.9293C69.9766 70.0692 70.0391 70.2091 70.1017 70.3489C70.0553 70.2435 70.026 70.1371 70.0079 70.0236C70.0341 70.1888 70.0603 70.355 70.0866 70.5203C70.0745 70.4209 70.0724 70.3246 70.0805 70.2253C70.0613 70.3996 70.0422 70.574 70.024 70.7484C70.0381 70.6196 70.0694 70.497 70.1138 70.3753C70.0482 70.5416 69.9837 70.7088 69.9181 70.8751C70.0119 70.6379 70.1279 70.4088 70.1895 70.1604C70.2117 70.0702 70.2369 69.984 70.2691 69.8968C70.2026 70.0672 70.136 70.2374 70.0694 70.4067C70.1269 70.2638 70.1995 70.13 70.2893 70.0043C70.1834 70.1492 70.0775 70.2942 69.9716 70.4402C70.0543 70.3307 70.1461 70.2324 70.252 70.1452C70.1128 70.2587 69.9736 70.3723 69.8354 70.4858C69.9191 70.4209 70.0059 70.3662 70.1007 70.3185C69.9352 70.3936 69.7698 70.4686 69.6044 70.5436C69.7163 70.4929 69.8293 70.4584 69.9504 70.4382C69.7648 70.4676 69.5792 70.498 69.3945 70.5274C69.5045 70.5132 69.6114 70.5111 69.7214 70.5193C69.5348 70.499 69.3481 70.4777 69.1615 70.4574C69.3058 70.4736 69.441 70.5081 69.5761 70.5608C69.4077 70.4939 69.2382 70.427 69.0697 70.3601C69.2039 70.4169 69.327 70.4878 69.445 70.573C69.3007 70.4665 69.1565 70.3601 69.0122 70.2537C69.1444 70.355 69.2614 70.4696 69.3673 70.5983C69.2543 70.4584 69.1424 70.3196 69.0294 70.1797C69.1323 70.3125 69.219 70.4534 69.2906 70.6054C69.216 70.4392 69.1413 70.2729 69.0667 70.1067C69.1333 70.2598 69.1817 70.4169 69.2099 70.5821C69.1807 70.3956 69.1514 70.2101 69.1212 70.0236C69.1413 70.1706 69.1454 70.3155 69.1302 70.4635C69.1504 70.276 69.1706 70.0894 69.1918 69.9019C69.1716 70.0469 69.1353 70.1847 69.0818 70.3216C69.1484 70.1523 69.214 69.983 69.2806 69.8137C69.2251 69.9445 69.1575 70.0661 69.0768 70.1837C69.1827 70.0388 69.2876 69.8938 69.3935 69.7498C69.2876 69.8938 69.1686 70.0205 69.0324 70.1351C69.1706 70.0215 69.3098 69.909 69.448 69.7955C69.2937 69.9202 69.1282 70.0225 68.9487 70.1067C69.1131 70.0317 69.2785 69.9566 69.443 69.8826C69.2442 69.9708 69.0395 70.0317 68.8246 70.0661C69.0092 70.0367 69.1938 70.0073 69.3784 69.9769C69.1817 70.0063 68.987 70.0124 68.7893 69.9921C68.9739 70.0124 69.1595 70.0327 69.3441 70.053C69.1767 70.0306 69.0153 69.9901 68.8569 69.9313C69.0233 69.9972 69.1898 70.0631 69.3572 70.129C69.1928 70.0611 69.0395 69.9769 68.8942 69.8745C69.0354 69.979 69.1777 70.0844 69.3199 70.1888C69.1605 70.0712 69.0193 69.9374 68.8922 69.7853C69.0021 69.9222 69.1131 70.058 69.2231 70.1949C69.101 70.0408 68.9991 69.8766 68.9174 69.6981C68.99 69.8603 69.0627 70.0215 69.1353 70.1837C69.0667 70.0225 69.0183 69.8583 68.991 69.685C69.0193 69.8654 69.0485 70.0458 69.0768 70.2263C69.0596 70.0904 69.0556 69.9587 69.0657 69.8218C69.0455 70.0033 69.0263 70.1837 69.0062 70.3652C69.0324 70.129 69.0828 69.8725 69.1615 69.6485C69.101 69.8046 69.0395 69.9597 68.9789 70.1158C69.0193 70.0195 69.0727 69.9323 69.1323 69.8472C69.0374 69.9769 68.9426 70.1057 68.8488 70.2354C68.9416 70.1087 69.0465 69.9952 69.1656 69.8928C69.0465 69.9901 68.9265 70.0884 68.8074 70.1858C68.986 70.0408 69.1938 69.906 69.4006 69.8066C69.2705 69.8654 69.1413 69.9242 69.0112 69.983C69.102 69.9435 69.1928 69.911 69.2886 69.8867C69.1514 69.909 69.0142 69.9303 68.876 69.9526C69.0364 69.9394 69.2271 69.9201 69.3794 69.8674C69.2453 69.8887 69.1101 69.911 68.9759 69.9323C69.0253 69.9252 69.0738 69.9191 69.1242 69.9151C68.9931 69.9009 68.8619 69.8857 68.7308 69.8715C68.8306 69.8867 68.9265 69.911 69.0223 69.9465C68.9063 69.9009 68.7913 69.8553 68.6753 69.8097C68.7731 69.8502 68.8609 69.9009 68.9456 69.9637C68.8498 69.8928 68.754 69.8218 68.6581 69.7519C68.7822 69.8502 68.8962 69.9698 68.9971 70.0915C68.9275 70.0043 68.8569 69.9181 68.7873 69.831C68.8286 69.8928 68.8629 69.9577 68.8952 70.0256C68.8498 69.9252 68.8054 69.8249 68.76 69.7245C68.8206 69.8634 68.8629 70.0063 68.8871 70.1563C68.87 70.0499 68.8538 69.9445 68.8367 69.838C68.8417 69.9283 68.8397 70.0175 68.8306 70.1077C68.8417 70.0033 68.8538 69.8978 68.8649 69.7934C68.8538 69.8826 68.8337 69.9678 68.8115 70.055C68.7701 70.2182 68.9275 69.8056 68.867 69.9201C68.8498 69.9516 68.8357 69.986 68.8185 70.0175C68.758 70.1239 68.6935 70.1269 68.8932 69.9282C68.8629 69.9587 68.8367 69.9952 68.8064 70.0256C68.7812 70.0519 68.753 70.0753 68.7277 70.1016C68.6481 70.1868 68.9638 69.9435 68.8195 70.0205C68.6874 70.0915 68.7278 70.0236 68.9043 69.9921C68.9003 69.9931 68.7742 70.0357 68.7742 70.0317C68.7742 70.0094 69.0838 70.0094 68.8912 70.0094C68.8559 70.0094 68.8145 70.0053 68.7792 70.0094C69.0294 69.9759 68.9779 70.0388 68.8639 70.0124C68.8266 70.0043 68.7691 69.9759 68.7318 69.9749C68.7812 69.9769 68.9497 70.0813 68.8115 70.0033C68.7711 69.981 68.7298 69.9577 68.6884 69.9354C68.5593 69.8664 68.7066 69.9354 68.7409 69.98C68.7167 69.9485 68.6632 69.9161 68.6339 69.8877C68.6057 69.8614 68.5815 69.8299 68.5532 69.8046C68.5099 69.7559 68.531 69.7833 68.6178 69.8867C68.4675 69.7002 68.4342 69.6596 68.5199 69.7651C68.6188 69.8634 68.528 69.7732 68.5058 69.7407C68.4927 69.7215 68.4574 69.6393 68.4392 69.6272C68.4887 69.6606 68.5028 69.8005 68.4564 69.6495C68.4403 69.5958 68.4645 69.5278 68.4443 69.6201C68.4635 69.7367 68.4564 69.6921 68.4231 69.4843C68.4211 69.4711 68.4181 69.4579 68.416 69.4447C68.4473 69.6576 68.4322 69.5045 68.4271 69.4599C68.414 69.3403 68.407 69.5836 68.4281 69.4477C68.4493 69.315 68.4402 69.2045 68.3908 69.0788C68.3363 68.9409 68.2849 68.8497 68.2597 68.7017C68.2324 68.5455 68.2062 68.3894 68.179 68.2333C68.0983 67.766 67.3548 67.9079 67.3689 68.3651Z" fill="#EFAEAC"/>
<path d="M35.4645 68.3559C35.4353 68.2687 35.3959 68.1856 35.3546 68.1035C35.3979 68.1927 35.2567 67.9524 35.2597 67.9565C35.3193 68.0254 35.2022 67.8936 35.1811 67.8693C35.2254 67.9697 35.2698 68.07 35.3142 68.1704C35.3112 68.1359 35.3082 68.1014 35.3061 68.067C35.2567 67.4699 34.9117 67.0766 34.364 66.884C34.2954 66.8596 34.2258 66.8394 34.1551 66.8242C34.2661 66.8678 34.3761 66.9114 34.487 66.956C34.1743 66.812 33.8545 66.7491 33.5156 66.7866C33.6487 66.8008 33.7819 66.816 33.9151 66.8302C33.453 66.7481 33.0848 66.8079 32.6763 67.0289C32.7963 66.9742 32.9164 66.9194 33.0364 66.8657C32.5704 67.0705 32.2385 67.2611 31.8551 67.6017C31.4819 67.9322 31.262 68.366 31.1097 68.8354C30.9533 69.3189 30.9876 69.8116 31.0824 70.3002C31.1177 70.4806 31.1853 70.6297 31.261 70.8C31.3356 70.9662 31.4012 71.1203 31.5091 71.2663C31.9954 71.9231 32.6823 72.4148 33.4944 72.574C33.8333 72.6399 34.2026 72.6865 34.5506 72.651C34.8966 72.6155 35.2597 72.5658 35.5836 72.429C36.0617 72.2263 36.4319 72.0174 36.8072 71.6474C37.1169 71.3423 37.3166 70.9824 37.472 70.585C37.6465 70.138 37.7302 69.6616 37.6889 69.179C37.6384 68.582 37.5063 68.143 37.2521 67.6118C37.0745 67.2428 36.8072 66.9164 36.5278 66.6214C36.2403 66.3193 35.9316 66.0345 35.5482 65.8581C34.9773 65.5955 34.4618 65.4526 33.8283 65.4465C33.3088 65.4415 32.8266 65.5773 32.3626 65.7882C31.5313 66.1653 30.802 66.8019 30.4287 67.6564C30.2613 68.0406 30.0948 68.438 30.0363 68.8567C29.997 69.1446 29.9526 69.4497 29.9536 69.7457C29.9546 70.0579 30.0192 70.3711 30.0737 70.6753C30.1463 71.0858 30.3289 71.4872 30.5286 71.8471C30.6729 72.1056 30.8797 72.3367 31.0693 72.5587C31.1571 72.6621 31.2509 72.7554 31.3558 72.8416C31.8783 73.2694 32.2889 73.4843 32.9164 73.7154C33.3269 73.8675 33.7678 73.908 34.2025 73.9374C34.6414 73.9668 35.1004 73.8867 35.524 73.7884C35.639 73.762 35.752 73.7255 35.862 73.6819C36.1444 73.5694 36.44 73.4468 36.7013 73.2836C37.5961 72.725 38.1902 71.8654 38.4979 70.8648C38.7481 70.0528 38.7067 69.0726 38.4555 68.2667C38.3678 67.9849 38.2336 67.7132 38.1075 67.4486C38.048 67.3229 37.9814 67.2013 37.9007 67.0867C37.6616 66.7451 37.4034 66.3893 37.0755 66.1267C36.5419 65.6999 36.1111 65.4577 35.4504 65.2529C35.3273 65.2144 35.2043 65.1901 35.0772 65.1739C34.7614 65.1333 34.4285 65.0735 34.1067 65.0988C32.9658 65.188 31.9167 65.6249 31.0794 66.4136C30.9906 66.4978 30.9109 66.587 30.8363 66.6833C30.6335 66.9438 30.4136 67.2144 30.2633 67.5125C29.9314 68.1694 29.8033 68.7512 29.7589 69.4791C29.6903 70.6084 30.2159 71.8045 31.0935 72.5081C31.4769 72.8152 31.9015 73.1609 32.3999 73.2613C32.9204 73.3667 33.3068 73.3221 33.8222 73.2116C33.6336 73.242 33.445 73.2724 33.2563 73.3028C33.5095 73.3109 33.8021 73.2765 34.027 73.1994C33.68 73.2075 33.332 73.2167 32.985 73.2248C33.3138 73.2947 33.674 73.3221 34.0109 73.2765C34.3851 73.2258 34.7069 73.168 35.0338 72.9632C35.3102 72.7899 35.5059 72.5719 35.6905 72.3003C35.5129 72.4878 35.3354 72.6753 35.1579 72.8629C35.4786 72.7068 35.7853 72.3013 35.9497 71.9951C36.212 71.5055 36.0678 70.7361 35.519 70.4938C35.4282 70.4533 35.3435 70.4036 35.2628 70.3448C35.3566 70.4137 35.4504 70.4837 35.5452 70.5526C35.3959 70.4391 35.2628 70.3073 35.0933 70.2171C35.2799 70.3955 35.4665 70.5749 35.6532 70.7533C35.4554 70.3935 35.0983 70.1603 34.7806 69.9272C34.9026 70.0174 35.0247 70.1076 35.1478 70.1978C35.0247 70.1025 34.9258 69.988 34.8118 69.8825C34.9874 70.1684 35.1619 70.4543 35.3374 70.7402C35.285 70.5313 35.1669 70.3448 35.0782 70.1502C35.1508 70.3134 35.2244 70.4756 35.2971 70.6388C35.2819 70.6033 35.2668 70.5668 35.2517 70.5313C35.2819 70.7209 35.3122 70.9115 35.3425 71.101C35.29 70.6053 35.2315 70.142 34.9632 69.697C34.8905 69.5764 34.8179 69.4588 34.7574 69.3311C34.8441 69.5257 34.9319 69.7193 35.0186 69.914C34.9561 69.771 34.9198 69.6261 34.8774 69.4771C34.8351 69.325 34.7775 69.1831 34.7493 69.027C34.7846 69.253 34.8209 69.4791 34.8572 69.7051C34.8351 69.5561 34.83 69.4081 34.8431 69.2571C34.8189 69.4842 34.7937 69.7112 34.7695 69.9373C34.7876 69.7751 34.826 69.62 34.8835 69.4679C34.8038 69.6727 34.7231 69.8775 34.6434 70.0812C34.71 69.916 34.7957 69.7639 34.9006 69.619C34.7735 69.7933 34.6464 69.9677 34.5193 70.1421C34.6555 69.9626 34.8129 69.7943 34.9854 69.6484C34.8209 69.7832 34.6565 69.917 34.4921 70.0518C34.6575 69.917 34.835 69.8055 35.0287 69.7153C34.8361 69.8025 34.6444 69.8896 34.4517 69.9768C34.6454 69.8917 34.8441 69.8339 35.0519 69.7994C34.8411 69.8329 34.6303 69.8673 34.4184 69.9008C34.5778 69.8775 34.7362 69.8714 34.8966 69.8856C34.6878 69.8623 34.48 69.84 34.2711 69.8167C34.4164 69.8329 34.5556 69.8704 34.6918 69.9211C34.5052 69.8471 34.3196 69.7741 34.1329 69.7001C34.2762 69.7589 34.4093 69.8319 34.5365 69.9211C34.3791 69.8055 34.2227 69.6889 34.0654 69.5734C34.1763 69.6565 34.2772 69.7477 34.372 69.8491C34.251 69.6991 34.1289 69.549 34.0079 69.399C34.134 69.5561 34.2358 69.7285 34.3196 69.9119C34.2399 69.7335 34.1602 69.5561 34.0795 69.3777C34.1592 69.5652 34.2167 69.7589 34.252 69.9596C34.2207 69.7609 34.1884 69.5612 34.1572 69.3625C34.1915 69.5794 34.1985 69.7954 34.1763 70.0143C34.1975 69.8146 34.2197 69.6149 34.2419 69.4152C34.2187 69.5997 34.1753 69.7781 34.1087 69.9525C34.1793 69.7721 34.25 69.5916 34.3206 69.4112C34.2621 69.5551 34.1894 69.6899 34.0997 69.8167C34.2116 69.6626 34.3246 69.5085 34.4366 69.3554C34.3418 69.4842 34.2348 69.5977 34.1138 69.7011C34.2611 69.5804 34.4083 69.4608 34.5556 69.3402C34.4204 69.4497 34.2752 69.5399 34.1178 69.6149C34.2923 69.5358 34.4679 69.4558 34.6424 69.3767C34.4537 69.4608 34.259 69.5186 34.0553 69.5541C34.251 69.5227 34.4467 69.4913 34.6424 69.4598C34.4204 69.4933 34.1995 69.4983 33.9766 69.475C34.1733 69.4963 34.37 69.5186 34.5667 69.5399C34.3599 69.5146 34.1612 69.4669 33.9655 69.3939C34.143 69.4639 34.3206 69.5348 34.4981 69.6048C34.3206 69.5338 34.1551 69.4456 33.9998 69.3351C34.1511 69.4466 34.3034 69.5592 34.4547 69.6707C34.3145 69.5663 34.1894 69.4477 34.0775 69.3118C34.1955 69.4588 34.3145 69.6048 34.4326 69.7518C34.3367 69.6281 34.256 69.4973 34.1904 69.3554C34.2691 69.5298 34.3468 69.7041 34.4255 69.8785C34.3518 69.7092 34.3024 69.5338 34.2732 69.3513C34.3044 69.546 34.3347 69.7417 34.366 69.9363C34.3387 69.7366 34.3367 69.5379 34.3569 69.3372C34.3357 69.5328 34.3145 69.7295 34.2933 69.9251C34.3206 69.7082 34.373 69.5004 34.4517 69.2966C34.3821 69.474 34.3135 69.6504 34.2439 69.8278C34.3145 69.6565 34.4013 69.4963 34.5072 69.3453C34.3972 69.4963 34.2863 69.6474 34.1763 69.7984C34.3226 69.5987 34.4669 69.399 34.6111 69.1983C34.5011 69.3483 34.3922 69.4994 34.2822 69.6494C34.3821 69.5166 34.4931 69.398 34.6212 69.2926C34.48 69.4081 34.3387 69.5237 34.1975 69.6393C34.3165 69.546 34.4436 69.4679 34.5808 69.4051C34.4154 69.4801 34.25 69.5551 34.0845 69.6301C34.2046 69.5795 34.3256 69.5419 34.4537 69.5186C34.2711 69.548 34.0886 69.5774 33.906 69.6068C34.0522 69.5845 34.1975 69.5805 34.3448 69.5947C34.1642 69.5744 33.9836 69.5551 33.8031 69.5348C33.9665 69.5551 34.1239 69.5947 34.2782 69.6524C34.1178 69.5886 33.9574 69.5257 33.797 69.4618C34.0462 69.5632 34.2974 69.6585 34.5486 69.7518C34.3922 69.6899 34.2358 69.6281 34.0795 69.5663C34.1743 69.6038 34.255 69.6524 34.3377 69.7122C34.2076 69.6159 34.0765 69.5196 33.9463 69.4233C34.0926 69.5348 34.2227 69.6595 34.3397 69.8025C34.2409 69.6798 34.141 69.5561 34.0422 69.4335C34.144 69.5632 34.2308 69.7001 34.3014 69.8491C34.2368 69.7062 34.1733 69.5632 34.1087 69.4203C34.1612 69.5379 34.2066 69.6595 34.2288 69.7873C34.2036 69.6301 34.1783 69.473 34.1541 69.3149C34.1693 69.4436 34.1713 69.5703 34.1582 69.7001C34.1753 69.5419 34.1925 69.3848 34.2096 69.2267C34.1925 69.3564 34.1602 69.4791 34.1128 69.6007C34.1683 69.4588 34.2237 69.3169 34.2792 69.174C34.2368 69.2723 34.1864 69.3635 34.1249 69.4517C34.2136 69.3311 34.3014 69.2095 34.3902 69.0888C34.3196 69.1831 34.2409 69.2672 34.1511 69.3432C34.2661 69.249 34.3821 69.1547 34.4971 69.0604C34.3851 69.1517 34.2641 69.2257 34.1329 69.2875C34.2701 69.2257 34.4063 69.1638 34.5435 69.101C34.3841 69.1719 34.2197 69.2196 34.0492 69.249C34.2015 69.2246 34.3539 69.2003 34.5062 69.176C34.3196 69.2044 34.134 69.2084 33.9463 69.1882C34.0986 69.2054 34.251 69.2216 34.4043 69.2388C34.2469 69.2186 34.0946 69.1831 33.9463 69.1273C34.0835 69.1821 34.2207 69.2358 34.3579 69.2905C34.2258 69.2378 34.1037 69.1719 33.9887 69.0878C34.1057 69.174 34.2217 69.2601 34.3387 69.3463C34.2479 69.2764 34.1662 69.1983 34.0936 69.1091C34.1844 69.2216 34.2752 69.3341 34.367 69.4467C34.3034 69.3635 34.25 69.2763 34.2056 69.181C34.2651 69.3149 34.3256 69.4487 34.3851 69.5825C34.3408 69.4781 34.3085 69.3726 34.2903 69.2611C34.3135 69.4102 34.3377 69.5592 34.3609 69.7082C34.3488 69.6119 34.3468 69.5176 34.3559 69.4203C34.3397 69.5703 34.3236 69.7193 34.3065 69.8694C34.3206 69.7599 34.3458 69.6565 34.3831 69.5531C34.3307 69.6879 34.2772 69.8227 34.2247 69.9576C34.3014 69.765 34.3872 69.5744 34.5072 69.4041C34.4265 69.5146 34.3458 69.6251 34.2651 69.7356C34.3579 69.6089 34.4628 69.4953 34.5808 69.3929C34.48 69.475 34.3791 69.5581 34.2782 69.6403C34.4679 69.5135 34.602 69.3889 34.7311 69.2115C34.8603 69.0351 34.9248 68.8597 35.0015 68.656C34.8784 68.88 34.7564 69.105 34.6333 69.3291C34.6757 69.2774 34.7201 69.2277 34.7665 69.1801C34.6726 69.2571 34.5788 69.3331 34.485 69.4102C34.7029 69.25 34.9097 69.0939 35.0237 68.8364C34.9541 68.9317 34.8845 69.027 34.8159 69.1212C34.8502 69.0777 34.8875 69.0381 34.9238 68.9966C35.1125 68.7847 35.2224 68.5586 35.2991 68.2859C35.1639 68.3944 35.0287 68.5039 34.8936 68.6124C34.7594 68.6002 35.1004 68.6549 34.9712 68.6276C35.0096 68.6357 35.0499 68.6458 35.0872 68.661C35.284 68.7401 35.5442 68.5921 35.4645 68.3559Z" fill="#EFAEAC"/>
<path d="M45.174 21.5061C38.9741 22.8502 33.8596 27.2477 30.1171 32.2393C25.8792 37.8928 23.3512 44.565 21.7927 51.4238C20.0616 59.0389 19.4765 66.8465 18.61 74.5913C17.7758 82.0492 16.7952 89.7707 13.9808 96.7805C11.4972 102.966 7.2573 109.132 0.57319 111.071C0.894988 111.471 1.21779 111.873 1.53959 112.273C6.39985 102.063 7.13121 90.6191 7.54077 79.4845C7.92209 69.1233 8.12182 58.6101 11.2833 48.6392C12.9801 43.2868 15.62 38.4554 19.1941 34.138C19.8024 33.404 18.7926 32.4096 18.1157 33.106C14.6375 36.6844 12.2255 41.2411 10.4955 45.8951C8.74322 50.6058 7.72235 55.5649 7.08581 60.5442C5.69775 71.4052 6.27174 82.404 4.96033 93.27C4.20477 99.5307 2.80762 105.754 0.0869643 111.466C-0.220711 112.113 0.332096 112.877 1.05337 112.668C7.02024 110.939 11.2843 106.054 14.004 100.641C17.2502 94.1824 18.5626 86.8897 19.4705 79.7754C21.365 64.9367 21.2076 48.849 29.2999 35.7011C33.1121 29.5073 38.625 24.7206 45.2587 21.794C45.4342 21.7169 45.3656 21.4645 45.174 21.5061Z" fill="#2A2B2D"/>
<path d="M13.8739 37.9779C17.0758 35.766 19.9346 33.0989 23.1254 30.8596C26.3554 28.5919 29.7893 26.5908 33.3382 24.8705C40.3844 21.4564 48.0319 19.2272 55.8358 18.5724C63.1978 17.955 70.5921 18.7355 77.6262 21.0215C84.3366 23.201 90.6535 26.5939 96.0928 31.115C101.544 35.6474 105.878 41.1954 109.09 47.521C109.49 48.3097 109.891 49.0173 110.405 49.736C110.821 50.3168 111.597 49.9083 111.488 49.2453C111.418 48.8226 111.376 48.3746 111.233 47.9701C111.064 47.4916 110.837 47.0263 110.628 46.5651C110.258 45.749 109.868 44.9421 109.434 44.1575C108.555 42.569 107.585 41.0322 106.531 39.5542C104.429 36.6074 102.013 33.8845 99.3481 31.4415C93.9693 26.5097 87.6171 22.7154 80.7948 20.1811C73.7495 17.5637 66.1424 16.5054 58.6502 16.8825C50.6941 17.2829 42.8135 19.2465 35.5161 22.4376C28.2277 25.6258 21.1845 30.0334 15.5041 35.6585C14.8353 36.3215 14.2744 37.0716 13.7246 37.8349C13.6621 37.9231 13.7902 38.0357 13.8739 37.9779Z" fill="#2A2B2D"/>
<path d="M94.3573 33.0715C100.198 42.939 99.4183 55.2688 97.6055 66.145C95.6606 77.8169 92.6504 89.6044 94.7114 101.481C95.7211 107.302 98.004 112.888 101.902 117.363C102.335 116.906 102.767 116.449 103.2 115.991C98.0776 112.016 93.8499 106.97 90.8326 101.214C87.7841 95.3998 86.3144 89.0012 85.3096 82.55C84.2867 75.9821 83.6482 69.3179 81.8899 62.891C81.0223 59.7191 79.8623 56.6161 78.2936 53.7239C76.6342 50.6625 74.4643 47.9387 72.3187 45.2138C67.8014 39.4731 62.7454 32.3741 65.2684 24.6658C65.4187 24.2056 65.0616 23.7008 64.6228 23.5852C64.1103 23.4504 63.7209 23.7879 63.5484 24.234C60.9639 30.8951 64.6278 38.0925 68.5378 43.3719C70.6653 46.2448 73.0167 48.9493 75.003 51.9276C76.8712 54.7275 78.2916 57.7636 79.3417 60.9609C81.441 67.3513 82.1653 74.0783 83.1357 80.705C84.1142 87.3874 85.3742 94.0262 88.228 100.189C91.335 106.895 96.0752 112.841 101.901 117.361C102.86 118.105 104.005 116.914 103.199 115.989C96.1065 107.85 95.1714 96.2371 96.2517 85.9307C97.5117 73.9161 101.213 62.1591 100.576 49.9742C100.252 43.7591 98.7434 37.7072 95.4689 32.3792C95.0271 31.6604 93.9255 32.3437 94.3573 33.0715Z" fill="#2A2B2D"/>
<path d="M64.236 23.573C63.5087 24.2644 63.4461 25.4261 63.3584 26.3952C63.2585 27.4961 63.2313 28.6011 63.0446 29.6928C62.74 31.479 62.162 33.2327 61.3116 34.8313C59.5644 38.1138 56.99 40.8325 53.6691 42.5234C54.0989 42.6866 54.5286 42.8508 54.9583 43.014C52.8671 36.7827 53.8154 29.7435 57.2694 24.1823C57.7577 23.3956 58.2953 22.6434 58.8855 21.9318C59.1649 21.5953 59.4574 21.2709 59.753 20.9475C60.098 20.5714 60.3109 20.1355 60.5802 19.7067C60.9262 19.1573 60.2251 18.6099 59.7248 18.8876C59.3384 19.1015 58.9309 19.284 58.6091 19.5932C58.2953 19.8942 58.0119 20.2369 57.7314 20.5694C57.1595 21.2465 56.6268 21.9602 56.1345 22.6972C55.1722 24.1356 54.3904 25.6805 53.7629 27.2934C52.4838 30.5818 51.9068 34.1582 52.1408 37.685C52.273 39.6688 52.6553 41.6374 53.2928 43.5199C53.4845 44.0865 54.0736 44.2711 54.5821 44.0105C58.0199 42.2487 60.9686 39.2927 62.622 35.7741C63.4532 34.0072 64.0453 32.1389 64.2824 30.1956C64.4095 29.1515 64.4266 28.1074 64.4438 27.0572C64.4539 26.4469 64.4599 25.8336 64.5033 25.2254C64.5447 24.6455 64.6153 24.1914 64.4862 23.6318C64.4609 23.5173 64.3116 23.501 64.236 23.573Z" fill="#2A2B2D"/>
<path d="M54.5737 26.8332C54.3396 27.267 53.9119 27.6269 53.6184 28.0324C53.3127 28.4551 52.9929 28.8677 52.6681 29.2742C52.0407 30.0609 51.391 30.8292 50.6758 31.5368C49.2565 32.9398 47.6828 34.14 45.9144 35.0645C45.0267 35.5288 44.1016 35.9191 43.1514 36.2323C42.7438 36.3661 42.2969 36.5466 41.8652 36.5689C41.2882 36.5983 41.4435 36.1056 41.4677 35.6576C41.6029 33.1192 41.7653 30.5647 42.413 28.0973C42.7307 26.8879 43.1695 25.7171 43.7728 24.6212C44.372 23.5345 45.1921 22.6323 45.9043 21.6267C46.2967 21.0722 45.5119 20.4478 44.9994 20.76C42.9022 22.0403 41.7159 24.8392 41.033 27.1079C40.1987 29.8814 40.0292 32.8181 39.887 35.6961C39.8275 36.8994 40.1876 38.0438 41.5646 38.1462C42.6581 38.2283 43.8515 37.6951 44.8431 37.2846C46.9726 36.4036 48.9225 35.1335 50.6264 33.5794C51.5978 32.6934 52.4654 31.6919 53.2108 30.6062C53.5649 30.0902 53.8857 29.5438 54.1581 28.9792C54.2942 28.6974 54.4274 28.4014 54.5364 28.1074C54.6746 27.7344 54.6675 27.3339 54.8158 26.965C54.8803 26.8058 54.6604 26.671 54.5737 26.8332Z" fill="#2A2B2D"/>
<path d="M105.423 49.0456C105.478 49.6954 105.703 50.3209 105.809 50.9666C105.915 51.6083 106.065 52.2439 106.208 52.8775C106.509 54.2064 106.723 55.5577 106.886 56.911C107.207 59.572 107.231 62.2726 106.941 64.9376C106.357 70.2901 104.581 75.5259 101.755 80.0998C100.984 81.3466 100.134 82.5387 99.1985 83.666C98.7274 84.2347 98.2361 84.7872 97.7267 85.3224C97.182 85.8941 96.493 86.3949 96.3679 87.2181C96.3164 87.5577 96.5313 87.9378 96.9207 87.9115C97.6601 87.8608 98.1 87.436 98.6013 86.9282C99.1208 86.402 99.6212 85.8577 100.102 85.2971C101.031 84.2144 101.891 83.0689 102.681 81.8788C104.225 79.5534 105.455 77.0434 106.412 74.4209C108.337 69.1455 108.994 63.3735 108.309 57.796C108.121 56.2714 107.832 54.763 107.395 53.289C107.166 52.5156 106.919 51.7583 106.583 51.0234C106.278 50.3584 105.945 49.592 105.488 49.0263C105.469 49.002 105.42 49.0061 105.423 49.0456Z" fill="#2A2B2D"/>
<path d="M120.119 36.2951C120.776 38.9176 121.535 41.5168 122.09 44.1646C122.646 46.8215 123.033 49.513 123.24 52.2206C123.646 57.5487 123.3 62.9041 122.224 68.1369C120.263 77.6729 115.724 86.5845 109.284 93.8508C107.537 95.8225 105.654 97.6735 103.651 99.3837C102.659 100.231 101.632 101.039 100.579 101.811C99.49 102.609 98.3309 103.313 97.2778 104.156C96.4688 104.804 97.1779 105.98 98.1221 105.531C100.293 104.499 102.265 102.843 104.117 101.323C106 99.777 107.783 98.1115 109.454 96.3375C112.777 92.8067 115.67 88.8492 118.009 84.5956C123.134 75.2765 125.508 64.6082 124.909 53.9814C124.736 50.9129 124.311 47.8677 123.63 44.8701C122.941 41.8371 122.012 38.8497 120.526 36.1116C120.399 35.8785 120.059 36.0549 120.119 36.2951Z" fill="#2A2B2D"/>
<path d="M94.2112 109.033C92.8554 108.703 91.2131 109.758 90.0742 110.425C88.7234 111.217 87.4645 112.161 86.3377 113.25C84.0639 115.45 82.3349 118.133 81.2152 121.094C81.0427 121.551 81.4391 122.072 81.8658 122.183C82.3732 122.316 82.7868 121.983 82.9492 121.528C83.9146 118.84 85.5135 116.402 87.528 114.391C88.5187 113.402 89.597 112.494 90.7612 111.72C91.3725 111.313 92.007 110.954 92.6516 110.606C93.2569 110.278 93.9085 109.959 94.3181 109.408C94.4169 109.278 94.3897 109.077 94.2112 109.033Z" fill="#2A2B2D"/>
<path d="M67.8448 121.567C68.4803 120.993 68.7003 119.79 68.9837 119.002C69.3196 118.069 69.6848 117.145 70.0681 116.23C70.8459 114.376 71.7498 112.584 72.814 110.879C74.9102 107.522 77.5855 104.47 80.6723 101.999C81.5409 101.304 82.4427 100.651 83.3748 100.043C83.854 99.7304 84.3412 99.4293 84.8355 99.1424C85.3147 98.8637 85.8726 98.6397 85.9623 98.0233C85.9976 97.781 85.926 97.4931 85.6819 97.3766C84.7629 96.9407 83.6694 97.9108 82.9169 98.3882C82.0322 98.9509 81.1727 99.555 80.3425 100.197C78.7022 101.464 77.1648 102.865 75.7606 104.392C72.9401 107.462 70.6512 111.049 69.0442 114.901C68.6034 115.957 68.2211 117.039 67.9306 118.147C67.7772 118.732 67.6279 119.321 67.5452 119.923C67.4746 120.437 67.3435 121.005 67.5533 121.497C67.6067 121.622 67.7419 121.661 67.8448 121.567Z" fill="#2A2B2D"/>
<path d="M19.2513 76.2193C19.8112 78.2589 21.3062 80.0775 22.6297 81.6832C24.0027 83.3498 25.5259 84.8937 27.1672 86.2936C30.5012 89.1371 34.2951 91.5011 38.3171 93.2244C47.6936 97.2418 57.9619 98.1997 68.0607 97.5499C71.1486 97.3512 74.2263 97.0086 77.2889 96.5707C78.8657 96.3446 80.4383 96.0952 82.009 95.8266C83.5605 95.561 85.1664 95.3664 86.6675 94.8879C87.5653 94.602 87.3898 93.1261 86.3981 93.198C85.0212 93.2984 83.6654 93.6238 82.3066 93.863C80.9841 94.0962 79.6606 94.3162 78.333 94.5179C75.6336 94.9274 72.924 95.266 70.2043 95.5022C64.8468 95.9675 59.4256 96.0486 54.0761 95.4333C45.3291 94.4277 36.6022 91.5021 29.4752 86.2085C27.5909 84.8085 25.8215 83.2403 24.2205 81.519C23.3984 80.6351 22.6469 79.7014 21.9004 78.7526C21.1609 77.8129 20.5184 76.8073 19.674 75.9578C19.4874 75.7723 19.1858 75.9781 19.2513 76.2193Z" fill="#2A2B2D"/>
<path d="M49.6941 95.7283C49.6638 95.86 49.5004 95.9138 49.4358 96.0242C49.3652 96.1449 49.3652 96.3122 49.336 96.446C49.2785 96.7116 49.2563 96.9721 49.2331 97.2427C49.1816 97.8327 49.1786 98.4085 49.2411 98.9975C49.3632 100.149 49.6204 101.427 50.2207 102.431C50.6161 103.093 51.6693 102.616 51.4453 101.875C51.292 101.37 51.071 100.887 50.9177 100.38C50.7583 99.8551 50.611 99.331 50.5001 98.7937C50.3952 98.2879 50.3094 97.7719 50.2489 97.259C50.2186 97.0005 50.2005 96.7399 50.1722 96.4814C50.1591 96.3598 50.1773 96.2138 50.1369 96.0972C50.0956 95.9796 49.9372 95.8823 49.9352 95.7536C49.9321 95.6167 49.7254 95.5924 49.6941 95.7283Z" fill="#2A2B2D"/>
<path d="M60.4718 97.5145C60.3598 98.0091 60.2953 98.4805 60.269 98.9894C60.2448 99.475 60.2398 99.9676 60.2539 100.455C60.268 100.943 60.2872 101.431 60.3033 101.919C60.3205 102.413 60.26 103.153 60.7028 103.484C60.9943 103.702 61.3111 103.712 61.5925 103.462C62.0142 103.088 61.8982 102.383 61.871 101.881C61.8447 101.393 61.8205 100.905 61.7913 100.418C61.761 99.9058 61.7126 99.3878 61.6389 98.8799C61.6067 98.663 61.5946 98.438 61.5471 98.223C61.4927 97.9767 61.3978 97.7324 61.3212 97.4932C61.191 97.0857 60.5696 97.0775 60.4718 97.5145Z" fill="#2A2B2D"/>
<path d="M51.1014 101.434C50.7856 101.588 50.4255 101.643 50.0805 101.681C49.7829 101.714 49.5146 101.989 49.6266 102.311C49.9292 103.18 51.4424 103.528 52.2302 103.772C53.2733 104.095 54.4223 104.191 55.5097 104.173C56.5861 104.155 57.6665 103.989 58.6984 103.684C59.2149 103.531 59.7173 103.339 60.2076 103.117C60.7261 102.883 61.2869 102.658 61.6511 102.203C62.1222 101.614 61.638 100.844 60.9097 100.991C60.4315 101.088 60.033 101.376 59.5942 101.578C59.1776 101.771 58.7428 101.929 58.304 102.063C57.383 102.345 56.4317 102.503 55.4694 102.541C54.5231 102.579 53.6142 102.468 52.6852 102.305C52.2191 102.223 51.7652 102.1 51.3153 101.956C50.8805 101.816 50.4043 101.554 49.9514 101.701C50.14 101.936 50.3287 102.171 50.5183 102.406C50.7029 102.095 50.9117 101.775 51.1902 101.543C51.2567 101.489 51.168 101.402 51.1014 101.434Z" fill="#2A2B2D"/>
<path d="M22.8204 83.3407C23.3944 84.6433 24.2176 85.878 24.9358 87.1066C25.7207 88.4468 26.5983 89.7342 27.4527 91.0297C29.1182 93.5539 30.7887 96.075 32.4572 98.5971C35.8185 103.678 39.2614 108.707 42.7003 113.735C43.6495 115.122 44.5847 116.521 45.5491 117.897C46.0555 118.62 46.5669 119.343 47.0895 120.054C47.611 120.765 48.2849 121.271 48.8508 121.928C49.2402 122.38 49.8757 121.776 49.6215 121.299C49.2603 120.624 49.0707 119.887 48.6601 119.227C48.2606 118.586 47.8289 117.963 47.4133 117.333C46.58 116.069 45.7064 114.834 44.848 113.588C43.131 111.095 41.4161 108.601 39.6861 106.119C36.224 101.15 32.7357 96.1997 29.2191 91.2679C28.2416 89.8974 27.2782 88.5157 26.2604 87.1745C25.2486 85.8415 24.2146 84.3909 23.0272 83.214C22.9435 83.1298 22.767 83.2211 22.8204 83.3407Z" fill="#2A2B2D"/>
<path d="M16.1291 90.6293C16.7928 91.7707 17.4536 92.8675 18.2071 93.9522C18.9546 95.0278 19.7011 96.1064 20.4416 97.187C21.9033 99.3208 23.3741 101.448 24.7823 103.618C27.622 107.992 30.2761 112.489 32.7415 117.086C33.4174 118.346 34.0781 119.615 34.7328 120.888C35.4067 122.198 35.9615 123.649 36.9329 124.769C37.4605 125.376 38.2605 124.665 38.1324 124.027C37.8772 122.752 37.1377 121.584 36.5466 120.442C35.9433 119.275 35.324 118.117 34.6894 116.967C33.4204 114.666 32.104 112.393 30.7411 110.148C28.0336 105.689 25.1475 101.338 22.0727 97.1262C21.2224 95.9614 20.3417 94.8139 19.4257 93.6998C18.9627 93.1372 18.5188 92.5563 18.0336 92.0119C17.5262 91.4422 16.9442 90.9404 16.3954 90.4123C16.2521 90.2734 16.0302 90.459 16.1291 90.6293Z" fill="#2A2B2D"/>
<path d="M40.5846 109.789C40.8701 109.602 40.8368 109.721 41.1092 109.677C41.324 109.643 41.5651 109.496 41.7548 109.393C42.2228 109.14 42.6828 108.854 43.1348 108.572C44.0396 108.006 44.9274 107.391 45.7989 106.776C47.5471 105.541 49.3316 104.324 51.0203 103.008C51.3663 102.738 51.5318 102.288 51.2836 101.885C51.0607 101.522 50.5311 101.371 50.1669 101.619C48.3975 102.826 46.6917 104.155 44.9818 105.446C44.1314 106.087 43.2871 106.747 42.467 107.427C42.0584 107.764 41.6609 108.118 41.2685 108.474C41.0809 108.644 40.8509 108.825 40.7268 109.053C40.629 109.232 40.6149 109.409 40.4393 109.552C40.3062 109.661 40.4303 109.888 40.5846 109.789Z" fill="#2A2B2D"/>
<path d="M61.6865 103.429C61.7773 103.59 61.7954 103.865 61.86 104.044C61.9498 104.294 62.0577 104.508 62.209 104.728C62.5036 105.156 62.8687 105.543 63.2067 105.935C63.8664 106.7 64.5685 107.432 65.2777 108.149C65.9858 108.867 66.7101 109.573 67.4516 110.256C67.8319 110.607 68.2183 110.95 68.6066 111.292C69.0041 111.641 69.3975 112.037 69.8827 112.259C70.5294 112.555 71.407 111.852 70.9177 111.166C70.3377 110.352 69.3995 109.755 68.652 109.101C67.8914 108.436 67.1399 107.765 66.4045 107.073C65.6883 106.399 64.9922 105.705 64.2881 105.019C63.9199 104.66 63.5698 104.271 63.1784 103.937C63.0059 103.79 62.8254 103.654 62.6307 103.543C62.5278 103.484 62.4168 103.414 62.3059 103.37C62.1838 103.32 62.0295 103.319 61.9235 103.238C61.7894 103.133 61.5957 103.268 61.6865 103.429Z" fill="#2A2B2D"/>
<path d="M10.5089 47.0882C10.9931 46.2701 11.3946 45.4652 11.7335 44.5721C12.0765 43.6659 12.4245 42.7627 12.7867 41.8635C13.515 40.053 14.317 38.277 15.12 36.4989C16.6926 33.0168 18.46 29.6199 20.4786 26.377C24.2786 20.2704 29.042 14.703 34.7991 10.3775C40.6378 5.99116 47.3946 3.06965 54.6396 2.10865C62.5221 1.06351 70.5267 2.06608 78.1348 4.25469C85.8529 6.47473 93.1887 9.83518 100.377 13.3852C101.297 13.8394 102.205 14.2783 103.156 14.6615C104.035 15.0163 104.735 13.8525 103.884 13.3376C102.109 12.2651 100.207 11.4085 98.3365 10.5164C96.4985 9.63955 94.6504 8.77888 92.7832 7.96588C89.0306 6.33076 85.2124 4.83453 81.3084 3.60287C73.5651 1.16083 65.3628 -0.242155 57.2341 0.378238C49.6885 0.954029 42.4879 3.40416 36.1891 7.62425C30.1981 11.6386 25.1966 16.9525 21.1423 22.907C16.6886 29.4475 13.4394 36.6591 10.8297 44.115C10.4998 45.0577 10.295 45.966 10.1679 46.9544C10.1417 47.1541 10.3949 47.2808 10.5089 47.0882Z" fill="#2A2B2D"/>
<path d="M99.3418 18.1608C99.9501 17.8415 100.361 17.36 100.866 16.9008C101.388 16.4263 101.941 15.9763 102.531 15.588C103.735 14.7933 105.094 14.2418 106.499 13.9286C109.34 13.296 112.358 13.7583 114.854 15.2646C120.437 18.6363 122.425 25.7809 120.67 31.8531C120.152 33.6463 119.339 35.3423 118.321 36.9024C117.793 37.7103 117.202 38.4676 116.567 39.1924C115.929 39.9192 115.175 40.4828 115.1 41.5026C115.079 41.7956 115.375 42.0115 115.637 42.0166C116.622 42.0358 117.243 41.2492 117.857 40.567C118.493 39.8584 119.072 39.095 119.61 38.3084C120.658 36.7736 121.49 35.103 122.099 33.3453C123.287 29.9138 123.46 26.1428 122.365 22.6647C121.322 19.3479 119.242 16.3584 116.382 14.3796C113.666 12.5012 110.343 11.817 107.102 12.3482C105.359 12.634 103.672 13.2585 102.202 14.2469C100.963 15.0781 99.246 16.4567 99.1936 18.0807C99.1885 18.1598 99.2803 18.1933 99.3418 18.1608Z" fill="#2A2B2D"/>
<path d="M105.781 23.3794C106.976 22.02 108.936 22.4519 110.252 23.346C111.484 24.1843 112.532 25.3815 113.29 26.6608C114.805 29.2144 115.275 32.3255 114.465 35.1922C114.76 34.955 115.054 34.7189 115.348 34.4816C115.236 34.4827 115.103 34.431 114.979 34.4381C114.922 34.4472 114.865 34.4553 114.808 34.4654C114.627 34.4908 114.665 34.4918 114.921 34.4685C115.048 34.5891 115.174 34.7107 115.3 34.8314C115.286 34.7837 115.27 34.7351 115.256 34.6874C115.147 34.3276 114.543 34.1958 114.383 34.5942C114.268 34.878 114.097 35.0483 114.13 35.3899C114.173 35.8431 114.422 36.1259 114.837 36.278C115.024 36.3469 115.194 36.36 115.394 36.358C115.813 36.3529 116.165 36.0417 116.276 35.6474C117.295 32.0305 116.542 27.9807 114.342 24.9446C113.222 23.3977 111.711 22.0099 109.897 21.35C108.213 20.7377 105.828 21.1432 105.494 23.2213C105.469 23.3774 105.661 23.5173 105.781 23.3794Z" fill="#2A2B2D"/>
<path d="M19.4188 26.6486C19.4682 25.5082 19.0334 24.3536 18.8983 23.2203C18.7631 22.0819 18.747 20.9232 18.8579 19.7817C19.0809 17.5049 19.8062 15.2413 20.9461 13.2625C23.2945 9.1874 27.5676 6.56187 32.206 6.06515C33.4942 5.92729 34.8116 5.92931 36.0948 6.12192C36.7111 6.21417 37.3225 6.34392 37.9227 6.51017C38.5854 6.69466 39.2139 7.03124 39.91 6.94204C40.3246 6.88932 40.7593 6.3926 40.4305 5.97596C39.6517 4.98861 38.0488 4.7686 36.8625 4.56992C35.6207 4.36312 34.3557 4.2861 33.0987 4.35909C30.5254 4.50912 27.9903 5.23595 25.7327 6.48687C21.2245 8.98568 18.2113 13.6782 17.6181 18.7974C17.4537 20.2166 17.4446 21.649 17.6403 23.0652C17.8159 24.3374 18.0448 25.8894 18.9709 26.8463C19.1434 27.0227 19.4097 26.8656 19.4188 26.6486Z" fill="#2A2B2D"/>
<path d="M51.8515 78.6502C51.1847 77.1894 49.1046 77.7875 48.4075 78.8945C47.5168 80.3106 48.2269 81.8799 49.501 82.7385C51.9564 84.3929 55.4356 84.5064 58.2229 83.8252C61.1745 83.1034 64.2866 81.1449 65.5415 78.2579C66.1508 76.8569 66.2295 75.2806 65.5072 73.907C64.7516 72.4686 63.2122 71.7133 61.6214 71.9881C59.6412 72.3307 58.1028 73.8979 56.4414 74.9136C55.5698 75.4468 54.6639 75.9273 53.7278 76.3338C52.7866 76.7424 51.8 77.0191 50.8538 77.4084C49.8753 77.8109 50.299 79.1469 51.3229 78.9705C52.7382 78.7262 54.1393 78.0663 55.4235 77.4398C56.6714 76.8306 57.8506 76.1047 58.9784 75.2938C59.9973 74.5619 61.3046 73.4316 62.6564 73.6597C63.6692 73.83 64.2967 74.8842 64.4056 75.8422C64.685 78.3136 62.1217 80.4536 60.195 81.4967C58.1008 82.63 55.596 83.0507 53.2506 82.6341C52.0744 82.4243 50.4271 82.0512 49.6544 81.0446C49.2599 80.5306 49.2841 79.7805 49.7673 79.3273C50.2828 78.8438 51.0465 78.9006 51.7001 78.933C51.8535 78.9422 51.9039 78.7657 51.8515 78.6502Z" fill="#2A2B2D"/>
<path d="M33.5148 41.5503C31.5587 40.714 29.0903 42.4941 27.8656 43.9234C26.2466 45.813 25.5303 48.3463 25.7028 50.8167C26.0206 55.3754 29.3112 59.3491 33.6378 60.6761C37.9987 62.0132 42.9508 60.1358 45.5605 56.4337C48.1439 52.7691 47.9523 47.4441 45.2407 43.8961C43.6781 41.8514 41.368 40.491 38.837 40.0693C37.5831 39.8605 36.3272 39.8635 35.0763 40.0845C34.4832 40.1899 33.9001 40.344 33.3382 40.562C32.6099 40.8438 32.1408 41.1225 31.7474 41.8088C31.4962 42.2478 31.8493 42.78 32.3325 42.7779C33.3211 42.7739 34.1473 42.2721 35.1046 42.0511C35.9872 41.8473 36.9153 41.8048 37.8161 41.8869C39.5986 42.0491 41.367 42.7759 42.6996 43.9822C45.4213 46.4466 46.2959 50.7691 44.7494 54.1143C43.1828 57.5052 39.4665 59.6208 35.7744 59.3684C32.0399 59.1129 28.6464 56.2583 27.5267 52.7093C26.7913 50.3788 26.989 47.732 28.2802 45.6326C28.8663 44.6787 29.6774 43.9001 30.6145 43.3C31.5446 42.704 32.6149 42.4313 33.5208 41.8311C33.6146 41.7693 33.6328 41.6 33.5148 41.5503Z" fill="#2A2B2D"/>
<path d="M29.6867 38.3206C29.724 38.4392 29.7018 38.5943 29.722 38.7271C29.7432 38.8639 29.7906 38.9927 29.843 39.1214C29.9762 39.4478 30.183 39.7418 30.412 40.0074C30.8236 40.4859 31.2997 40.8812 31.8122 41.2451C32.2984 41.5908 32.8199 41.8493 33.3737 42.0683C33.6713 42.1859 33.9558 42.2953 34.2746 42.3359C34.3896 42.3511 34.5631 42.3876 34.666 42.3805C34.7255 42.3764 35.0776 42.3308 35.0907 42.2538C35.0846 42.2882 34.8576 42.3065 35.0624 42.2842C35.1714 42.272 35.2733 42.2457 35.3772 42.2142C35.7655 42.0946 35.9673 41.5087 35.6102 41.2279C35.5517 41.1813 35.4932 41.1346 35.4326 41.091C35.4185 41.0809 35.2349 40.9947 35.3176 41.0262C35.3338 41.0444 35.3499 41.0626 35.3661 41.0809C35.3106 40.9826 35.2359 40.9055 35.1421 40.8478C35.0604 40.7879 34.9979 40.7596 34.9071 40.719C34.6226 40.5923 34.3371 40.4757 34.0405 40.3774C33.8983 40.3307 34.2322 40.4595 33.9921 40.3592C33.9417 40.3379 33.8902 40.3166 33.8398 40.2943C33.7137 40.2395 33.5896 40.1807 33.4666 40.1199C33.2204 39.9972 32.9743 39.8725 32.7362 39.7357C32.5092 39.6059 32.2903 39.465 32.0765 39.317C32.02 39.2775 31.9635 39.241 31.906 39.2035C31.8909 39.1934 31.7295 39.0829 31.788 39.1255C31.8394 39.163 31.6709 39.0342 31.674 39.0362C31.6306 39.0018 31.5882 38.9663 31.5448 38.9318C31.4107 38.8244 31.2856 38.7372 31.214 38.6815C31.0818 38.5781 30.9537 38.4706 30.8115 38.3824C30.7136 38.3216 30.6137 38.2618 30.5109 38.2101C30.408 38.1584 30.2012 38.133 30.1084 38.0621C29.9187 37.9141 29.603 38.055 29.6867 38.3206Z" fill="#2A2B2D"/>
<path d="M37.5783 32.4613C37.7568 32.5303 37.898 32.6235 38.0947 32.662C38.2743 32.6975 38.4589 32.73 38.6395 32.7553C38.9865 32.804 39.3456 32.8019 39.6957 32.807C40.4361 32.8182 41.1755 32.808 41.916 32.8303C42.6292 32.8516 43.3404 32.882 44.0525 32.9114C44.7779 32.9408 45.5193 32.8354 46.1185 32.3904C46.3233 32.2383 46.3646 31.9707 46.1821 31.7791C45.6272 31.1972 44.8596 31.0097 44.0879 30.9529C43.3525 30.8992 42.607 30.8891 41.8696 30.8911C41.1311 30.8941 40.3877 30.8941 39.6503 30.9448C39.2488 30.9722 38.8342 31.0046 38.4438 31.104C38.0655 31.2003 37.7719 31.3463 37.433 31.5287C37.0022 31.7588 37.208 32.3184 37.5783 32.4613Z" fill="#2A2B2D"/>
<path d="M69.9065 49.3417C69.962 49.2799 69.964 49.2829 69.9126 49.3488C69.8884 49.3762 69.8682 49.4076 69.8541 49.4421C69.7966 49.5546 69.7784 49.6833 69.7774 49.808C69.7754 49.9915 69.8299 50.1659 69.8732 50.3423C69.963 50.7062 70.1153 51.0336 70.3181 51.3499C70.6974 51.9409 71.226 52.4538 71.7677 52.8948C72.3175 53.3429 72.9106 53.7443 73.5462 54.0585C73.877 54.2227 74.22 54.3627 74.566 54.4904C74.7254 54.5492 74.8868 54.611 75.0533 54.6485C75.3499 54.7144 75.5829 54.6911 75.8784 54.6404C76.519 54.5309 76.7319 53.5223 76.2355 53.132C76.0156 52.9597 75.832 52.8492 75.5688 52.7509C75.4215 52.6961 75.2712 52.6535 75.1229 52.6018C75.0553 52.5785 74.9897 52.5522 74.9221 52.5298C74.7738 52.4792 75.1299 52.6201 74.8808 52.5126C74.7496 52.4569 74.6195 52.3991 74.4914 52.3372C74.2089 52.2014 73.9345 52.0493 73.6682 51.8831C73.5472 51.8071 73.4302 51.727 73.3121 51.6469C73.0801 51.4888 73.4584 51.7635 73.2355 51.5922C73.179 51.5486 73.1225 51.505 73.067 51.4604C72.5969 51.0833 72.1964 50.6454 71.7788 50.2115C71.6709 50.1 71.5639 49.9885 71.457 49.876C71.3309 49.7442 71.1776 49.655 71.0434 49.5333C71.115 49.5982 71.0081 49.4877 70.9849 49.4664C70.9496 49.435 70.7519 49.2961 70.8185 49.3437C70.7065 49.2637 70.6248 49.1978 70.4896 49.1623C70.4442 49.1501 70.2283 49.0903 70.3363 49.1521C70.186 49.069 69.9297 49.1491 69.9065 49.3417Z" fill="#2A2B2D"/>
<path d="M72.0755 57.0175C70.3636 55.9541 67.8982 56.7671 66.2186 57.5487C64.2737 58.4539 62.6395 59.8488 61.3805 61.5843C60.9619 62.1601 61.7064 63.0562 62.349 62.7896C65.1372 61.6339 68.2361 61.8884 71.0567 62.7886C72.4841 63.2447 73.8409 63.8935 75.1452 64.6285C75.8049 64.9995 76.4506 65.3948 77.0871 65.8054C77.7347 66.223 78.3359 66.7309 79.1349 66.3792C79.3629 66.2788 79.496 66.1176 79.5071 65.8622C79.5445 64.9437 78.8202 64.5595 78.1402 64.1216C77.4402 63.6705 76.729 63.2376 76.0017 62.8332C74.546 62.0242 73.0157 61.3309 71.4249 60.8382C68.3108 59.8721 64.88 59.8752 61.8688 61.1879C62.1916 61.5894 62.5144 61.9908 62.8382 62.3932C63.9015 60.8727 65.3773 59.6836 67.0377 58.8797C67.8397 58.4924 68.6941 58.2015 69.5566 57.9886C70.4332 57.7717 71.2705 57.6267 72.0806 57.2091C72.1582 57.1685 72.1411 57.058 72.0755 57.0175Z" fill="#2A2B2D"/>
<path d="M48.4519 63.2185C48.4902 63.2033 48.5286 63.1881 48.5669 63.1729C48.4892 63.1648 48.4105 63.1566 48.3329 63.1475C48.6738 63.3594 49.0329 63.1293 49.3416 62.9691C49.7028 62.7815 50.0528 62.6123 50.4422 62.4886C51.2099 62.2453 52.0118 62.0963 52.8199 62.1814C53.5311 62.2564 54.2271 62.5149 54.8455 62.8687C55.1703 63.0553 55.4629 63.2691 55.7362 63.5246C56.1175 63.8794 56.3596 64.2565 56.8731 64.4339C57.4037 64.6164 58.011 64.0923 57.9686 63.551C57.8899 62.5231 56.6582 61.6786 55.8351 61.2052C54.9211 60.6791 53.8942 60.4044 52.8441 60.3669C51.8212 60.3294 50.7731 60.5575 49.8662 61.0369C49.2851 61.3441 47.7952 62.2159 48.2219 63.0421C48.2189 62.9397 48.2169 62.8373 48.2148 62.7349C48.1977 62.7765 48.1805 62.818 48.1634 62.8596C48.0898 63.037 48.229 63.3067 48.4519 63.2185Z" fill="#2A2B2D"/>
<path d="M38.9526 41.0789C34.4777 41.0789 30.8734 41.903 29.5156 43.2675C28.1578 44.6319 25.6994 48.3472 26.459 51.1684C27.2186 53.9885 30.8007 58.7976 32.6105 59.4048C34.4202 60.012 37.9822 60.305 39.231 59.8549C40.4809 59.4048 45.2645 56.7489 45.9152 54.9556C46.5668 53.1613 46.9885 49.8617 46.0362 47.6315C45.0839 45.4023 44.7399 44.3734 43.5133 43.4063C42.2866 42.4372 38.9526 41.0789 38.9526 41.0789Z" fill="#2A2B2D"/>
<path d="M35.5127 43.8635C32.9131 44.0126 28.3868 47.7694 29.7113 49.9935C31.0358 52.2186 42.7688 52.5957 42.5126 49.9935C42.2574 47.3923 40.1591 43.5969 35.5127 43.8635Z" fill="white"/>
<path d="M30.8075 53.2738C28.7526 55.3388 32.6808 58.0515 34.5994 57.1087C36.5181 56.166 32.0462 52.029 30.8075 53.2738Z" fill="white"/>
</svg>
