<svg width="40" height="40" viewBox="0 0 40 40" fill="none" xmlns="http://www.w3.org/2000/svg">
<path d="M5.9375 11.64C6.18614 11.64 6.4246 11.5412 6.60041 11.3654C6.77623 11.1896 6.875 10.9511 6.875 10.7025V6.875H10.7025C10.9511 6.875 11.1896 6.77623 11.3654 6.60041C11.5412 6.4246 11.64 6.18614 11.64 5.9375C11.64 5.68886 11.5412 5.4504 11.3654 5.27459C11.1896 5.09877 10.9511 5 10.7025 5H5.9375C5.68886 5 5.4504 5.09877 5.27459 5.27459C5.09877 5.4504 5 5.68886 5 5.9375V10.7025C5 10.9511 5.09877 11.1896 5.27459 11.3654C5.4504 11.5412 5.68886 11.64 5.9375 11.64ZM34.0625 5H29.2975C29.0489 5 28.8104 5.09877 28.6346 5.27459C28.4588 5.4504 28.36 5.68886 28.36 5.9375C28.36 6.18614 28.4588 6.4246 28.6346 6.60041C28.8104 6.77623 29.0489 6.875 29.2975 6.875H33.125V10.7025C33.125 10.9511 33.2238 11.1896 33.3996 11.3654C33.5754 11.5412 33.8139 11.64 34.0625 11.64C34.3111 11.64 34.5496 11.5412 34.7254 11.3654C34.9012 11.1896 35 10.9511 35 10.7025V5.9375C35 5.68886 34.9012 5.4504 34.7254 5.27459C34.5496 5.09877 34.3111 5 34.0625 5ZM10.7025 33.125H6.875V29.2975C6.875 29.0489 6.77623 28.8104 6.60041 28.6346C6.4246 28.4588 6.18614 28.36 5.9375 28.36C5.68886 28.36 5.4504 28.4588 5.27459 28.6346C5.09877 28.8104 5 29.0489 5 29.2975V34.0625C5 34.3111 5.09877 34.5496 5.27459 34.7254C5.4504 34.9012 5.68886 35 5.9375 35H10.7025C10.9511 35 11.1896 34.9012 11.3654 34.7254C11.5412 34.5496 11.64 34.3111 11.64 34.0625C11.64 33.8139 11.5412 33.5754 11.3654 33.3996C11.1896 33.2238 10.9511 33.125 10.7025 33.125ZM34.0625 28.36C33.8139 28.36 33.5754 28.4588 33.3996 28.6346C33.2238 28.8104 33.125 29.0489 33.125 29.2975V33.125H29.2975C29.0489 33.125 28.8104 33.2238 28.6346 33.3996C28.4588 33.5754 28.36 33.8139 28.36 34.0625C28.36 34.3111 28.4588 34.5496 28.6346 34.7254C28.8104 34.9012 29.0489 35 29.2975 35H34.0625C34.3111 35 34.5496 34.9012 34.7254 34.7254C34.9012 34.5496 35 34.3111 35 34.0625V29.2975C35 29.0489 34.9012 28.8104 34.7254 28.6346C34.5496 28.4588 34.3111 28.36 34.0625 28.36ZM17.5775 9.84375H10.7025C10.4539 9.84375 10.2154 9.94252 10.0396 10.1183C9.86377 10.2942 9.765 10.5326 9.765 10.7812V17.6562C9.765 17.9049 9.86377 18.1433 10.0396 18.3192C10.2154 18.495 10.4539 18.5938 10.7025 18.5938H17.5775C17.8261 18.5938 18.0646 18.495 18.2404 18.3192C18.4162 18.1433 18.515 17.9049 18.515 17.6562V10.7812C18.515 10.5326 18.4162 10.2942 18.2404 10.1183C18.0646 9.94252 17.8261 9.84375 17.5775 9.84375ZM16.64 16.7188H11.64V11.7188H16.64V16.7188ZM17.5775 21.4853H10.7025C10.4539 21.4853 10.2154 21.5841 10.0396 21.7599C9.86377 21.9357 9.765 22.1742 9.765 22.4228V29.2978C9.765 29.5465 9.86377 29.7849 10.0396 29.9607C10.2154 30.1365 10.4539 30.2353 10.7025 30.2353H17.5775C17.8261 30.2353 18.0646 30.1365 18.2404 29.9607C18.4162 29.7849 18.515 29.5465 18.515 29.2978V22.4228C18.515 22.2997 18.4908 22.1777 18.4437 22.064C18.3966 21.9502 18.3276 21.8468 18.2405 21.7597C18.1535 21.6726 18.0501 21.6035 17.9363 21.5564C17.8226 21.5093 17.7006 21.4853 17.5775 21.4853ZM16.64 28.3603H11.64V23.3603H16.64V28.3603ZM22.4225 18.5938H29.2975C29.5461 18.5938 29.7846 18.495 29.9604 18.3192C30.1362 18.1433 30.235 17.9049 30.235 17.6562V10.7812C30.235 10.5326 30.1362 10.2942 29.9604 10.1183C29.7846 9.94252 29.5461 9.84375 29.2975 9.84375H22.4225C22.1739 9.84375 21.9354 9.94252 21.7596 10.1183C21.5838 10.2942 21.485 10.5326 21.485 10.7812V17.6562C21.485 17.9049 21.5838 18.1433 21.7596 18.3192C21.9354 18.495 22.1739 18.5938 22.4225 18.5938ZM23.36 11.7188H28.36V16.7188H23.36V11.7188ZM22.4225 25.2329C22.6711 25.2329 22.9096 25.1341 23.0854 24.9583C23.2612 24.7825 23.36 24.544 23.36 24.2954V23.36H25.0012C25.2499 23.36 25.4883 23.2612 25.6642 23.0854C25.84 22.9096 25.9387 22.6711 25.9387 22.4225C25.9387 22.1739 25.84 21.9354 25.6642 21.7596C25.4883 21.5838 25.2499 21.485 25.0012 21.485H22.4225C22.1739 21.485 21.9354 21.5838 21.7596 21.7596C21.5838 21.9354 21.485 22.1739 21.485 22.4225V24.2951C21.485 24.5437 21.5838 24.7822 21.7596 24.958C21.9354 25.1338 22.1739 25.2329 22.4225 25.2329ZM28.36 29.2978C28.36 29.5465 28.4588 29.7849 28.6346 29.9607C28.8104 30.1365 29.0489 30.2353 29.2975 30.2353C29.5461 30.2353 29.7846 30.1365 29.9604 29.9607C30.1362 29.7849 30.235 29.5465 30.235 29.2978V25.8603C30.235 25.6117 30.1362 25.3732 29.9604 25.1974C29.7846 25.0216 29.5461 24.9228 29.2975 24.9228H25.86C25.6114 24.9228 25.3729 25.0216 25.1971 25.1974C25.0213 25.3732 24.9225 25.6117 24.9225 25.8603C24.9225 26.109 25.0213 26.3474 25.1971 26.5232C25.3729 26.699 25.6114 26.7978 25.86 26.7978H28.36V29.2978ZM24.3762 28.3603H22.4225C22.1739 28.3603 21.9354 28.4591 21.7596 28.6349C21.5838 28.8107 21.485 29.0492 21.485 29.2978C21.485 29.5465 21.5838 29.7849 21.7596 29.9607C21.9354 30.1365 22.1739 30.2353 22.4225 30.2353H24.3762C24.6249 30.2353 24.8634 30.1365 25.0393 29.9607C25.2151 29.7848 25.3139 29.5463 25.3139 29.2977C25.3139 29.049 25.2151 28.8105 25.0393 28.6346C24.8634 28.4588 24.6249 28.3603 24.3762 28.3603ZM29.2975 19.8648C29.0489 19.8648 28.8104 19.9636 28.6346 20.1394C28.4588 20.3152 28.36 20.5537 28.36 20.8023V22.4225C28.36 22.6711 28.4588 22.9096 28.6346 23.0854C28.8104 23.2612 29.0489 23.36 29.2975 23.36C29.5461 23.36 29.7846 23.2612 29.9604 23.0854C30.1362 22.9096 30.235 22.6711 30.235 22.4225V20.802C30.235 20.5534 30.1362 20.3149 29.9604 20.1391C29.7846 19.9633 29.5461 19.8648 29.2975 19.8648ZM21.4125 26.3438C21.3256 26.1483 21.1747 25.9884 20.9847 25.8902C20.7947 25.7921 20.5769 25.7616 20.3673 25.8038C20.1576 25.8461 19.9686 25.9584 19.8314 26.1225C19.6942 26.2865 19.617 26.4924 19.6125 26.7062C19.6095 26.8472 19.6383 26.9869 19.6966 27.1153C19.7549 27.2436 19.8414 27.3572 19.9495 27.4476C20.0576 27.538 20.1846 27.603 20.3213 27.6377C20.4579 27.6724 20.6005 27.676 20.7387 27.6482C20.8769 27.6203 21.007 27.5618 21.1195 27.4769C21.2321 27.392 21.3241 27.283 21.3888 27.1577C21.4534 27.0325 21.4892 26.8943 21.4933 26.7534C21.4974 26.6126 21.4698 26.4725 21.4125 26.3438ZM21.4125 20.4437C21.3582 20.3182 21.2769 20.2062 21.1746 20.1155C21.0722 20.0248 20.9512 19.9577 20.82 19.9189C20.6889 19.8801 20.5508 19.8706 20.4156 19.891C20.2803 19.9114 20.1512 19.9612 20.0374 20.037C19.9235 20.1128 19.8277 20.2126 19.7566 20.3294C19.6855 20.4463 19.641 20.5773 19.6261 20.7133C19.6112 20.8492 19.6263 20.9868 19.6704 21.1162C19.7145 21.2457 19.7865 21.3639 19.8812 21.4625C20.033 21.6204 20.2355 21.72 20.4532 21.7439C20.671 21.7677 20.8902 21.7143 21.0726 21.593C21.2549 21.4716 21.3889 21.2901 21.451 21.08C21.5132 20.87 21.4995 20.6448 21.4125 20.4437Z" fill="#666666"/>
</svg>
