<svg width="40" height="40" viewBox="0 0 40 40" fill="none" xmlns="http://www.w3.org/2000/svg">
<path d="M35.7498 25.9998H19.25C18.0095 25.9998 17 24.9903 17 23.7498V13.2499C17 12.0094 18.0095 10.9999 19.25 10.9999H35.7498C36.9903 10.9999 37.9998 12.0094 37.9998 13.2499V23.7498C37.9998 24.9903 36.9903 25.9998 35.7498 25.9998ZM19.25 12.4999C18.836 12.4999 18.5 12.8359 18.5 13.2499V23.7498C18.5 24.1638 18.836 24.4998 19.25 24.4998H35.7498C36.1638 24.4998 36.4998 24.1638 36.4998 23.7498V13.2499C36.4998 12.8359 36.1638 12.4999 35.7498 12.4999H19.25Z" fill="#666666"/>
<path d="M37.2498 16.9999H17.75C17.336 16.9999 17 16.6639 17 16.2499C17 15.8359 17.336 15.4999 17.75 15.4999H37.2498C37.6638 15.4999 37.9998 15.8359 37.9998 16.2499C37.9998 16.6639 37.6638 16.9999 37.2498 16.9999Z" fill="#666666"/>
<path d="M22.2498 37.9997H5.74997C3.68299 37.9997 2 36.3167 2 34.2497V5.74997C2 3.68299 3.68299 2 5.74997 2H22.2498C24.3168 2 25.9998 3.68299 25.9998 5.74997V8.74994C25.9998 9.16394 25.6638 9.49994 25.2498 9.49994C24.8358 9.49994 24.4998 9.16394 24.4998 8.74994V5.74997C24.4998 4.50948 23.4903 3.49999 22.2498 3.49999H5.74997C4.50948 3.49999 3.49999 4.50948 3.49999 5.74997V34.2497C3.49999 35.4902 4.50948 36.4997 5.74997 36.4997H22.2498C23.4903 36.4997 24.4998 35.4902 24.4998 34.2497V28.2498C24.4998 27.8358 24.8358 27.4998 25.2498 27.4998C25.6638 27.4998 25.9998 27.8358 25.9998 28.2498V34.2497C25.9998 36.3167 24.3168 37.9997 22.2498 37.9997Z" fill="#666666"/>
<path d="M16.9999 6.49996H11C9.75947 6.49996 8.74998 5.49047 8.74998 4.24998C8.74998 3.83598 8.41398 3.49999 7.99998 3.49999H6.49999C6.086 3.49999 5.75 3.16399 5.75 2.74999C5.75 2.336 6.086 2 6.49999 2H7.99998C9.24047 2 10.25 3.00949 10.25 4.24998C10.25 4.66398 10.586 4.99998 11 4.99998H16.9999C17.4139 4.99998 17.7499 4.66398 17.7499 4.24998C17.7499 3.00949 18.7594 2 19.9999 2H21.4999C21.9139 2 22.2499 2.336 22.2499 2.74999C22.2499 3.16399 21.9139 3.49999 21.4999 3.49999H19.9999C19.5859 3.49999 19.2499 3.83598 19.2499 4.24998C19.2499 5.49047 18.2404 6.49996 16.9999 6.49996Z" fill="#666666"/>
</svg>
