<svg width="30" height="30" viewBox="0 0 30 30" fill="none" xmlns="http://www.w3.org/2000/svg">
<rect width="30" height="30" rx="4" fill="#231F20"/>
<path d="M15 11.9434C13.3134 11.9434 11.9434 13.3134 11.9434 15C11.9434 16.6867 13.3134 18.06 15 18.06C16.6867 18.06 18.06 16.6867 18.06 15C18.06 13.3134 16.6867 11.9434 15 11.9434Z" fill="white"/>
<path d="M19.6132 6.66675H10.3865C8.3365 6.66675 6.6665 8.33675 6.6665 10.3867V19.6134C6.6665 21.6667 8.3365 23.3334 10.3865 23.3334H19.6132C21.6665 23.3334 23.3332 21.6667 23.3332 19.6134V10.3867C23.3332 8.33675 21.6665 6.66675 19.6132 6.66675ZM14.9998 20.4001C12.0232 20.4001 9.59984 17.9767 9.59984 15.0001C9.59984 12.0234 12.0232 9.60342 14.9998 9.60342C17.9765 9.60342 20.3998 12.0234 20.3998 15.0001C20.3998 17.9767 17.9765 20.4001 14.9998 20.4001ZM20.5132 10.5834C19.8832 10.5834 19.3698 10.0734 19.3698 9.44341C19.3698 8.81342 19.8832 8.30008 20.5132 8.30008C21.1432 8.30008 21.6565 8.81342 21.6565 9.44341C21.6565 10.0734 21.1432 10.5834 20.5132 10.5834Z" fill="white"/>
</svg>
