<svg width="30" height="30" viewBox="0 0 30 30" fill="none" xmlns="http://www.w3.org/2000/svg">
<rect width="30" height="30" rx="4" fill="#231F20"/>
<path d="M24.894 19.5997C24.8698 19.5475 24.8472 19.5042 24.8262 19.4696C24.4792 18.8446 23.8161 18.0775 22.8373 17.1681L22.8166 17.1472L22.8063 17.137L22.7958 17.1266H22.7853C22.341 16.7031 22.0597 16.4183 21.9419 16.2726C21.7264 15.9949 21.6781 15.7138 21.7959 15.429C21.8791 15.2138 22.1918 14.7593 22.7331 14.065C23.0178 13.697 23.2433 13.4021 23.4099 13.1799C24.6109 11.5831 25.1317 10.5628 24.9719 10.1184L24.9099 10.0146C24.8682 9.95209 24.7606 9.8949 24.5872 9.84275C24.4135 9.7907 24.1914 9.78209 23.9206 9.81678L20.9217 9.8375C20.8731 9.82028 20.8037 9.82189 20.7133 9.84275C20.6231 9.86361 20.5779 9.87408 20.5779 9.87408L20.5257 9.90016L20.4843 9.93149C20.4496 9.9522 20.4114 9.98864 20.3697 10.0407C20.3282 10.0926 20.2936 10.1535 20.2658 10.2229C19.9393 11.0629 19.5681 11.8439 19.1515 12.5659C18.8946 12.9963 18.6587 13.3694 18.4433 13.6853C18.2281 14.0011 18.0476 14.2337 17.9019 14.3829C17.756 14.5322 17.6244 14.6518 17.5061 14.7421C17.3881 14.8325 17.298 14.8707 17.2355 14.8567C17.173 14.8427 17.1141 14.8289 17.0583 14.815C16.9612 14.7525 16.8831 14.6675 16.8242 14.5599C16.765 14.4523 16.7252 14.3169 16.7044 14.1537C16.6836 13.9905 16.6714 13.8501 16.6679 13.732C16.6646 13.6141 16.6661 13.4473 16.6732 13.2321C16.6804 13.0168 16.6836 12.8711 16.6836 12.7948C16.6836 12.5309 16.6888 12.2446 16.6991 11.9357C16.7096 11.6267 16.7181 11.382 16.7252 11.2016C16.7323 11.0211 16.7356 10.8302 16.7356 10.6288C16.7356 10.4275 16.7233 10.2696 16.6991 10.155C16.6752 10.0406 16.6385 9.92948 16.5901 9.82178C16.5414 9.71418 16.4701 9.63095 16.3766 9.57187C16.2829 9.51285 16.1664 9.46602 16.0278 9.43123C15.6598 9.34796 15.1912 9.30292 14.6219 9.29592C13.3307 9.28206 12.501 9.36543 12.1331 9.54593C11.9873 9.6222 11.8554 9.7264 11.7375 9.85821C11.6125 10.011 11.595 10.0944 11.6853 10.1081C12.1019 10.1705 12.3968 10.3198 12.5703 10.5558L12.6329 10.6808C12.6816 10.7711 12.7301 10.9308 12.7788 11.1599C12.8273 11.3889 12.8586 11.6423 12.8724 11.9199C12.9071 12.4267 12.9071 12.8606 12.8724 13.2215C12.8377 13.5826 12.8048 13.8637 12.7735 14.065C12.7422 14.2664 12.6953 14.4295 12.6329 14.5544C12.5703 14.6794 12.5287 14.7557 12.5079 14.7835C12.487 14.8112 12.4697 14.8287 12.4559 14.8355C12.3657 14.8701 12.2718 14.8877 12.1747 14.8877C12.0774 14.8877 11.9595 14.839 11.8207 14.7418C11.6819 14.6446 11.5378 14.511 11.3886 14.3409C11.2393 14.1708 11.0709 13.933 10.8834 13.6276C10.6961 13.3222 10.5017 12.9612 10.3003 12.5447L10.1338 12.2426C10.0296 12.0483 9.88739 11.7653 9.70689 11.394C9.52628 11.0225 9.36664 10.6632 9.22786 10.3161C9.17238 10.1703 9.08904 10.0593 8.97799 9.98295L8.92587 9.95162C8.89122 9.9239 8.8356 9.89447 8.7593 9.8631C8.68289 9.83177 8.60316 9.8093 8.51978 9.79548L5.66657 9.8162C5.37501 9.8162 5.17718 9.88225 5.07302 10.0142L5.03133 10.0766C5.0105 10.1113 5 10.1668 5 10.2433C5 10.3196 5.02083 10.4134 5.06251 10.5243C5.47903 11.5033 5.93198 12.4474 6.42137 13.3568C6.91076 14.2662 7.33603 14.9987 7.69692 15.5538C8.05789 16.1092 8.42583 16.6334 8.80073 17.1262C9.17563 17.6191 9.42379 17.935 9.54521 18.0738C9.66677 18.2128 9.76225 18.3167 9.83166 18.3861L10.092 18.636C10.2586 18.8027 10.5033 19.0022 10.8261 19.2348C11.149 19.4674 11.5065 19.6965 11.8987 19.9223C12.291 20.1477 12.7474 20.3317 13.2681 20.4739C13.7887 20.6164 14.2955 20.6735 14.7884 20.6459H15.986C16.2288 20.625 16.4128 20.5486 16.5379 20.4168L16.5793 20.3646C16.6072 20.3232 16.6333 20.2588 16.6573 20.1722C16.6817 20.0854 16.6938 19.9898 16.6938 19.8858C16.6867 19.5874 16.7094 19.3184 16.7614 19.0789C16.8133 18.8395 16.8724 18.659 16.9386 18.5374C17.0047 18.416 17.0793 18.3135 17.1624 18.2304C17.2456 18.1471 17.3049 18.0967 17.3397 18.0793C17.3743 18.0619 17.4019 18.05 17.4227 18.0429C17.5893 17.9874 17.7854 18.0412 18.0112 18.2044C18.2369 18.3676 18.4486 18.569 18.6465 18.8084C18.8444 19.048 19.0821 19.3169 19.3597 19.6153C19.6376 19.9139 19.8805 20.1358 20.0886 20.2818L20.2968 20.4068C20.4359 20.4902 20.6164 20.5665 20.8386 20.636C21.0603 20.7053 21.2547 20.7227 21.4215 20.688L24.0872 20.6464C24.3509 20.6464 24.556 20.6028 24.7015 20.5161C24.8474 20.4294 24.934 20.3338 24.9619 20.2298C24.9898 20.1257 24.9913 20.0076 24.9672 19.8756C24.9425 19.7439 24.9182 19.6518 24.894 19.5997Z" fill="white"/>
</svg>
