<svg width="98" height="98" viewBox="0 0 98 98" fill="none" xmlns="http://www.w3.org/2000/svg">
<g id="Group">
<path id="Vector" d="M30.5431 96.7259C26.6338 90.3274 9.41083 68.2045 8.74702 66.1089C8.08322 64.0133 2.27574 50.3607 1.91277 47.6542C1.54981 44.9477 0.796875 36.1469 0.796875 36.1469C0.796875 36.1469 0.854107 29.8154 1.71411 28.1766C2.57412 26.537 4.01781 23.3043 4.01781 23.3043C4.01781 23.3043 5.66016 18.0683 6.9003 16.8317C8.14044 15.5942 11.4448 14.1113 11.8151 14.0052C12.1862 13.8992 13.7338 13.2849 13.7338 13.2849L15.0017 11.5801C15.0017 11.5801 21.7092 6.47292 27.1873 4.22808C32.6653 1.98324 42.3739 -0.606652 53.2678 1.49952C64.1618 3.60569 70.0837 8.25934 70.0837 8.25934C70.0837 8.25934 77.2687 6.43622 81.173 11.8681C85.0774 17.2999 82.302 21.4527 82.302 21.4527C82.302 21.4527 87.1236 28.0126 88.1381 34.8345C91.3182 56.207 82.9004 81.5854 82.4581 81.5854C82.0159 81.5854 38.5766 97.4649 37.5687 97.146C36.5607 96.827 30.5431 96.7259 30.5431 96.7259Z" fill="#BA1347"/>
<path id="Vector_2" d="M41.7227 20.1865C28.861 22.8262 14.0929 39.1217 16.3517 52.5858C18.6104 66.05 19.9805 71.0797 26.8181 73.1842C33.6556 75.2888 43.2162 75.465 43.2162 75.465C43.2162 75.465 43.5972 80.0835 43.7852 79.8951C43.974 79.7067 47.6593 79.4848 49.999 79.4848C52.3386 79.4848 53.2665 78.0116 53.2665 78.0116L52.5986 75.465C52.5986 75.465 65.009 72.8751 70.0824 69.8749C75.1558 66.8747 78.7585 66.0206 81.7775 63.009C84.7965 59.9966 76.2741 33.0552 76.2741 33.0552L63.2514 23.2724L41.7227 20.1865Z" fill="#F4CDC3"/>
<path id="Vector_3" d="M89.3856 97.1461C89.3856 97.1461 88.0065 67.1221 88.0065 64.4825C88.0065 61.8428 84.6629 43.6957 84.6629 43.6957C84.6629 43.6957 79.3566 30.5847 77.1739 27.8602C74.9911 25.1357 63.9999 18.575 61.8899 17.8963C59.78 17.2168 41.9243 15.7877 38.893 16.1172C35.8617 16.4468 24.9776 18.4542 20.0996 25.4661C15.2216 32.478 12.4102 40.3847 11.7906 41.7518C11.1717 43.1181 9.74764 55.7389 9.96346 57.801C10.1793 59.8631 11.3965 72.1094 12.8247 75.4652C14.2529 78.8211 18.7679 90.1105 19.0009 91.3162C19.2347 92.5218 19.7309 96.7121 20.0701 96.2831C20.4086 95.854 23.9843 89.4759 24.8942 86.1764C25.8032 82.8768 25.7706 74.0508 25.7706 74.0508C25.7706 74.0508 21.7313 54.0707 21.7313 51.5224C21.7313 48.9741 21.1746 38.4988 22.4147 34.9512C23.6549 31.4045 25.7215 28.5169 26.1351 28.1049C26.5488 27.6922 30.0207 26.1252 30.0207 26.1252C30.0207 26.1252 29.0291 36.6014 30.5169 39.2411C32.0048 41.8807 37.164 34.0605 38.0976 31.5774C39.0311 29.0944 41.0978 23.271 41.0978 23.271L43.7432 35.6935C43.7432 35.6935 45.0438 35.1282 47.202 32.9756C49.3602 30.8221 51.4317 26.6203 51.4317 26.6203L52.7544 22.7433C52.7544 22.7433 60.7733 29.6719 64.7414 32.8067C68.7095 35.9415 77.4796 40.1824 79.4187 49.1976C81.3578 58.2129 81.0439 67.8644 81.7796 70.916C82.5154 73.9684 83.507 81.4208 84.1683 85.5303C84.8281 89.6415 89.3856 97.1461 89.3856 97.1461Z" fill="#FF9FAD"/>
<path id="Vector_4" d="M78.7544 74.4638C78.7544 73.3642 76.8414 72.7043 76.0534 74.4638C75.2653 76.2233 76.0534 79.248 76.0534 79.248L82.5271 79.9013C82.5271 79.9013 88.9379 76.8286 88.9379 75.1792C88.9379 73.5298 88.4376 71.7148 86.5083 71.7148C84.5799 71.714 78.7544 74.4638 78.7544 74.4638Z" fill="#F4CDC3"/>
<path id="Vector_5" d="M91.1674 54.0061C86.923 52.8495 85.2422 53.1399 85.2422 54.7077C85.2422 56.2746 86.1741 58.6288 87.3824 59.4518C88.5907 60.2749 89.1081 62.7123 90.9099 62.5622C92.7117 62.4113 94.8322 60.5645 95.5345 58.8735C96.2375 57.1825 97.9142 55.1123 97.2332 53.5526C96.5522 51.993 96.5898 51.7376 95.9162 51.5851C95.2434 51.4334 94.3614 51.1471 93.5038 51.8535C92.6471 52.5599 91.1674 54.0061 91.1674 54.0061Z" fill="#CC1B3D"/>
<path id="Vector_6" d="M43.7853 79.8959L31.9766 88.704L37.5666 97.1466H74.4937C74.4937 97.1466 80.5481 85.8115 80.79 85.1589C81.032 84.5063 81.7768 80.0811 81.7768 80.0811L76.0527 79.249C76.0527 79.249 71.6823 84.6931 69.4783 85.4631C67.2736 86.2332 64.2031 86.5627 64.0772 86.5627C63.9513 86.5627 57.4636 80.8584 56.2513 80.0811C55.0389 79.3037 53.5078 79.0002 53.5078 79.0002L43.7853 79.8959Z" fill="#FFEEF1"/>
<g id="Group_2">
<path id="Vector_7" d="M18.9021 15.3973C18.2563 14.9324 17.6848 14.4413 16.9556 14.0946C16.2518 13.7594 15.4024 13.513 14.6291 13.4168C12.9041 13.2031 11.0501 13.5571 9.51888 14.3712C6.23827 16.1144 4.41934 19.7728 4.60246 23.4256C4.65314 24.4387 4.8518 25.4632 5.2164 26.4111C5.6039 27.4169 6.16879 28.7775 7.33127 29.0589C8.08418 29.2408 8.67603 28.6657 8.71773 27.9495C8.7725 27.0074 7.95583 26.0864 7.66889 25.2038C7.40484 24.393 7.27731 23.5822 7.27159 22.7298C7.25851 21.0135 7.81441 19.2451 8.9589 17.9432C10.083 16.665 11.7065 15.8215 13.3513 15.43C15.0411 15.0278 17.2009 14.7717 18.8285 15.5319C18.9201 15.5735 18.9814 15.4536 18.9021 15.3973Z" fill="#FF83A1"/>
</g>
<g id="Group_3">
<path id="Vector_8" d="M3.96774 25.6007C2.92053 26.0208 2.38426 27.7011 1.95916 28.6653C1.34767 30.0536 0.898044 31.4371 0.661788 32.9364C0.180283 35.9969 0.236689 39.086 0.686311 42.1474C1.15964 45.3686 2.01475 48.4936 3.09384 51.5632C4.17948 54.6539 5.3305 57.6892 7.07095 60.4691C7.65546 61.4031 9.03049 60.7253 8.78443 59.6975C8.42555 58.199 8.00452 56.8147 7.43227 55.3815C6.87147 53.9744 6.32458 52.5624 5.82018 51.1341C4.79913 48.2416 3.93504 45.2757 3.39958 42.2526C2.90336 39.4547 2.77582 36.5589 2.99654 33.7268C3.10691 32.3132 3.28103 30.8636 3.52873 29.4671C3.65218 28.773 3.81486 28.0918 3.99716 27.4107C4.1484 26.8454 4.39611 26.3128 4.22853 25.7401C4.20073 25.639 4.0732 25.5582 3.96774 25.6007Z" fill="#FF83A1"/>
</g>
<g id="Group_4">
<path id="Vector_9" d="M14.7026 13.0459C20.8763 9.11908 27.6068 6.02263 34.813 4.5625C41.9056 3.1244 49.4176 3.43519 56.4047 5.2893C58.3569 5.80728 60.2715 6.44843 62.1255 7.25028C63.0534 7.65242 63.9698 8.0823 64.8707 8.54237C65.8664 9.05056 66.7697 9.27895 67.8701 9.44536C68.3753 9.52204 69.0015 8.95185 68.6026 8.44448C68.0712 7.76744 67.5382 7.08795 66.7894 6.64175C65.9277 6.12785 64.9647 5.73468 64.0401 5.34722C62.2637 4.60166 60.4423 3.95316 58.5931 3.41316C54.8956 2.33316 51.0673 1.7279 47.2201 1.55823C39.7556 1.23031 31.8921 2.56237 25.0865 5.67758C21.1911 7.46073 17.5884 9.84098 14.607 12.9285C14.5465 12.9904 14.6282 13.0932 14.7026 13.0459Z" fill="#FF83A1"/>
</g>
<g id="Group_5">
<path id="Vector_10" d="M34.0065 85.478C33.4359 85.0408 32.88 85.093 32.2587 85.407C30.7267 86.1812 31.8892 88.8151 33.5071 88.1731C37.7572 86.4871 40.925 83.2103 42.5232 78.9409C42.9115 77.9033 41.8496 76.8812 40.8784 76.891C37.0076 76.931 33.2806 75.8151 29.9763 73.8566C29.543 74.9586 29.1089 76.0598 28.6757 77.1618C32.8032 77.9588 36.9316 78.75 41.0632 79.5266C40.8907 78.418 40.7174 77.3095 40.5449 76.2009C39.2107 77.0403 37.8104 77.3976 36.1901 77.3323C36.1778 77.3315 35.5941 77.2858 35.8892 77.3193C35.6603 77.294 35.4323 77.2515 35.2066 77.2042C34.7897 77.1178 34.3695 77.0068 33.9714 76.8535C34.2052 76.944 33.7866 76.7703 33.7335 76.7483C33.4776 76.6422 33.2095 76.5296 32.9405 76.457C32.5342 76.3469 32.0952 76.2915 31.675 76.3249C30.3818 76.4269 29.2937 77.4669 29.3509 78.812C29.4065 80.1082 30.4496 80.9998 31.4903 81.6075C33.2585 82.6402 35.3399 82.8604 37.3174 82.4281C37.9256 82.2951 38.4177 81.7021 38.5624 81.1221C38.7341 80.4345 38.4807 79.8732 38.0491 79.3577C37.1752 78.3161 36.1255 77.3078 34.7357 77.0427C33.2463 76.7589 31.5786 77.4424 30.8396 78.7965C29.9894 80.3561 30.7513 82.0504 32.1345 82.9705C33.3517 83.7797 35.017 84.0709 36.4476 83.8531C37.2586 83.7299 37.9657 83.3196 38.1774 82.4697C38.3556 81.7535 38.0254 80.7257 37.2863 80.4288C36.2571 80.0152 35.2287 79.6016 34.1995 79.1872C33.7286 78.998 33.2495 78.8226 32.7877 78.6122C32.6037 78.5281 32.4239 78.4368 32.2506 78.3324C32.1762 78.2891 32.1034 78.2435 32.0331 78.1937C32.1852 78.3006 32.1819 78.2875 32.0233 78.1545C32.1394 78.321 32.141 78.3193 32.0274 78.1496C32.0511 78.2019 32.0756 78.2541 32.0993 78.3055C32.1329 78.4221 32.132 78.5379 32.0961 78.6529C32.119 78.5404 32.1484 78.4294 32.1843 78.3201C32.338 77.8258 32.5228 77.3902 32.5391 76.8584C32.5808 75.501 31.5189 74.2954 30.1153 74.3199C28.8285 74.3427 27.7388 75.3248 27.4993 76.568C27.2557 77.8315 27.899 79.0119 28.3626 80.1441C29.2136 82.2217 30.0646 84.2985 30.9156 86.3761C31.3391 87.4088 32.5817 88.1348 33.6411 87.4064C34.4823 86.8288 35.0227 86.0466 35.5148 85.1689C35.9097 84.4649 35.3677 83.287 34.4554 83.4249C33.4883 83.5709 32.5326 83.7161 31.7094 84.2838C32.6176 84.6272 33.5267 84.9706 34.4349 85.3141C33.7327 83.6084 33.0304 81.9027 32.329 80.1971C31.9661 79.3145 31.5753 78.4384 31.2393 77.5452C31.214 77.4759 31.1878 77.4057 31.1625 77.3364C31.1077 77.1031 31.0873 77.0509 31.1003 77.1798C31.2565 77.2042 30.7734 77.719 30.6777 77.7916C30.0621 78.2671 29.4678 77.9367 28.8947 76.8021C28.9225 76.5892 28.9201 76.5533 28.8866 76.6936C28.8089 76.8339 28.777 77.0313 28.7231 77.1847C28.065 79.0567 28.9561 80.6939 30.6336 81.6164C31.3399 82.0047 32.1263 82.2625 32.8727 82.5627C33.7548 82.9175 34.6368 83.2715 35.5189 83.6263C35.7985 82.4852 36.0781 81.344 36.3577 80.2028C36.1443 80.2354 35.9326 80.2624 35.7167 80.2713C35.7282 80.2705 35.1674 80.2689 35.3464 80.2836C35.1142 80.2648 34.6303 80.1481 34.5461 80.1188C34.3736 80.0584 34.2044 79.963 34.0474 79.8684C34.1627 79.9662 34.1725 79.9736 34.0768 79.8912C33.9845 79.8015 33.9877 79.8186 34.0875 79.945C34.058 79.8985 34.0294 79.8512 34 79.8047C34.1267 79.985 34.1643 80.1694 34.112 80.3578C34.1022 80.4557 34.067 80.5454 34.0074 80.6262C34.094 80.4761 34.1005 80.4581 34.0278 80.5707C33.946 80.68 33.9665 80.6686 34.0875 80.5372C34.049 80.5739 34.0106 80.6107 33.9714 80.6474C34.1316 80.5593 34.1537 80.5446 34.0376 80.6058C33.9183 80.6612 33.946 80.658 34.1202 80.5976C34.063 80.6066 34.0057 80.6156 33.9485 80.6245C34.1651 80.6253 34.1578 80.6172 33.9281 80.6001C33.9902 80.6156 34.0523 80.6319 34.1153 80.6474C34.0016 80.5952 34.0016 80.5968 34.1145 80.6523C34.1774 80.6833 34.4848 80.8652 34.3008 80.7363C34.4562 80.8448 34.6041 80.9924 34.739 81.1237C35.021 81.3995 35.2753 81.7013 35.5287 82.0031C35.7723 80.9794 36.0168 79.9565 36.2604 78.9327C35.6554 79.0649 36.4092 78.9319 36.0593 78.9735C35.895 78.9931 35.729 79.0045 35.5639 79.0086C35.366 79.0135 35.1649 79.011 34.9679 78.9955C35.1641 79.011 34.9319 78.9906 34.8633 78.9776C34.5673 78.9205 34.1014 78.8096 33.9354 78.7484C34.0188 78.7786 33.6207 78.6056 33.6084 78.5999C33.4596 78.5265 33.3158 78.4458 33.1735 78.3601C33.1237 78.3299 32.7991 78.1284 32.979 78.2418C32.9283 78.1986 32.8768 78.1545 32.8261 78.1113C33.0272 78.396 32.916 78.7076 32.4942 79.0461C32.5351 79.6538 32.3356 79.9605 31.8974 79.9662C31.9432 79.9671 31.9898 79.9671 32.0356 79.9679C31.711 80.0209 31.8852 79.9434 32.0568 80.0046C32.2432 80.0707 32.3331 80.1 32.0969 80.0046C32.3666 80.1139 32.6299 80.2281 32.9029 80.3317C33.2111 80.4483 33.5226 80.5544 33.8422 80.64C36.7394 81.4141 39.9391 80.9051 42.4693 79.3129C43.7364 78.5151 43.5402 76.2866 41.9501 75.9872C37.8177 75.2106 33.682 74.4471 29.5455 73.691C28.6699 73.5311 27.7805 73.9153 27.4568 74.7791C27.142 75.6185 27.4551 76.5386 28.2448 76.9962C32.096 79.228 36.5163 80.2738 40.961 80.1963C40.4124 79.5127 39.8647 78.83 39.3162 78.1464C38.2297 81.1131 35.6186 83.9437 32.6225 85.2496C32.8939 85.2431 33.1653 85.2366 33.4368 85.2292C33.409 85.2202 33.3812 85.2113 33.3542 85.2023C33.6125 85.3907 33.8717 85.58 34.13 85.7684C34.1668 85.8761 34.2036 85.9846 34.2403 86.0922C34.2019 86.2505 34.1627 86.4087 34.1243 86.567C34.1365 86.5368 34.1496 86.5066 34.1619 86.4765C34.2902 86.1616 34.3123 85.7121 34.0065 85.478Z" fill="#CC1B3D"/>
</g>
<g id="Group_6">
<path id="Vector_11" d="M53.7633 76.475C53.9668 76.9775 53.984 77.3911 54.414 77.7769C54.92 78.2312 55.5152 78.5225 56.143 78.7639C57.3137 79.215 58.5914 79.3618 59.8413 79.4124C62.4402 79.5168 65.0439 78.821 67.4024 77.7704C72.3098 75.5834 76.8485 72.4217 81.2262 69.3392C83.2855 67.8888 81.411 64.9156 79.1825 66.0372C75.2225 68.0299 71.2495 69.9934 67.2699 71.9486C65.3398 72.8965 63.4105 73.8452 61.4804 74.793C60.5657 75.2425 59.6582 75.7547 58.6854 76.0688C57.7404 76.3731 56.8256 76.2222 55.9198 76.7148C55.225 77.0933 55.0222 78.1089 55.4375 78.7541C56.8526 80.9508 59.8234 79.6979 61.6758 78.8202C63.8463 77.7924 65.9938 76.714 68.1512 75.6609C72.5019 73.5376 76.8543 71.4201 81.2246 69.3384C80.5436 68.238 79.8626 67.1367 79.1808 66.0363C75.2242 68.8302 71.1424 71.6599 66.7933 73.8174C64.8747 74.7694 62.8072 75.5166 60.6654 75.7409C59.4923 75.8641 58.3699 75.7735 57.2033 75.6642C56.618 75.6096 56.0294 75.5459 55.44 75.559C54.8358 75.572 54.5399 75.8216 54.0044 76.0207C53.8352 76.0859 53.6856 76.2841 53.7633 76.475Z" fill="#CC1B3D"/>
</g>
<g id="Group_7">
<path id="Vector_12" d="M56.2854 75.5033C56.2421 75.5131 56.1988 75.5229 56.1563 75.5327C56.2364 75.5409 56.3173 75.5498 56.3974 75.558C56.3067 75.4976 56.2168 75.4373 56.126 75.3769C55.5742 75.0082 54.8099 75.6624 55.0257 76.2652C55.3453 77.1568 56.3034 77.3158 57.1299 77.4578C57.9997 77.6071 58.8671 77.6878 59.7508 77.6601C60.5258 77.6356 61.2991 77.5818 62.07 77.4986C62.5491 77.4464 63.0249 77.3681 63.499 77.2889C64.1759 77.1764 64.6754 76.8778 65.0686 76.3003C64.2299 76.3207 63.3911 76.3411 62.5524 76.3623C62.6905 76.5931 62.8696 76.722 63.0878 76.8713C63.7189 77.3036 64.7416 76.9569 65.0686 76.3003C65.4479 75.5384 65.1716 74.7822 64.4972 74.3222C63.9356 73.9396 63.2562 74.0505 62.6341 74.1639C62.5164 74.1835 62.5319 74.1811 62.6824 74.1574C62.5802 74.1729 62.478 74.1884 62.375 74.2031C62.1698 74.2341 61.9654 74.2675 61.7594 74.2969C61.0416 74.4013 60.3198 74.4796 59.5955 74.5318C59.2325 74.5579 58.872 74.5726 58.5107 74.6207C58.3047 74.6476 58.0978 74.6705 57.8918 74.6966C57.7872 74.7096 57.1356 74.7945 57.4275 74.7602C56.6983 74.8467 55.5415 74.8304 55.087 75.6754C55.5571 75.8598 56.0271 76.0441 56.4972 76.2285C56.5143 76.1208 56.5315 76.0132 56.5487 75.9055C56.5021 75.9691 56.4563 76.0319 56.4097 76.0955C56.4465 76.0703 56.4825 76.0458 56.5193 76.0213C56.7931 75.8353 56.6035 75.4307 56.2854 75.5033Z" fill="#CC1B3D"/>
</g>
<g id="Group_8">
<path id="Vector_13" d="M53.5969 76.8447C53.5233 77.6408 54.0392 78.5471 54.4782 79.1833C54.9409 79.853 55.4363 80.5162 55.9824 81.1214C57.0655 82.3214 58.3196 83.363 59.6472 84.2807C60.9029 85.1486 62.282 85.9782 63.7486 86.4334C65.5193 86.9832 67.7518 86.7645 68.7868 85.0467C69.4808 83.8957 68.5121 82.0856 67.0888 82.2537C67.0324 82.2602 66.976 82.2667 66.9204 82.2732C65.9844 82.3842 65.2462 83.0286 65.2495 84.0254C65.2495 84.0776 65.2495 84.1298 65.2503 84.182C65.5479 83.6322 65.8462 83.0832 66.1438 82.5334C66.0335 82.5963 65.8651 82.6534 65.7849 82.7488C65.6435 82.9168 66.1168 82.6313 65.7294 82.7855C65.5307 82.8646 65.5789 82.7969 65.7563 82.7969C65.6165 82.7969 65.4661 82.7969 65.3255 82.8034C65.1285 82.8124 65.5707 82.8785 65.2266 82.7822C65.0794 82.7414 64.929 82.7137 64.7819 82.6721C64.6339 82.6305 64.4892 82.5824 64.3429 82.5343C64.2031 82.4878 64.1205 82.438 64.3045 82.5204C63.1044 81.9828 61.9574 81.3352 60.8742 80.5912C59.9194 79.9362 59.0447 79.189 58.0735 78.3342C57.1244 77.4997 56.1646 76.1342 54.9016 75.7965C54.1789 75.6064 53.6574 76.1896 53.5969 76.8447Z" fill="#CC1B3D"/>
</g>
<g id="Group_9">
<path id="Vector_14" d="M60.7512 79.3389C60.6825 79.1358 60.7447 79.0551 60.8158 78.8577C60.3514 78.8063 59.8871 78.7549 59.4228 78.7043C59.4481 79.0159 59.4522 79.2802 59.5977 79.5682C59.6778 79.7272 59.7514 79.8406 59.8291 79.9752C60.107 80.4622 60.4855 80.8341 60.9392 81.1653C61.7273 81.7412 62.75 82.1075 63.7359 82.0463C63.8372 82.0398 63.9353 82.0234 64.0359 82.0088C64.0359 82.0088 64.694 81.9158 64.3253 81.968C64.6547 81.9215 64.909 81.8668 65.2106 81.7314C65.63 81.5422 66.0052 81.3195 66.3674 81.0356C67.1391 80.4312 67.8372 79.7395 68.5362 79.0543C69.3112 78.2948 70.3764 77.5085 70.7263 76.4603C70.8464 76.1006 70.9805 75.4325 70.88 75.0589C70.7271 74.4903 70.2211 74.3574 69.6995 74.4275C69.1853 74.4969 68.676 74.5458 68.2247 74.8444C67.7391 75.1657 67.3369 75.6413 66.9241 76.0492C66.239 76.727 65.5719 77.4245 64.8836 78.0982C64.7348 78.2443 64.5828 78.3862 64.4258 78.5232C64.6057 78.3658 64.4144 78.5338 64.38 78.5583C64.2754 78.6325 64.1716 78.7059 64.0629 78.7736C63.8789 78.887 63.668 79.0102 63.4685 79.0942C63.5863 79.0445 63.6083 79.0836 63.413 79.0877C63.5781 79.0836 63.4252 79.0746 63.3459 79.0763C63.0598 79.0828 63.1988 79.0763 63.2772 79.0861C63.1497 79.0706 63.0247 79.0322 62.902 78.9988C62.8669 78.989 62.6404 78.8887 62.454 78.7948C61.9047 78.5183 61.4534 78.2304 60.8215 78.1814C61.0201 78.2296 61.2188 78.2785 61.4166 78.3266C60.9523 78.0713 60.6384 78.0052 60.1119 77.9808C59.7269 77.9628 59.417 78.3421 59.4219 78.7043C59.4277 79.1244 59.7677 79.3561 60.1462 79.3928C60.2591 79.4042 60.3612 79.3813 60.4724 79.3593C60.3874 79.3389 60.3024 79.3185 60.2166 79.2981C60.2942 79.3732 60.3719 79.4482 60.4504 79.5225C60.5803 79.6465 60.81 79.5127 60.7512 79.3389Z" fill="#CC1B3D"/>
</g>
<g id="Group_10">
<path id="Vector_15" d="M17.1607 37.7975C16.6596 39.4673 16.102 41.0751 15.9132 42.8158C15.7309 44.4954 15.6197 46.1684 15.6965 47.8585C15.8584 51.4077 16.3669 54.9324 16.9244 58.4375C17.9782 65.0644 19.3426 71.6195 19.2755 78.3638C19.2575 80.1641 19.0859 81.9301 18.8562 83.714C18.7327 84.6717 18.5848 85.6187 18.5038 86.5813C18.4221 87.5536 18.5627 88.4305 18.6763 89.3898C18.7548 90.0546 19.5175 90.4151 20.0293 89.911C21.2604 88.698 22.0501 87.4549 22.4679 85.7484C22.875 84.0844 23.0565 82.3787 23.1578 80.6706C23.3565 77.3123 23.0932 73.9565 22.6273 70.6308C21.652 63.6736 19.699 56.8983 18.7262 49.946C18.4441 47.9295 18.2496 45.9033 18.0354 43.8795C17.8245 41.8916 17.5637 39.8401 17.594 37.8465C17.598 37.5895 17.2294 37.5675 17.1607 37.7975Z" fill="#FFD2DB"/>
</g>
<g id="Group_11">
<path id="Vector_16" d="M45.1752 29.0645C45.5144 29.0441 45.7221 29.0016 46.0098 28.8165C45.8896 28.8524 45.7695 28.8883 45.6485 28.9233C46.2878 28.9258 46.5526 28.5375 46.8853 28.0628C47.1118 27.7406 47.4216 27.4869 47.6334 27.1467C48.0797 26.4322 48.3487 25.5806 48.5457 24.7681C48.7501 23.9279 48.8653 23.0714 48.8997 22.2076C48.9185 21.7353 48.786 21.3013 48.6871 20.8453C48.5849 20.3755 48.4116 19.9839 48.0789 19.6299C47.6023 19.1226 46.8608 19.3762 46.5208 19.8689C46.2869 20.2083 46.1856 20.6406 46.1349 21.046C46.0883 21.1945 46.0867 21.2271 46.13 21.1447C46.215 20.9954 46.1774 21.099 46.0155 21.4555C45.9395 21.7206 45.9346 22.0061 45.9166 22.281C45.8986 22.4629 45.8986 22.4751 45.9166 22.3177C45.9052 22.414 45.8929 22.5102 45.8798 22.6065C45.861 22.7508 45.8422 22.896 45.8226 23.0404C45.7744 23.4026 45.713 23.7623 45.637 24.1196C45.4915 24.8056 45.2724 25.4819 45.1441 26.1711C45.0672 26.5863 45.1147 26.84 45.0092 27.1736C44.8457 27.6932 44.6969 28.0726 45.0174 28.5824C44.9814 28.4625 44.9463 28.3417 44.9103 28.2218C44.8948 28.531 44.9479 28.6917 45.0615 28.9829C45.0803 29.0294 45.1228 29.0677 45.1752 29.0645Z" fill="#FFD2DB"/>
</g>
<g id="Group_12">
<path id="Vector_17" d="M34.7843 33.9245C34.9184 33.7932 35.0525 33.6627 35.1873 33.5314C34.9609 33.5974 34.7353 33.6627 34.5088 33.7279C35.1211 33.8373 35.4334 33.5885 35.8119 33.1553C36.0989 32.8274 36.4095 32.5419 36.6621 32.1854C37.0774 31.6006 37.491 31.0157 37.8744 30.4088C38.0772 30.0874 38.2979 29.7717 38.4851 29.4414C38.5472 29.3598 38.5922 29.2693 38.6208 29.1706C38.6952 29.0205 38.7271 28.8598 38.7165 28.6893C38.5848 29.1861 38.8285 28.611 38.8767 28.5164C39.0508 28.1754 39.1906 27.8197 39.3378 27.4665C39.5021 27.0725 39.6353 26.7357 39.5977 26.3017C39.5675 25.9493 39.2298 25.6353 38.8571 25.7666C38.1442 26.0178 37.6227 26.6826 37.1608 27.2602C37.0471 27.4029 36.9392 27.5734 36.8084 27.7015C36.8117 27.6884 36.8141 27.6754 36.8174 27.6623C36.6335 27.7773 36.488 27.9299 36.3817 28.1191C36.1642 28.4323 35.9615 28.757 35.7514 29.0751C35.3574 29.6722 34.9944 30.2856 34.6306 30.9015C34.4312 31.2384 34.3249 31.603 34.1663 31.9497C33.9349 32.4579 33.724 32.8992 34.0821 33.4163C34.0543 33.2369 34.0257 33.0574 33.9979 32.878C33.9357 33.0485 33.8736 33.2189 33.8115 33.3894C33.6022 33.9621 34.4083 34.2908 34.7843 33.9245Z" fill="#FFD2DB"/>
</g>
<g id="Group_13">
<path id="Vector_18" d="M68.7078 28.0347C68.877 28.3348 68.8272 28.7313 68.9817 29.0453C69.1942 29.4769 69.5678 29.8749 69.8801 30.2346C70.5136 30.9672 71.2134 31.6393 71.8633 32.3579C73.0953 33.721 74.203 35.2276 75.1219 36.8175C76.0489 38.4203 76.7168 40.1089 77.2612 41.8749C77.531 42.7501 77.7836 43.6376 78.0223 44.5219C78.2848 45.495 78.3771 46.5424 79.2486 47.1607C79.6295 47.4307 80.1666 47.2521 80.474 46.9723C81.2449 46.2699 81.0929 44.853 81.0373 43.9011C80.9743 42.826 80.7879 41.7909 80.5043 40.7525C79.9492 38.7172 79.0115 36.7302 77.9251 34.9258C76.8525 33.1459 75.5576 31.4998 74.0248 30.0919C73.2702 29.3994 72.4348 28.7011 71.5224 28.2272C71.0589 27.9865 70.5235 27.728 69.997 27.6578C69.5891 27.604 69.2286 27.8136 68.8427 27.7867C68.7127 27.7777 68.653 27.9368 68.7078 28.0347Z" fill="#FFD2DB"/>
</g>
<g id="Group_14">
<path id="Vector_19" d="M39.2086 56.3699C38.9617 56.2899 38.7532 56.2687 38.4467 56.3103C38.4368 56.312 38.2693 56.3291 38.2104 56.3487C38.2554 56.334 38.436 56.3054 38.2063 56.3421C37.8703 56.3952 38.3314 56.3332 38.2039 56.3479C38.1834 56.3503 38.163 56.3503 38.1425 56.3536C37.7837 56.409 37.518 56.5077 37.2654 56.7794C36.7381 57.3447 36.3596 58.0943 36.2975 58.8668C36.1757 60.3954 37.2556 61.8621 38.7769 62.1468C40.2222 62.4176 41.9692 61.8335 42.62 60.4223C42.9649 59.6743 43.0541 58.7844 42.7491 58.0038C42.4279 57.1807 41.8409 56.5061 41.0798 56.055C40.3318 55.6113 39.3107 55.4987 38.4875 55.8021C37.4804 56.1733 36.8002 56.9523 36.4773 57.9613C36.2141 58.7828 36.322 59.7241 36.6719 60.499C37.0855 61.4134 37.8245 62.0709 38.7884 62.3719C39.7309 62.6664 40.7307 62.4535 41.5883 62.0203C42.4483 61.5864 43.0475 60.7845 43.3671 59.8978C43.7146 58.932 43.493 57.8325 43.0083 56.9572C42.508 56.0542 41.6251 55.4106 40.6662 55.0721C39.6418 54.7107 38.5529 54.9138 37.6038 55.3755C37.1942 55.5754 36.8157 55.8911 36.5133 56.2296C36.1388 56.6489 35.8675 57.0991 35.6639 57.6163C34.8276 59.7388 35.9508 62.3858 38.1303 63.168C38.5603 63.3222 39.0336 63.3752 39.4873 63.3809C40.2116 63.3907 40.9727 62.7928 41.1174 62.0774C41.1787 61.7732 41.1714 61.4632 41.0953 61.163C41.003 60.7992 40.6359 60.3024 40.2787 60.154C40.0841 60.0732 39.9034 59.9713 39.7317 59.8497C39.8585 59.9427 39.9852 60.0357 40.1119 60.1287C39.8519 59.9345 39.5993 59.7323 39.3336 59.5438C39.4644 59.6401 39.596 59.7363 39.7268 59.8318C39.5355 59.689 39.3647 59.5283 39.2102 59.3464C39.3132 59.4729 39.4162 59.5993 39.5192 59.7257C39.3868 59.5626 39.2543 59.3994 39.1211 59.2363C39.2241 59.3627 39.3271 59.4892 39.4301 59.6156C39.2846 59.428 39.1628 59.2298 39.0639 59.0136C39.1317 59.1629 39.1987 59.3122 39.2666 59.4623C39.1832 59.2673 39.1219 59.0674 39.0843 58.8586C39.1113 59.025 39.1374 59.1914 39.1644 59.3578C39.1325 59.1466 39.126 58.9369 39.1472 58.724C39.1293 58.8904 39.1105 59.0568 39.0925 59.2241C39.1178 59.0356 39.1619 58.8554 39.2265 58.6767C39.1677 58.8268 39.108 58.9769 39.0491 59.1262C39.1366 58.9043 39.2494 58.7004 39.3884 58.5071C39.2952 58.6343 39.2012 58.7616 39.108 58.8888C39.238 58.7183 39.3827 58.5658 39.5462 58.4263C39.4244 58.525 39.3026 58.6237 39.1807 58.7232C39.3827 58.5601 39.5928 58.4149 39.8282 58.3039C39.6868 58.3676 39.5445 58.432 39.4031 58.4956C39.5756 58.4206 39.7514 58.3651 39.9361 58.33C39.7808 58.3545 39.6247 58.3798 39.4693 58.4043C39.6328 58.379 39.7939 58.37 39.959 58.3806C39.8053 58.3635 39.6516 58.3472 39.4971 58.33C39.7056 58.3529 39.9034 58.4026 40.098 58.4793C39.9615 58.4255 39.825 58.3716 39.6876 58.3178C39.8397 58.3831 39.9762 58.4581 40.1094 58.5552C39.9934 58.4703 39.8781 58.3855 39.762 58.3007C39.9288 58.4296 40.0767 58.5731 40.21 58.7355C40.1192 58.6245 40.0293 58.5136 39.9386 58.4026C40.0669 58.5682 40.1732 58.7428 40.2598 58.9337C40.2002 58.8015 40.1405 58.6694 40.0808 58.5381C40.1519 58.7077 40.2034 58.8806 40.2345 59.0617C40.2108 58.9141 40.1871 58.7664 40.1634 58.6188C40.1855 58.7795 40.1904 58.9353 40.1773 59.0968C40.1936 58.9484 40.21 58.7999 40.2263 58.6514C40.2059 58.8236 40.1658 58.9851 40.1029 59.1466C40.156 59.0128 40.2084 58.8782 40.2615 58.7444C40.1961 58.897 40.1152 59.0373 40.0171 59.1719C40.1013 59.0577 40.1855 58.9435 40.2697 58.8284C40.1675 58.9606 40.0539 59.0781 39.9271 59.1865C40.0375 59.0968 40.147 59.0079 40.2574 58.9182C40.0939 59.0503 39.919 59.1596 39.7285 59.2485C39.8593 59.1898 39.9901 59.1303 40.1209 59.0715C39.9484 59.1466 39.7726 59.2012 39.5879 59.2363C39.7342 59.2126 39.8805 59.1898 40.0277 59.1661C39.8446 59.1947 39.6623 59.202 39.4775 59.1849C39.6247 59.2012 39.7718 59.2167 39.919 59.233C39.7751 59.2143 39.6385 59.1825 39.502 59.1343C39.6353 59.1865 39.7685 59.2387 39.901 59.291C39.7685 59.2387 39.6475 59.1751 39.5306 59.0944C39.6443 59.1776 39.7579 59.2608 39.8715 59.344C39.7473 59.2518 39.6377 59.1474 39.5388 59.0283C39.6271 59.1376 39.7162 59.2461 39.8045 59.3554C39.7097 59.233 39.6304 59.1033 39.5633 58.9638C39.6222 59.0935 39.6802 59.2233 39.7391 59.3529C39.6516 59.1564 39.5903 58.9532 39.5568 58.7412C39.5797 58.8855 39.6026 59.0299 39.6263 59.1743C39.6034 58.9997 39.5985 58.8276 39.6132 58.6523C39.5977 58.7966 39.5813 58.9418 39.5658 59.0862C39.5854 58.9133 39.6238 58.7477 39.6835 58.5854C39.632 58.7159 39.5813 58.8456 39.5298 58.9761C39.587 58.8342 39.6582 58.7036 39.7481 58.5788C39.6672 58.6898 39.5854 58.7999 39.5045 58.9108C39.5756 58.8187 39.6533 58.7371 39.7408 58.6596C39.6345 58.7461 39.5282 58.8317 39.4219 58.9182C39.5298 58.8309 39.641 58.7599 39.7669 58.7012C39.641 58.7583 39.5151 58.8146 39.3892 58.8717C39.5118 58.8195 39.6345 58.7836 39.7661 58.7607C39.6255 58.7828 39.4849 58.8056 39.3443 58.8276C39.4947 58.8072 39.6427 58.8056 39.7931 58.8203C39.6525 58.8048 39.511 58.7893 39.3704 58.7738C39.6165 58.8056 39.865 58.8643 40.0964 58.9541C39.9737 58.9059 39.8503 58.8578 39.7277 58.8089C39.8004 58.839 39.8724 58.8709 39.9427 58.9076C39.977 58.9255 40.0105 58.9475 40.0457 58.9647C40.2263 59.0519 39.8879 58.839 39.8879 58.839C39.9386 58.8766 39.9893 58.9133 40.04 58.9508C40.2615 59.1131 40.2427 59.0993 39.9835 58.91C40.0105 58.9378 40.0448 58.9614 40.0726 58.9867C40.138 59.0454 40.1944 59.1107 40.2558 59.1735C40.3669 59.2885 40.0498 58.8904 40.134 59.0275C40.1544 59.0601 40.1781 59.0903 40.1993 59.1229C40.2329 59.1751 40.3629 59.441 40.2476 59.1849C40.1381 58.9426 40.2353 59.1678 40.255 59.2339C40.2656 59.2697 40.2729 59.3073 40.2835 59.3432C40.3024 59.4386 40.2991 59.4166 40.2746 59.2771C40.2566 59.136 40.2509 59.1148 40.2558 59.2135C40.2541 59.2273 40.2525 59.3301 40.2509 59.3293C40.2312 59.3211 40.3179 58.959 40.2656 59.149C40.259 59.1727 40.1985 59.3456 40.2084 59.3603C40.2067 59.357 40.3351 59.0756 40.2852 59.1645C40.268 59.1955 40.2558 59.229 40.2394 59.2608C40.2231 59.2918 40.2043 59.322 40.1879 59.3529C40.0866 59.5406 40.2468 59.2469 40.2844 59.2339C40.2435 59.2485 40.1781 59.3611 40.1462 59.3937C40.1217 59.419 40.0947 59.4419 40.0702 59.468C39.9492 59.5952 40.1977 59.3603 40.2092 59.3603C40.1789 59.3603 40.0628 59.4663 40.0334 59.4843C39.9647 59.5283 39.892 59.5634 39.8209 59.6034C39.6901 59.6768 40.1217 59.4818 39.9795 59.5316C39.9451 59.5438 39.9116 59.5585 39.8773 59.5707C39.8086 59.596 39.7383 59.6181 39.6672 59.6368C39.605 59.6531 39.5413 59.6621 39.4792 59.6792C39.9075 59.5642 39.6377 59.6556 39.4922 59.6629C39.4195 59.6662 39.3459 59.667 39.2731 59.6637C39.2543 59.6629 39.1726 59.6507 39.1644 59.6564C39.1726 59.6507 39.5184 59.7119 39.3418 59.6727C39.2797 59.6588 39.2175 59.6491 39.1562 59.6336C39.1211 59.6246 39.0876 59.6132 39.0524 59.6042C38.8317 59.5438 39.184 59.6393 39.1799 59.6588C39.1808 59.6556 39.0017 59.5716 38.987 59.5634C38.9559 59.5455 38.9265 59.5251 38.8954 59.5071C38.736 59.4149 39.0336 59.5928 39.0222 59.6009C39.0115 59.6083 38.8709 59.4647 38.8603 59.4533C38.8349 59.4272 38.8104 59.3913 38.7835 59.3684C38.8317 59.4092 38.9625 59.6205 38.8603 59.4516C38.8211 59.3864 38.7834 59.3187 38.7442 59.2534C38.669 59.1294 38.848 59.5259 38.8055 59.3872C38.7941 59.3513 38.7785 59.3162 38.7663 59.2795C38.745 59.2159 38.7319 59.1515 38.7123 59.087C38.6559 58.8978 38.7426 59.2518 38.7328 59.2404C38.7156 59.22 38.7164 59.0952 38.7148 59.0683C38.7033 58.897 38.7033 58.72 38.7091 58.5495C38.718 58.2517 38.6608 58.7811 38.7058 58.5372C38.7213 58.4508 38.7369 58.3643 38.7589 58.2795C38.7687 58.2419 38.7785 58.2044 38.7908 58.1677C38.835 58.0282 38.8889 58.0625 38.7728 58.2044C38.8227 58.1432 38.8505 58.038 38.8897 57.9687C39.005 57.7631 39.0761 57.5845 39.0876 57.3398C39.0908 57.2704 39.09 57.2011 39.0965 57.1318C39.063 57.268 39.0295 57.4042 38.9968 57.5404C39.0786 57.3724 39.1047 57.2411 39.1219 57.0559C39.0908 57.1815 39.0606 57.308 39.0295 57.4336C39.0745 57.321 39.1243 57.2084 39.1914 57.1065C39.2306 57.0461 39.3107 56.9213 39.3557 56.865C39.4955 56.6831 39.4309 56.4417 39.2086 56.3699Z" fill="#EFAEAC"/>
</g>
<g id="Group_15">
<path id="Vector_20" d="M65.9536 57.1436C65.8726 57.2325 65.7983 57.3304 65.7345 57.4324C65.71 57.4715 65.6887 57.5123 65.6675 57.5539C65.6462 57.5955 65.6331 57.6167 65.6143 57.6681C65.5873 57.7179 65.5743 57.7717 65.5751 57.828C65.5644 57.9242 65.5628 57.9406 65.5694 57.8761C65.5841 57.7423 65.553 58.0254 65.5546 58.0132C65.5522 58.0384 65.5505 58.0637 65.5489 58.089C65.5464 58.1469 65.5465 58.2057 65.5505 58.2636C65.5522 58.2848 65.5497 58.3174 65.5579 58.337C65.5922 58.4251 65.5579 58.2367 65.5792 58.2554C65.5914 58.266 65.5571 58.461 65.5546 58.4822C65.5505 58.5279 65.5522 58.514 65.5587 58.4406C65.5694 58.3378 65.5677 58.3533 65.553 58.4879C65.5154 58.8313 65.7083 59.2074 65.9037 59.4831C66.0639 59.709 66.2462 59.9236 66.4661 60.0932C67.0793 60.5688 67.775 60.7474 68.5385 60.6022C69.0625 60.5027 69.5824 60.1666 69.9062 59.7457C70.2454 59.3052 70.5136 58.8142 70.5855 58.2546C70.6746 57.5621 70.5912 56.9348 70.2748 56.3075C69.6446 55.057 67.994 54.6328 66.7326 55.0538C65.9666 55.3091 65.3723 55.7806 64.9382 56.4568C64.532 57.0906 64.4281 57.8688 64.545 58.5988C64.7919 60.1462 66.0999 61.4179 67.667 61.5892C69.1868 61.7557 70.6885 60.9032 71.3997 59.5557C72.1747 58.0882 71.9229 56.2847 70.7539 55.1011C70.1555 54.495 69.3192 54.1875 68.4755 54.1834C67.6458 54.1793 66.7637 54.5358 66.2111 55.1622C65.5366 55.9266 65.2996 56.9274 65.5718 57.9104C65.8269 58.8305 66.6174 59.5761 67.5436 59.8061C67.8861 59.8909 68.2687 59.9064 68.608 59.8012C68.9333 59.7009 69.1966 59.5067 69.4402 59.2759C69.7811 58.9529 69.8914 58.4585 69.8203 58.0132C69.8064 57.8149 69.7427 57.6314 69.6298 57.4634C69.4917 57.2423 69.3086 57.0686 69.0813 56.9421C69.0699 56.934 69.0584 56.925 69.0462 56.9168C69.1508 56.9935 69.2563 57.0702 69.3609 57.1477C69.2039 57.018 69.0838 56.8891 68.8859 56.7863C68.8058 56.7447 68.7306 56.7105 68.6562 56.6566C68.7723 56.7415 68.8884 56.8271 69.0045 56.9119C68.9407 56.8606 68.8835 56.8051 68.8295 56.7431C68.9219 56.8573 69.0151 56.9707 69.1075 57.0849C69.0339 56.9927 68.9759 56.8956 68.9268 56.7888C68.9898 56.9283 69.0527 57.0677 69.1156 57.2072C69.0306 57.0025 68.9309 56.8059 68.8393 56.6052C68.9023 56.7447 68.966 56.885 69.029 57.0253C68.9898 56.9307 68.9611 56.8353 68.9423 56.7349C68.9677 56.8916 68.9922 57.0482 69.0175 57.2048C69.0028 57.1045 68.9987 57.0066 69.0061 56.9046C68.9889 57.062 68.9718 57.2195 68.9546 57.3769C68.9652 57.2921 68.9832 57.2129 69.011 57.133C68.9554 57.2749 68.899 57.4177 68.8426 57.5596C68.8818 57.4634 68.9301 57.3753 68.9906 57.2904C68.9015 57.412 68.8124 57.5327 68.7233 57.6542C68.7862 57.5727 68.8557 57.5017 68.9342 57.4348C68.8173 57.5294 68.7004 57.6241 68.5843 57.7187C68.693 57.6339 68.8099 57.5662 68.9333 57.5066C68.7952 57.5686 68.657 57.6314 68.5189 57.6934C68.6472 57.6363 68.778 57.5963 68.9162 57.5702C68.7633 57.5947 68.6104 57.6192 68.4576 57.6436C68.5974 57.6224 68.7347 57.6159 68.8753 57.6273C68.7232 57.611 68.5712 57.5939 68.42 57.5776C68.5598 57.5939 68.693 57.6249 68.8238 57.6763C68.6881 57.6233 68.5524 57.5694 68.4175 57.5164C68.5238 57.5629 68.6219 57.6175 68.7175 57.6828C68.6031 57.5988 68.4886 57.5148 68.3742 57.4307C68.4862 57.5131 68.5802 57.602 68.6693 57.7089C68.5802 57.5996 68.4919 57.4903 68.4028 57.3818C68.5123 57.5213 68.6014 57.6697 68.675 57.8313C68.617 57.7024 68.5581 57.5727 68.5001 57.4438C68.5696 57.6086 68.6194 57.7774 68.6513 57.9536C68.6284 57.81 68.6055 57.6657 68.5826 57.5221C68.6129 57.7187 68.6186 57.9128 68.5982 58.1102C68.6137 57.9667 68.6301 57.8231 68.6456 57.6795C68.6219 57.8508 68.5785 58.0156 68.5172 58.1779C68.5687 58.0482 68.6194 57.9185 68.6709 57.7888C68.5908 57.9854 68.4886 58.1673 68.3636 58.3386C68.4445 58.2285 68.5262 58.1176 68.6071 58.0066C68.4894 58.16 68.3586 58.297 68.2115 58.4218C68.3178 58.3354 68.424 58.2489 68.5303 58.1633C68.366 58.2962 68.1911 58.4063 67.9989 58.4944C68.1257 58.4373 68.2515 58.381 68.3783 58.3239C68.2205 58.3917 68.0594 58.4414 67.891 58.4732C68.0325 58.4504 68.1739 58.4284 68.3145 58.4055C68.1445 58.4324 67.9752 58.439 67.8036 58.4235C67.9458 58.439 68.0872 58.4545 68.2295 58.47C68.0611 58.4496 67.8992 58.408 67.7406 58.3468C67.869 58.3974 67.9973 58.4471 68.1248 58.4977C67.9679 58.4316 67.8224 58.35 67.6834 58.2513C67.7929 58.3313 67.9017 58.4112 68.0112 58.492C67.8592 58.3778 67.7251 58.2497 67.6033 58.1037C67.6883 58.2089 67.7741 58.3133 67.8592 58.4186C67.7423 58.2709 67.6458 58.1135 67.5673 57.9422C67.6237 58.067 67.6801 58.191 67.7365 58.3158C67.6711 58.1616 67.6245 58.0042 67.5984 57.8386C67.6204 57.9781 67.6433 58.1176 67.6654 58.2562C67.6458 58.1078 67.6441 57.9626 67.6597 57.8141C67.6441 57.9544 67.6286 58.0939 67.6139 58.2342C67.6311 58.1127 67.6589 57.9977 67.7006 57.8826C67.6507 58.0091 67.6008 58.1355 67.5509 58.2619C67.6065 58.1225 67.6785 57.9936 67.766 57.872C67.6867 57.9797 67.6074 58.0882 67.5281 58.1959C67.6499 58.0376 67.7946 57.899 67.9482 57.7709C67.8452 57.8541 67.7431 57.9381 67.6401 58.0213C67.7725 57.9169 67.9123 57.8288 68.0652 57.7562C67.9458 57.81 67.8265 57.8639 67.7071 57.9177C67.86 57.85 68.0161 57.8003 68.1804 57.7701C68.0505 57.7905 67.9205 57.8117 67.7905 57.8321C67.9368 57.81 68.0823 57.8035 68.2303 57.8166C68.1028 57.8027 67.9744 57.7888 67.8469 57.775C67.9785 57.7913 68.1028 57.8231 68.2262 57.8704C68.1126 57.8255 67.9989 57.7815 67.8861 57.7366C67.9883 57.7807 68.0831 57.8321 68.1739 57.8965C68.0782 57.8264 67.9834 57.757 67.8878 57.6869C67.9932 57.7668 68.0864 57.8582 68.1698 57.9601C68.0971 57.8704 68.0243 57.7807 67.9515 57.6918C68.0325 57.7962 68.0987 57.9071 68.1534 58.027C68.1068 57.9234 68.0594 57.8198 68.0128 57.7154C68.0709 57.8525 68.1126 57.9928 68.1387 58.1388C68.1207 58.0262 68.1028 57.9136 68.0848 57.8011C68.1126 57.9797 68.1183 58.1575 68.1003 58.3378C68.1126 58.2293 68.124 58.12 68.1363 58.0115C68.1257 58.1013 68.1109 58.1894 68.0881 58.2775C68.0774 58.3207 68.0627 58.3623 68.0504 58.4047C68.0006 58.5809 68.187 58.1233 68.0979 58.2848C68.0766 58.3231 68.0586 58.3631 68.0357 58.4014C67.9818 58.4904 67.8722 58.5695 68.1118 58.3076C68.0586 58.3655 68.0014 58.4251 67.9499 58.4846C67.878 58.5678 68.218 58.2995 68.039 58.412C68.0014 58.4357 67.9638 58.4594 67.927 58.483C67.761 58.5939 68.0513 58.4235 68.0496 58.4333C68.0464 58.4512 67.9262 58.4781 67.9008 58.4846C67.6605 58.5523 67.9891 58.4838 67.9916 58.4781C67.9899 58.4838 67.8477 58.4904 67.8395 58.4912C67.7888 58.4936 67.739 58.4912 67.6883 58.4928C67.5019 58.4977 67.954 58.5466 67.7692 58.5018C67.6687 58.4773 67.573 58.4528 67.4749 58.421C67.3188 58.3704 67.6515 58.514 67.5485 58.4512C67.5052 58.4243 67.4537 58.4063 67.4087 58.3819C67.3646 58.3574 67.3221 58.3231 67.2763 58.3019C67.179 58.2587 67.4406 58.439 67.3212 58.3362C67.2427 58.2677 67.1651 58.2008 67.094 58.1249C67.0065 58.0311 67.0286 58.058 67.1022 58.1363C67.0466 58.0393 66.9722 57.9626 66.8798 57.9055C66.7629 57.8166 66.7637 57.8207 66.8822 57.9177C66.7776 57.7913 66.9558 58.0735 66.8724 57.9218C66.794 57.779 66.9166 58.0613 66.8618 57.9039C66.8455 57.8565 66.8299 57.8092 66.8152 57.7619C66.7948 57.6983 66.6934 57.4511 66.7604 57.6257C66.7466 57.589 66.7326 57.5523 66.7212 57.5139C66.7163 57.4968 66.6893 57.3573 66.6991 57.4291C66.6517 57.0832 66.2266 56.8451 65.9536 57.1436Z" fill="#EFAEAC"/>
</g>
<g id="Group_16">
<g id="Group_17">
<path id="Vector_21" d="M31.0271 25.0937C30.4712 25.1876 29.9144 25.2708 29.4101 25.5236C28.8754 25.7912 28.3628 26.0922 27.874 26.4364C26.9429 27.0931 26.0902 27.8623 25.3365 28.7163C23.6843 30.5884 22.5456 32.874 21.8106 35.2453C20.1707 40.5385 20.4209 46.3284 21.1337 51.7561C22.4973 62.1434 25.9398 72.4385 24.5852 83.0192C23.9369 88.0847 22.1793 93.0459 18.6894 96.8659C19.0679 97.0739 19.4464 97.2811 19.8249 97.4891C20.6073 93.5802 19.4505 89.7268 17.9766 86.1262C17.2245 84.2892 16.389 82.4881 15.6524 80.6455C14.9437 78.8729 14.3134 77.0694 13.7624 75.2422C11.5282 67.8387 10.6109 60.0601 11.023 52.3402C11.256 47.9802 11.9296 43.652 13.0193 39.4234C13.2302 38.6036 11.9541 38.2871 11.7432 39.1053C9.81469 46.5845 9.19339 54.395 9.88908 62.0863C10.2382 65.9447 10.9101 69.7793 11.9034 73.5243C12.8999 77.279 14.2831 80.8706 15.8225 84.4328C17.5392 88.4078 19.4072 92.7482 18.5235 97.1645C18.3976 97.795 19.1881 98.3032 19.659 97.7877C26.033 90.8092 26.8963 80.7025 25.8466 71.7248C25.2008 66.1975 23.8854 60.7747 22.9339 55.2972C21.9831 49.8213 21.3324 44.1048 22.2635 38.5791C22.7426 35.7347 23.6753 32.9442 25.3398 30.5639C26.0853 29.4978 26.9772 28.5083 27.9827 27.6796C28.4667 27.2799 28.9866 26.9185 29.5229 26.593C30.0992 26.2431 30.6355 25.8556 31.2126 25.5073C31.4538 25.3637 31.2682 25.053 31.0271 25.0937Z" fill="#2A2B2D"/>
</g>
<g id="Group_18">
<path id="Vector_22" d="M11.2946 69.8013C10.7069 68.1372 9.89101 66.5923 9.13074 64.9992C8.3672 63.3979 7.61429 61.7934 6.91533 60.1636C5.52314 56.9179 4.29197 53.5955 3.35348 50.1899C2.54334 47.2493 1.92533 44.2311 1.54356 41.204C1.17405 38.2674 1.03344 35.2615 1.42011 32.3193C1.86892 28.9055 3.03139 25.6002 5.08412 22.8105C5.53538 22.1971 4.67212 21.3634 4.21514 21.9842C0.439942 27.1085 -0.423326 33.4719 0.170993 39.6729C0.809457 46.3259 2.63327 52.8671 5.228 59.0135C6.02669 60.9051 6.88752 62.7706 7.79085 64.6142C8.70073 66.4715 9.60814 68.3387 10.8311 70.0093C10.9938 70.2287 11.3968 70.0908 11.2946 69.8013Z" fill="#2A2B2D"/>
</g>
<g id="Group_19">
<path id="Vector_23" d="M6.6681 30.2172C6.67628 29.7914 6.50543 29.501 6.3313 29.1184C6.13347 28.6828 5.94544 28.2325 5.77704 27.7847C5.45658 26.9339 5.24649 26.0423 5.16229 25.1369C4.99471 23.3277 5.25385 21.4613 5.99695 19.7956C7.50605 16.412 10.897 14.2716 14.5831 14.1264C16.6669 14.044 18.6076 14.5865 20.3693 15.6852C20.5402 15.2521 20.7102 14.8189 20.8811 14.385C20.6146 14.3532 20.3505 14.345 20.084 14.3197C19.5052 14.2659 19.4521 15.0596 19.8396 15.3174C20.0194 15.4364 20.1879 15.5694 20.3702 15.6844C21.1402 16.169 21.8196 14.9299 21.0519 14.4511C17.6356 12.3204 12.9481 12.4509 9.46884 14.3483C5.81382 16.3419 3.76601 20.409 3.95321 24.5153C4.00472 25.6435 4.21399 26.7765 4.59413 27.8402C4.91213 28.7301 5.43942 30.1054 6.4196 30.4154C6.54958 30.4578 6.66647 30.3395 6.6681 30.2172Z" fill="#2A2B2D"/>
</g>
<g id="Group_20">
<path id="Vector_24" d="M10.0026 24.364C10.2422 24.209 10.3321 24.1029 10.413 23.8313C10.4694 23.6412 10.5021 23.4414 10.5487 23.2489C10.6395 22.8728 10.7245 22.496 10.8716 22.1371C11.1716 21.4045 11.6017 20.7308 12.1739 20.1818C12.7257 19.6524 13.414 19.256 14.1432 19.0267C14.4907 18.9174 14.8447 18.8391 15.2076 18.8057C15.4095 18.7869 15.6106 18.7804 15.8142 18.7877C16.1101 18.7975 16.2883 18.7543 16.5598 18.6295C16.9947 18.4296 16.8565 17.835 16.5352 17.6229C16.1028 17.3374 15.5183 17.4345 15.0245 17.5022C14.5634 17.5658 14.1113 17.6661 13.6732 17.8227C12.7731 18.145 11.9458 18.645 11.2632 19.3155C10.5855 19.9811 10.0729 20.8058 9.76637 21.7031C9.62004 22.1313 9.51702 22.5792 9.48268 23.0311C9.4647 23.2636 9.46961 23.5017 9.50803 23.7318C9.56117 24.0523 9.66582 24.2065 9.95767 24.3656C9.97157 24.3721 9.98954 24.3721 10.0026 24.364Z" fill="#2A2B2D"/>
</g>
<g id="Group_21">
<path id="Vector_25" d="M12.5103 14.3585C14.0292 13.3103 15.3666 12.0459 16.8258 10.9162C18.2736 9.79539 19.7933 8.77248 21.3605 7.82626C24.5038 5.92728 27.8743 4.41658 31.3822 3.32597C38.3824 1.14965 45.8428 0.7165 53.036 2.15623C60.0861 3.5666 66.7952 6.69242 72.3959 11.1943C78.1265 15.8007 82.6097 21.8076 85.3769 28.6139C88.1695 35.4822 89.296 43.0634 88.4384 50.4383C88.333 51.3478 88.2333 52.2573 88.1 53.1628C87.9766 53.9989 89.22 54.3431 89.4006 53.4866C90.9735 46.022 90.1372 37.9571 87.6986 30.7682C85.2543 23.5622 81.0328 17.0112 75.379 11.8967C69.8927 6.93468 63.1893 3.31455 56.0305 1.43188C48.7294 -0.488306 41.0261 -0.457309 33.7161 1.40496C26.4551 3.255 19.4059 6.88166 14.0038 12.1104C13.3466 12.7458 12.8095 13.4041 12.31 14.1676C12.2307 14.2867 12.3942 14.4384 12.5103 14.3585Z" fill="#2A2B2D"/>
</g>
<g id="Group_22">
<path id="Vector_26" d="M91.8585 53.9496C91.4685 53.2179 90.7696 52.8328 90.0109 52.5237C89.2924 52.2309 88.5182 52.0392 87.7366 52.0897C86.239 52.1868 84.9563 53.0482 84.5059 54.5067C84.0685 55.9252 84.5239 57.453 85.3169 58.6521C86.1573 59.923 87.3108 61.167 88.5043 62.1165C89.6839 63.0554 91.1383 63.6761 92.6539 63.2234C94.0649 62.8025 95.1064 61.6262 95.8658 60.4231C96.7332 59.0478 97.3676 57.5012 97.7387 55.9203C98.0674 54.523 98.2513 52.8541 97.2629 51.668C96.2116 50.4061 94.3224 50.4567 93.0103 51.2716C92.3065 51.7088 91.762 52.3777 91.35 53.0865C90.9347 53.8003 90.4287 54.7122 90.5112 55.5516C90.5603 56.0517 91.1276 56.2858 91.5012 55.9334C91.9566 55.5035 92.0964 54.9382 92.3604 54.386C92.6122 53.8606 92.9065 53.3565 93.3161 52.9373C93.9177 52.3222 95.0688 51.8515 95.8658 52.3956C96.7348 52.9895 96.5411 54.3329 96.3588 55.2107C96.0939 56.4864 95.65 57.7149 95.0361 58.865C94.5121 59.8464 93.8695 60.8684 92.9073 61.477C91.9361 62.0912 90.8996 61.9435 89.9586 61.3481C88.9605 60.7167 88.134 59.7615 87.359 58.883C86.62 58.0453 85.8908 57.046 85.8221 55.8926C85.7501 54.6943 86.3927 53.7146 87.6181 53.5172C88.2656 53.4128 88.9204 53.527 89.5401 53.7146C90.2873 53.9414 90.9159 54.2913 91.7089 54.222C91.8503 54.2098 91.9247 54.0727 91.8585 53.9496Z" fill="#2A2B2D"/>
</g>
<g id="Group_23">
<path id="Vector_27" d="M9.34838 43.4883C14.1185 38.1584 16.1197 30.9654 20.9225 25.6511C25.8217 20.2298 32.9544 17.3642 40.1083 16.5151C44.0813 16.0436 48.1189 16.1317 52.0887 16.5885C55.5132 16.9825 58.9148 17.7011 62.1913 18.7754C65.3918 19.8244 68.468 21.2862 71.2189 23.2357C73.9796 25.1926 76.3127 27.6903 78.148 30.5249C81.8929 36.3084 83.6228 43.1269 85.0861 49.7774C85.2684 50.6045 85.4458 51.4333 85.6224 52.2621C85.8292 53.232 87.3072 52.7825 87.1012 51.8159C85.6354 44.9427 84.0805 37.93 80.6471 31.7224C78.9483 28.6521 76.7607 25.8387 74.0809 23.5588C71.4216 21.296 68.3577 19.5455 65.1171 18.2558C61.8087 16.9393 58.3818 16.0958 54.8624 15.5762C50.9605 15.0003 46.9965 14.7776 43.0562 14.984C35.4993 15.3804 27.917 17.6652 22.1332 22.6908C16.5464 27.5451 14.0261 34.6467 10.192 40.7687C9.71543 41.5297 9.21267 42.2769 8.6952 43.0103C8.42624 43.3904 9.04264 43.8292 9.34838 43.4883Z" fill="#2A2B2D"/>
</g>
<g id="Group_24">
<path id="Vector_28" d="M52.6805 21.7718C52.9536 22.6217 53.4964 23.2808 54.0556 23.9693C54.6393 24.6871 55.2556 25.3585 55.9227 26.0004C57.2381 27.2656 58.6613 28.4109 60.1197 29.508C63.0644 31.7226 66.1586 33.7383 69.0059 36.081C72.0225 38.5624 74.578 41.4215 76.4394 44.8687C78.4079 48.5149 79.59 52.5592 80.2906 56.6272C80.737 59.2179 80.9757 61.8437 81.1253 64.4662C81.1989 65.7485 81.2496 67.0316 81.288 68.3155C81.3289 69.659 81.2749 71.031 81.4686 72.3631C81.5937 73.2253 82.7268 73.1943 82.8151 72.3305C82.9344 71.1526 82.8453 69.9551 82.8093 68.7732C82.7734 67.5879 82.7292 66.4027 82.6671 65.2191C82.5428 62.8552 82.3499 60.4928 82.0164 58.1485C81.4106 53.8929 80.3544 49.7165 78.5036 45.8214C76.7844 42.2037 74.3572 39.0616 71.3456 36.4228C68.5342 33.9602 65.3918 31.9135 62.3474 29.7568C60.6593 28.5609 59.003 27.3202 57.4375 25.9662C56.6454 25.281 55.8949 24.5517 55.1461 23.82C54.3989 23.09 53.7703 22.2375 52.9307 21.6168C52.8195 21.5328 52.629 21.6119 52.6805 21.7718Z" fill="#2A2B2D"/>
</g>
<g id="Group_25">
<path id="Vector_29" d="M79.2399 74.6574C79.3887 74.2495 79.365 73.929 79.0674 73.5986C78.8001 73.3017 78.46 73.0953 78.0553 73.0374C77.1226 72.9028 76.2577 73.5187 75.7361 74.2373C75.2252 74.9421 74.9677 75.8027 74.9399 76.6681C74.9129 77.5002 75.1148 78.5377 75.6454 79.205C76.0598 79.7254 76.8373 79.267 76.5323 78.6577C76.3893 78.373 76.2389 78.116 76.1457 77.8077C76.0549 77.5075 76.0067 77.2032 75.9977 76.89C75.9805 76.2644 76.1244 75.6428 76.4351 75.0979C76.7171 74.6036 77.1904 74.0668 77.8003 74.0285C78.0349 74.0138 78.3112 74.084 78.5025 74.1965C78.6006 74.2544 78.6995 74.385 78.8123 74.4518C78.9636 74.5416 78.9603 74.5073 79.0535 74.686C79.0993 74.7724 79.2129 74.7316 79.2399 74.6574Z" fill="#2A2B2D"/>
</g>
<g id="Group_26">
<path id="Vector_30" d="M76.1377 79.1124C76.2595 79.5659 76.9756 79.7201 77.3607 79.8375C77.9223 80.008 78.497 80.1369 79.0774 80.2242C80.2301 80.3979 81.3844 80.4102 82.5395 80.2552C83.2589 80.1589 83.1093 79.1475 82.3809 79.2698C81.328 79.4468 80.2334 79.4737 79.1714 79.3718C78.6433 79.3212 78.1177 79.229 77.6018 79.1059C77.2176 79.0145 76.5693 78.7168 76.1949 78.9598C76.1442 78.9933 76.1222 79.0545 76.1377 79.1124Z" fill="#2A2B2D"/>
</g>
<g id="Group_27">
<path id="Vector_31" d="M82.4779 80.0225C83.1621 80.1392 83.839 79.737 84.4341 79.4458C85.1118 79.1138 85.7626 78.728 86.3879 78.3063C87.485 77.5656 88.8698 76.6153 89.2819 75.289C89.6767 74.0173 88.9042 72.7554 87.8758 72.0449C86.5997 71.1631 84.9124 71.3377 83.5161 71.814C82.6798 72.0995 81.8672 72.4813 81.0996 72.9169C80.3891 73.3198 79.4 73.8166 78.9618 74.5255C78.728 74.9031 79.1457 75.4252 79.5676 75.2735C79.9804 75.1258 80.2984 74.8191 80.654 74.5703C80.9729 74.3476 81.2998 74.138 81.6358 73.9414C82.3634 73.5156 83.1278 73.1461 83.9265 72.8736C85.3358 72.3932 87.2945 72.1835 88.2003 73.6535C89.1306 75.1633 87.4801 76.4253 86.4027 77.2565C85.7626 77.75 85.0832 78.1921 84.3736 78.5812C83.7352 78.9311 82.8637 79.153 82.392 79.7265C82.3136 79.8211 82.3348 79.9981 82.4779 80.0225Z" fill="#2A2B2D"/>
</g>
<g id="Group_28">
<path id="Vector_32" d="M75.9427 79.0691C75.6476 79.2527 75.5495 79.4721 75.4056 79.7804C75.238 80.141 75.0426 80.4819 74.8244 80.8139C74.3944 81.4698 73.8769 82.0563 73.2834 82.571C71.9468 83.7309 70.2995 84.4985 68.6817 85.1796C67.0574 85.864 65.2981 86.6243 63.6255 85.6642C62.8726 85.2327 62.2178 84.6502 61.5482 84.1053C60.7577 83.4617 59.9672 82.8181 59.1767 82.1737C57.4379 80.7577 55.6983 79.3416 53.9594 77.9247C53.3104 77.3961 52.4054 78.3358 53.0577 78.8709C54.7647 80.2715 56.4724 81.6721 58.1793 83.0726C59.0197 83.7619 59.8601 84.452 60.7005 85.1413C61.4477 85.7547 62.19 86.426 63.0483 86.8828C64.9065 87.8707 66.8064 87.3413 68.6261 86.5525C70.4033 85.7816 72.1667 84.9504 73.6627 83.6999C74.3927 83.089 75.0394 82.3777 75.5601 81.5815C75.9672 80.9591 76.6245 79.8702 76.2329 79.1377C76.179 79.0373 76.0343 79.012 75.9427 79.0691Z" fill="#2A2B2D"/>
</g>
<g id="Group_29">
<path id="Vector_33" d="M82.1688 79.9225C82.0053 80.1819 81.832 80.3956 81.7028 80.6852C81.5827 80.9544 81.4952 81.2366 81.3971 81.5131C81.1723 82.147 80.9581 82.7848 80.7292 83.417C80.3025 84.5965 79.8357 85.7606 79.346 86.9156C78.3568 89.2477 77.2222 91.5187 75.9485 93.7081C75.6411 94.2358 75.3166 94.753 75.0035 95.2775C74.7517 95.7 74.2489 96.3844 74.6912 96.8469C75.5504 97.7458 76.6115 95.4211 76.9303 94.877C78.1958 92.7161 79.3264 90.477 80.3139 88.1775C80.8674 86.8887 81.3693 85.5803 81.8214 84.2531C82.0568 83.5614 82.2906 82.8656 82.4868 82.1616C82.5841 81.8125 82.6928 81.4552 82.7533 81.0971C82.8146 80.7325 82.7844 80.4283 82.7795 80.0718C82.7746 79.7349 82.3348 79.659 82.1688 79.9225Z" fill="#2A2B2D"/>
</g>
<g id="Group_30">
<path id="Vector_34" d="M87.2417 61.3646C86.9401 62.3223 86.9883 63.4227 86.9859 64.4187C86.9834 65.4302 87.012 66.4433 87.0815 67.4523C87.151 68.4614 87.2638 69.4688 87.4061 70.4713C87.5458 71.4518 87.6423 72.3238 88.3257 73.0889C88.4181 73.1925 88.5685 73.1166 88.6061 73.0073C88.9381 72.0611 88.7247 71.2103 88.5931 70.2478C88.4565 69.2444 88.3592 68.237 88.2832 67.228C88.2096 66.2508 88.1672 65.2719 88.1582 64.2922C88.1483 63.3158 88.2448 62.306 88.0633 61.3443C87.9799 60.8981 87.3554 61.0033 87.2417 61.3646Z" fill="#2A2B2D"/>
</g>
<g id="Group_31">
<path id="Vector_35" d="M88.1903 76.2457C87.9303 77.0434 87.9605 77.8991 87.981 78.7295C88.0031 79.608 88.0268 80.4857 88.0521 81.3634C88.102 83.1197 88.1788 84.8751 88.2499 86.6305C88.3914 90.1413 88.5892 93.6513 88.7617 97.1614C89.1459 97.0472 89.5293 96.9338 89.9136 96.8196C88.1862 94.255 86.7785 91.4897 85.746 88.576C85.2309 87.124 84.8058 85.6402 84.4739 84.136C84.3072 83.3807 84.1625 82.6196 84.0464 81.8553C83.9932 81.5046 83.9622 81.1481 83.9025 80.799C83.8338 80.3968 83.6401 80.1203 83.3957 79.7981C83.2886 79.6578 83.0507 79.6243 82.9607 79.8087C82.8022 80.1333 82.646 80.4596 82.6525 80.8291C82.6599 81.2337 82.7621 81.6628 82.8234 82.0617C82.9411 82.8195 83.0777 83.574 83.2395 84.3237C83.5771 85.8874 84.0161 87.4291 84.5516 88.9365C85.6209 91.9473 87.0687 94.8219 88.8549 97.473C89.1868 97.9665 90.0378 97.7699 90.0059 97.1312C89.8334 93.6212 89.6855 90.1087 89.4819 86.6011C89.3797 84.8465 89.2849 83.0911 89.1614 81.3373C89.1001 80.4604 89.038 79.5836 88.9734 78.7058C88.9121 77.873 88.8598 77.0116 88.523 76.2383C88.4551 76.0825 88.2459 76.0752 88.1903 76.2457Z" fill="#2A2B2D"/>
</g>
<g id="Group_32">
<path id="Vector_36" d="M26.2379 82.0289C26.1259 81.9253 26.0507 81.7972 26.0139 81.6455C26.0573 81.2654 25.485 81.2433 25.5169 81.5908C25.5807 82.2801 26.2347 82.8854 26.6499 83.4058C27.156 84.0396 27.6628 84.6726 28.1689 85.3056C29.1924 86.5855 30.2347 87.8498 31.2696 89.1207C32.2972 90.3826 33.324 91.6445 34.3516 92.9064C34.865 93.537 35.3783 94.1683 35.8926 94.7997C36.28 95.2752 36.8793 96.2003 37.5758 96.1489C37.7237 96.1383 37.848 96.0445 37.8864 95.9001C38.0597 95.2589 37.3559 94.555 36.9749 94.1022C36.4525 93.4807 35.9277 92.8607 35.4045 92.24C34.3352 90.9732 33.2668 89.7064 32.1975 88.4388C31.1503 87.1981 30.112 85.9492 29.0542 84.7175C28.5261 84.1024 27.9972 83.4865 27.4691 82.8715C27.0227 82.3519 26.5175 81.5362 25.8308 81.3396C25.8128 81.5052 25.794 81.67 25.776 81.8356C25.9485 81.8649 26.0875 81.9449 26.1946 82.0737C26.224 82.1039 26.2649 82.0591 26.2379 82.0289Z" fill="#2A2B2D"/>
</g>
<g id="Group_33">
<path id="Vector_37" d="M31.9622 89.3093C32.5483 89.4945 33.1091 89.2277 33.6601 89.0213C34.2757 88.7905 34.8692 88.4756 35.4414 88.1518C36.5826 87.5058 37.6601 86.7431 38.6771 85.9184C39.6981 85.0904 40.648 84.1825 41.5195 83.1988C42.377 82.2305 43.3368 81.1399 43.9164 79.9767C44.2205 79.3666 43.3629 78.6365 42.9002 79.2328C42.1105 80.2516 41.4533 81.3479 40.6031 82.3276C39.7782 83.2779 38.8774 84.1646 37.9201 84.9828C36.9587 85.805 35.9254 86.5318 34.8504 87.1974C34.3043 87.5359 33.7402 87.8443 33.1949 88.1836C32.7151 88.483 32.1943 88.6991 31.9221 89.2163C31.9017 89.2546 31.9221 89.2971 31.9622 89.3093Z" fill="#2A2B2D"/>
</g>
<g id="Group_34">
<path id="Vector_38" d="M43.0741 79.7674C43.6063 80.3359 44.5783 80.3604 45.3091 80.3938C46.1757 80.4338 47.0504 80.3955 47.912 80.3041C49.6459 80.1206 51.3349 79.6915 52.9486 79.0324C53.7203 78.7167 53.35 77.4613 52.5701 77.7819C51.0438 78.4084 49.4342 78.8456 47.7951 79.0487C46.9891 79.1482 46.1781 79.1939 45.3663 79.1882C44.6551 79.1833 43.742 79.0552 43.1076 79.4419C42.9882 79.5137 42.9842 79.6711 43.0741 79.7674Z" fill="#2A2B2D"/>
</g>
<g id="Group_35">
<path id="Vector_39" d="M42.9665 76.4066C42.9567 76.604 42.9935 76.7394 43.0131 76.8813C43.0294 76.9955 43.0474 77.1089 43.0678 77.2223C43.076 77.2631 43.0834 77.3038 43.0899 77.3446C43.0801 77.2843 43.0809 77.2916 43.0915 77.3658C43.1267 77.6725 43.1545 77.9817 43.1537 78.2909C43.1529 78.4564 43.1447 78.6212 43.1292 78.786C43.1406 78.6596 43.1128 78.9018 43.1095 78.9247C43.0915 79.0413 43.0711 79.1588 43.0646 79.2771C43.0523 79.4793 43.0433 79.7347 43.1479 79.9117C43.2698 80.1164 43.4872 80.2322 43.7251 80.1645C44.1273 80.0503 44.299 79.5438 44.3505 79.171C44.3987 78.8178 44.4273 78.463 44.4167 78.1065C44.3971 77.4205 44.2753 76.5664 43.7905 76.0419C43.6597 75.9008 43.4202 75.8763 43.255 75.9547C43.0711 76.0403 42.9763 76.2051 42.9665 76.4066Z" fill="#2A2B2D"/>
</g>
<g id="Group_36">
<path id="Vector_40" d="M52.3723 75.5265C52.3936 75.4858 52.3764 75.5078 52.3216 75.591C52.3004 75.6383 52.2832 75.6864 52.2685 75.7362C52.2497 75.8121 52.2481 75.8895 52.2448 75.967C52.2383 76.1033 52.2342 76.2476 52.2448 76.3985C52.2636 76.6645 52.2767 76.9328 52.3061 77.1988C52.3372 77.4859 52.3862 77.773 52.4263 78.0585C52.4549 78.2633 52.4704 78.4762 52.5751 78.6597C52.6993 78.8775 52.9241 79.008 53.1751 78.968C53.4261 78.9281 53.5937 78.7339 53.6468 78.4933C53.6926 78.2869 53.637 78.0732 53.5986 77.8709C53.5462 77.5968 53.5005 77.3211 53.4424 77.0479C53.3852 76.7762 53.3084 76.5079 53.2381 76.2395C53.2005 76.0959 53.153 75.9621 53.0991 75.83C53.0696 75.7582 53.0459 75.6872 53.0051 75.6212C52.9667 75.56 52.853 75.4735 52.8383 75.4531C52.7059 75.2737 52.4402 75.3104 52.3723 75.5265Z" fill="#2A2B2D"/>
</g>
<g id="Group_37">
<path id="Vector_41" d="M25.0857 72.7924C25.895 73.3251 26.7615 73.6399 27.6788 73.9393C28.6287 74.2493 29.5884 74.5372 30.5588 74.7754C32.4693 75.2444 34.4068 75.6278 36.3573 75.8929C40.2118 76.4174 44.1161 76.5904 48.0025 76.3889C55.8366 75.9826 63.5971 74.0959 70.7412 70.8657C74.7779 69.0401 78.6071 66.7806 82.1378 64.1075C82.8352 63.5797 82.1215 62.4067 81.4168 62.9418C75.2594 67.6134 68.202 71.0044 60.7391 73.0175C53.3179 75.0185 45.5051 75.6498 37.8582 74.8447C35.7115 74.6188 33.5737 74.2851 31.4621 73.8365C30.4059 73.6122 29.3522 73.3724 28.3033 73.1146C27.2545 72.8568 26.244 72.5648 25.1633 72.4824C24.9826 72.4677 24.963 72.7116 25.0857 72.7924Z" fill="#2A2B2D"/>
</g>
<g id="Group_38">
<path id="Vector_42" d="M30.7392 24.5807C30.3035 25.0277 30.1072 25.6183 29.9086 26.2023C29.6944 26.8304 29.5137 27.4716 29.3601 28.1168C29.0461 29.4293 28.8622 30.7638 28.76 32.1081C28.5556 34.7926 28.8385 37.4844 29.5661 40.0751C29.6593 40.4071 30.0615 40.6396 30.3958 40.5189C33.5203 39.3916 35.8608 36.849 37.5293 34.0609C38.4972 32.4441 39.2493 30.7091 39.9695 28.9717C40.7183 27.164 41.5366 25.3842 42.2838 23.5782C42.5904 22.8359 41.593 22.2379 41.1663 22.9623C40.2131 24.579 39.5894 26.4234 38.8741 28.1535C38.1923 29.8037 37.4876 31.4522 36.6023 33.0062C35.0793 35.6793 32.9497 38.1223 30.0108 39.2472C30.2871 39.3948 30.5642 39.5433 30.8405 39.6909C30.1105 37.2569 29.7901 34.711 29.8824 32.1709C29.9282 30.9237 30.1032 29.6805 30.3688 28.461C30.5037 27.8419 30.6631 27.2277 30.8495 26.6224C31.0359 26.0163 31.282 25.4258 31.2787 24.7879C31.2771 24.5146 30.9247 24.3906 30.7392 24.5807Z" fill="#2A2B2D"/>
</g>
<g id="Group_39">
<path id="Vector_43" d="M41.4202 23.1402C41.157 24.1231 41.408 25.2382 41.538 26.2268C41.6802 27.3125 41.8094 28.3999 41.9492 29.4856C42.2279 31.6635 42.5075 33.8399 42.7323 36.0235C42.783 36.5138 43.2874 36.845 43.7427 36.5701C46.3743 34.9802 48.6028 32.7566 50.2966 30.2018C51.1321 28.9415 51.8139 27.5907 52.36 26.182C52.6412 25.4568 52.8832 24.7186 53.0802 23.9665C53.2747 23.2217 53.4889 22.4354 53.4848 21.6629C53.4807 20.9622 52.5014 20.9076 52.3028 21.5324C52.0845 22.2192 51.9995 22.9517 51.8122 23.65C51.625 24.3499 51.4011 25.0424 51.1362 25.7178C50.6179 27.0393 49.9459 28.3036 49.1668 29.4897C47.585 31.8993 45.4848 33.9108 43.0471 35.4452C43.3839 35.6271 43.7207 35.8098 44.0575 35.9917C43.7902 33.7893 43.5024 31.5861 43.1435 29.3959C42.9669 28.3159 42.7601 27.2399 42.5484 26.1665C42.3497 25.1582 42.21 23.9689 41.6017 23.1124C41.5519 23.0439 41.4431 23.0545 41.4202 23.1402Z" fill="#2A2B2D"/>
</g>
<g id="Group_40">
<path id="Vector_44" d="M69.4854 8.49444C69.7936 8.80033 69.9751 8.76362 70.3757 8.67389C70.7435 8.59151 71.1163 8.51157 71.4899 8.45855C72.2052 8.35658 72.9385 8.33374 73.6595 8.38187C75.1327 8.48057 76.5804 8.93166 77.8492 9.68211C80.363 11.1692 81.9759 13.8814 82.2301 16.7731C82.298 17.5497 82.2841 18.3385 82.1607 19.1093C82.0936 19.5278 81.9988 19.9422 81.877 20.3484C81.7323 20.828 81.5876 21.1633 81.8116 21.6494C81.9179 21.8811 82.3053 22.0239 82.54 21.9252C83.3174 21.5981 83.4564 20.5295 83.5954 19.7749C83.7384 18.9976 83.7973 18.2006 83.7638 17.411C83.6959 15.8065 83.2765 14.2313 82.5465 12.8014C81.0914 9.94885 78.2596 8.00501 75.1253 7.43482C73.3628 7.11425 71.4858 7.17951 69.8132 7.85492C69.5982 7.9422 69.5066 8.08903 69.4821 8.31172C69.4805 8.33864 69.4421 8.45202 69.4854 8.49444Z" fill="#2A2B2D"/>
</g>
<g id="Group_41">
<path id="Vector_45" d="M24.171 51.7264C24.1669 51.737 24.1628 51.7468 24.1588 51.7574C24.1825 51.7141 24.207 51.6701 24.2307 51.6269C24.2274 51.6293 24.2242 51.6326 24.2209 51.635C24.0329 51.79 24.1449 52.1636 24.3844 52.1962C24.7359 52.2435 24.9877 52.0168 25.2289 51.7941C25.4218 51.6154 25.6155 51.4368 25.8085 51.2582C26.1894 50.9058 26.5679 50.5517 26.9456 50.1961C27.0756 50.0745 27.1026 49.8796 27.0601 49.7156C27.0143 49.5378 26.8769 49.4334 26.7085 49.3812C26.5377 49.3282 26.3562 49.4024 26.2336 49.5191C25.864 49.8714 25.4954 50.2238 25.1283 50.5795C24.9509 50.7516 24.7727 50.9237 24.5953 51.0958C24.3868 51.2973 24.0991 51.5575 24.1269 51.8765C24.207 51.7655 24.2871 51.6554 24.3672 51.5445C24.364 51.5461 24.3607 51.5469 24.3574 51.5485C24.4089 51.5469 24.4612 51.5461 24.5127 51.5445C24.5021 51.5428 24.4915 51.5412 24.4809 51.5396C24.3304 51.5184 24.225 51.5861 24.171 51.7264Z" fill="#2A2B2D"/>
</g>
<g id="Group_42">
<path id="Vector_46" d="M26.4988 49.8023C26.7448 50.534 27.7062 51.0765 28.3341 51.4623C29.0502 51.9028 29.8244 52.2495 30.6116 52.5407C32.2752 53.1566 34.0778 53.4347 35.8485 53.3091C37.5628 53.1876 39.2207 52.7006 40.7575 51.942C41.5113 51.57 42.229 51.1238 42.8945 50.6107C43.5754 50.0854 44.384 49.5111 44.6897 48.6816C44.9178 48.0624 44.1469 47.737 43.6858 47.949C43.0302 48.25 42.5217 48.9483 41.9445 49.3831C41.3388 49.8399 40.6905 50.242 40.012 50.583C38.686 51.2502 37.2088 51.6597 35.7299 51.7886C34.1693 51.924 32.5908 51.7682 31.089 51.3212C30.3296 51.0953 29.6102 50.7894 28.9063 50.4264C28.5826 50.2591 28.2629 50.0862 27.9506 49.8978C27.6171 49.6971 27.2958 49.432 26.901 49.3806C26.6623 49.3496 26.4097 49.5381 26.4988 49.8023Z" fill="#2A2B2D"/>
</g>
<g id="Group_43">
<path id="Vector_47" d="M50.1435 51.7536C50.3773 51.6272 50.5261 51.3833 50.6872 51.1802C50.8711 50.9502 51.0845 50.7283 51.3118 50.5399C51.7303 50.1924 52.2568 49.9509 52.7922 49.8563C53.8713 49.6662 54.8401 50.2054 55.5047 51.0064C55.7254 51.2724 55.9674 51.5807 56.3377 51.6239C56.7677 51.6745 57.0612 51.3311 57.0375 50.9061C56.9974 50.1956 56.3295 49.6581 55.7835 49.291C54.7796 48.6148 53.416 48.3945 52.256 48.7396C51.5872 48.9386 50.9733 49.3261 50.4877 49.8229C50.092 50.2274 49.5198 50.9975 49.7405 51.6019C49.8035 51.7716 49.9833 51.8401 50.1435 51.7536Z" fill="#2A2B2D"/>
</g>
<g id="Group_44">
<path id="Vector_48" d="M61.6755 48.5385C61.5038 49.1152 62.1905 49.7711 62.56 50.1382C63.0342 50.6105 63.5852 51.015 64.1599 51.3585C65.3518 52.0689 66.6933 52.4784 68.0749 52.5877C69.472 52.6987 70.9124 52.4458 72.1999 51.9001C72.8384 51.6293 73.445 51.2973 74.0156 50.9033C74.5601 50.5281 75.3734 49.9954 75.635 49.3706C75.8713 48.8061 75.3326 48.1853 74.7448 48.5247C74.2134 48.8322 73.8276 49.4236 73.3346 49.8037C72.8547 50.174 72.3177 50.4856 71.7618 50.7279C70.6165 51.2271 69.3698 51.4547 68.1223 51.3797C66.9336 51.3079 65.7556 50.9229 64.719 50.3445C64.1697 50.0378 63.6587 49.6683 63.1862 49.2547C62.8323 48.9456 62.3933 48.3648 61.8831 48.3721C61.7834 48.373 61.7033 48.4464 61.6755 48.5385Z" fill="#2A2B2D"/>
</g>
<g id="Group_45">
<path id="Vector_49" d="M75.1642 49.2106C75.2959 49.5646 75.5706 49.8257 75.846 50.0736C76.1166 50.3175 76.4167 50.5321 76.7232 50.7278C76.9946 50.9008 77.2807 51.0419 77.5783 51.1634C77.9584 51.3184 78.4637 51.577 78.8765 51.422C79.085 51.3429 79.2477 51.1969 79.3032 50.9742C79.3621 50.7392 79.2763 50.5451 79.1275 50.3689C78.8953 50.0957 78.4269 50.0361 78.0983 49.9162C77.9756 49.8713 78.1653 49.9456 78.0884 49.9129C78.0557 49.8991 78.0222 49.886 77.9895 49.8721C77.9241 49.8444 77.8587 49.815 77.7941 49.7857C77.6486 49.718 77.5031 49.6503 77.36 49.5777C77.0903 49.4414 76.832 49.2848 76.5793 49.1209C76.5205 49.0825 76.4616 49.0434 76.4036 49.0026C76.3717 48.9806 76.3071 48.9341 76.3725 48.9822C76.3439 48.961 76.3153 48.939 76.2867 48.9178C76.1117 48.7864 75.9441 48.6845 75.7381 48.6086C75.3997 48.4838 75.0449 48.8892 75.1642 49.2106Z" fill="#2A2B2D"/>
</g>
<g id="Group_46">
<path id="Vector_50" d="M67.7342 40.0824C67.7481 40.0872 67.7619 40.0921 67.7758 40.097C67.6696 39.9959 67.5625 39.8947 67.4562 39.7928C67.5461 40.1908 68.0334 40.4453 68.4307 40.6207C68.8361 40.7994 69.2612 40.9437 69.6749 41.1036C70.0558 41.2513 70.4368 41.4014 70.8194 41.5449C71.018 41.6192 71.2159 41.6934 71.4145 41.7676C71.6083 41.8402 71.8094 41.9438 72.0146 41.9699C72.4037 42.0197 72.7675 41.8859 72.9195 41.4984C73.0683 41.1216 72.9048 40.7545 72.5778 40.5375C72.3792 40.4054 72.1102 40.3385 71.8846 40.2545C71.7145 40.1917 71.5445 40.1288 71.3745 40.066C70.9919 39.9249 70.6076 39.7879 70.2234 39.6508C69.8539 39.5187 69.4836 39.3865 69.1141 39.2544C68.7119 39.1108 68.2573 38.9966 67.8388 39.1247C67.6589 39.1794 67.4922 39.3368 67.4562 39.526C67.4529 39.5481 67.4472 39.5701 67.439 39.5913C67.3655 39.814 67.5404 40.0138 67.7342 40.0824Z" fill="#2A2B2D"/>
</g>
<g id="Group_47">
<path id="Vector_51" d="M32.0759 41.6407C32.1315 41.8462 32.2353 41.9629 32.398 42.0958C32.6122 42.2712 32.855 42.3006 33.1215 42.3267C33.7468 42.3887 34.3657 42.1521 34.9616 41.9922C35.529 41.8405 36.098 41.6904 36.6702 41.5566C37.2523 41.4212 38.1589 41.409 38.4458 40.7956C38.5643 40.5427 38.5414 40.2385 38.3289 40.0394C37.8188 39.5606 37.0806 39.8485 36.4814 39.9864C35.9271 40.1137 35.3728 40.2491 34.8276 40.4114C34.2799 40.5745 33.7419 40.7458 33.2236 40.9873C32.8231 41.1741 32.5091 41.3641 32.1756 41.4539C32.0955 41.4751 32.0546 41.564 32.0759 41.6407Z" fill="#2A2B2D"/>
</g>
<g id="Group_48">
<path id="Vector_52" d="M51.8935 60.0897C52.1379 60.2683 52.4477 60.1982 52.7216 60.1345C53.0527 60.057 53.378 59.9624 53.7116 59.8931C54.104 59.8115 54.8193 59.5978 55.116 59.982C55.3482 60.2822 55.2746 60.7333 55.094 61.0367C54.8062 61.518 54.3124 61.7806 53.8383 62.0449C53.2227 62.3875 53.6756 63.4121 54.3492 63.1771C55.0449 62.9341 55.9613 62.642 56.6366 63.098C57.1393 63.4374 57.2603 63.9716 56.7854 64.3746C56.2401 64.8379 55.4496 65.1634 54.7482 65.2841C54.3811 65.3469 54.0059 65.329 53.6454 65.2425C53.2325 65.1438 52.8254 64.9562 52.3938 64.9733C52.0374 64.988 51.8649 65.3021 51.9237 65.6226C52.0373 66.2467 52.7085 66.6121 53.2636 66.7704C53.8653 66.9417 54.5045 66.9245 55.1152 66.816C56.2417 66.617 57.5718 65.9669 58.1964 64.9733C58.8316 63.9643 58.377 62.7261 57.4647 62.0694C56.4428 61.3344 55.0842 61.5335 53.9863 61.978C54.1563 62.3557 54.3272 62.7326 54.4972 63.1103C55.0866 62.6331 55.7651 62.1249 56.0856 61.4152C56.3578 60.8116 56.3717 60.0521 55.9989 59.4844C55.555 58.8082 54.7596 58.7201 54.0247 58.8661C53.5808 58.9542 53.141 59.0798 52.7093 59.216C52.3537 59.3278 51.9 59.4599 51.7954 59.8653C51.7709 59.96 51.8207 60.0358 51.8935 60.0897Z" fill="#2A2B2D"/>
</g>
<g id="Group_49">
<path id="Vector_53" d="M30.9444 96.6052C30.7866 95.6663 30.341 94.7592 29.9176 93.9109C29.4761 93.0275 28.944 92.1922 28.3513 91.4026C27.7684 90.6268 27.1177 89.9 26.4146 89.2311C26.0656 88.8983 25.7026 88.5802 25.3274 88.2768C25.1434 88.1283 24.9652 87.9701 24.7486 87.8746C24.4919 87.7612 24.2793 87.7939 24.0145 87.7694C23.8403 87.7531 23.6711 87.9815 23.7439 88.143C23.8273 88.3298 23.8502 88.5141 23.9695 88.6911C24.106 88.8926 24.2867 89.0207 24.4739 89.1716C24.8311 89.4604 25.1769 89.763 25.5113 90.0787C26.1906 90.7215 26.8193 91.4173 27.3932 92.1547C27.9581 92.8798 28.4625 93.6499 28.9227 94.4444C29.3928 95.256 29.7296 96.1313 30.189 96.9453C30.4408 97.3924 31.0171 97.0359 30.9444 96.6052Z" fill="#2A2B2D"/>
</g>
</g>
</g>
</svg>
