<svg width="58" height="72" viewBox="0 0 58 72" fill="none" xmlns="http://www.w3.org/2000/svg">
<path fill-rule="evenodd" clip-rule="evenodd" d="M1.1321 13.3615C1.34002 13.8521 1.53232 14.3401 1.77608 14.8148C3.9334 19.0191 6.97976 22.7647 10.3317 26.2127C14.0007 29.9867 18.2122 33.3117 22.7508 36.1133C29.1124 40.0403 36.0888 43.1184 43.2298 44.6768C46.3798 45.3641 49.5523 45.6406 52.6862 45.7756C52.7939 45.7874 52.8908 45.7095 52.9027 45.6017C52.9146 45.4939 52.8366 45.3971 52.7289 45.3853C49.6851 44.8499 46.6813 43.9898 43.6334 43.0966C36.7839 41.0886 29.952 38.3379 23.7136 34.5441C19.265 31.8391 15.101 28.6954 11.3739 25.1592C7.94929 21.9094 5.02905 18.2552 2.34361 14.4709C2.03751 14.0399 1.70724 13.6396 1.39598 13.2125C1.3545 13.14 1.26193 13.1144 1.18905 13.1555C1.11679 13.1965 1.09125 13.2888 1.1321 13.3615Z" fill="white"/>
<path fill-rule="evenodd" clip-rule="evenodd" d="M52.7221 45.4067C50.3334 46.2949 47.0893 47.2422 46.1874 47.5436L42.9527 48.6316C41.7628 49.091 40.8359 49.6048 41.2672 50.2455C41.494 51.1172 43.063 50.3506 43.4893 50.2804L46.7532 49.3576C47.8151 49.0508 53.1319 47.5643 55.2606 46.781C56.3744 46.371 56.8172 45.6564 56.8467 45.5073C56.918 45.1483 56.8268 44.5541 56.1867 44.0705C55.4149 43.487 53.0261 42.6406 52.7331 42.5015C51.0856 41.7719 49.4968 40.9461 47.9048 40.1248C45.4887 38.8785 43.1057 37.6109 40.776 36.1819C40.5787 36.0417 40.3053 36.0882 40.1651 36.2846C40.0249 36.4816 40.0711 36.7555 40.2682 36.8951C41.6855 38.0895 43.0875 39.2661 44.593 40.331C46.8552 41.9311 49.2699 43.2917 51.7487 44.5681C51.8756 44.6296 52.3437 45.0523 52.7221 45.4067Z" fill="white"/>
</svg>
