<svg width="22" height="22" viewBox="0 0 22 22" fill="none" xmlns="http://www.w3.org/2000/svg">
<g id="Layer 53">
<path id="Vector" d="M21.0016 8.25C20.8035 8.25259 20.6142 8.33244 20.4741 8.47253C20.334 8.61263 20.2542 8.80189 20.2516 9V15L16.0716 10.22C15.806 9.93726 15.4853 9.71193 15.1293 9.5579C14.7733 9.40387 14.3895 9.3244 14.0016 9.3244C13.6137 9.3244 13.2299 9.40387 12.8739 9.5579C12.5179 9.71193 12.1972 9.93726 11.9316 10.22L9.06159 13.5L8.12159 12.36C7.86256 12.0493 7.5384 11.7993 7.17205 11.6277C6.8057 11.4562 6.40612 11.3673 6.00159 11.3673C5.59706 11.3673 5.19748 11.4562 4.83113 11.6277C4.46477 11.7993 4.14061 12.0493 3.88159 12.36L1.75159 14.93V5C1.75423 4.13886 2.09748 3.31374 2.70641 2.70482C3.31533 2.09589 4.14045 1.75264 5.00159 1.75H13.0016C13.2005 1.75 13.3913 1.67098 13.5319 1.53033C13.6726 1.38968 13.7516 1.19891 13.7516 1C13.7516 0.801088 13.6726 0.610322 13.5319 0.46967C13.3913 0.329018 13.2005 0.25 13.0016 0.25H5.00159C3.74181 0.25 2.53363 0.750445 1.64283 1.64124C0.752034 2.53204 0.251589 3.74022 0.251589 5V17C0.246866 17.0163 0.246866 17.0337 0.251589 17.05C0.264759 18.3011 0.771012 19.4965 1.66039 20.3765C2.54976 21.2565 3.75043 21.7501 5.00159 21.75H17.0016C18.2476 21.7475 19.4427 21.2555 20.3294 20.3801C21.2161 19.5047 21.7232 18.3159 21.7416 17.07V9C21.7391 8.80359 21.6606 8.61578 21.5226 8.47596C21.3847 8.33613 21.1979 8.25515 21.0016 8.25ZM17.0016 20.25H5.00159C4.1847 20.2474 3.39876 19.9373 2.80021 19.3813C2.20167 18.8254 1.83442 18.0645 1.77159 17.25L5.00159 13.32C5.12257 13.1852 5.27058 13.0774 5.43598 13.0036C5.60138 12.9298 5.78047 12.8917 5.96159 12.8917C6.14271 12.8917 6.32179 12.9298 6.4872 13.0036C6.6526 13.0774 6.80061 13.1852 6.92159 13.32L8.43159 15.14C8.50084 15.2242 8.58785 15.2921 8.68638 15.3388C8.78492 15.3854 8.89256 15.4098 9.00159 15.41C9.21752 15.3981 9.42104 15.3053 9.57159 15.15L13.0116 11.21C13.134 11.0811 13.2813 10.9785 13.4446 10.9083C13.608 10.8382 13.7838 10.802 13.9616 10.802C14.1393 10.802 14.3152 10.8382 14.4785 10.9083C14.6419 10.9785 14.7892 11.0811 14.9116 11.21L20.1816 17.21C20.1314 18.0239 19.7761 18.789 19.1866 19.3524C18.5972 19.9159 17.8169 20.2364 17.0016 20.25Z" fill="#231F20"/>
<path id="Vector_2" d="M3.25195 6C3.25195 6.5439 3.41324 7.07558 3.71541 7.52782C4.01759 7.98005 4.44708 8.33253 4.94957 8.54067C5.45207 8.74881 6.005 8.80327 6.53845 8.69716C7.0719 8.59105 7.5619 8.32914 7.9465 7.94454C8.33109 7.55995 8.593 7.06995 8.69911 6.5365C8.80522 6.00305 8.75076 5.45012 8.54262 4.94762C8.33448 4.44512 7.98201 4.01563 7.52977 3.71346C7.07754 3.41128 6.54585 3.25 6.00195 3.25C5.27261 3.25 4.57313 3.53973 4.05741 4.05546C3.54168 4.57118 3.25195 5.27065 3.25195 6ZM7.25195 6C7.25195 6.24723 7.17864 6.4889 7.04129 6.69446C6.90394 6.90002 6.70872 7.06024 6.48031 7.15485C6.2519 7.24946 6.00057 7.27421 5.75809 7.22598C5.51561 7.17775 5.29289 7.0587 5.11807 6.88388C4.94325 6.70907 4.8242 6.48634 4.77597 6.24386C4.72774 6.00139 4.75249 5.75005 4.8471 5.52165C4.94171 5.29324 5.10193 5.09801 5.30749 4.96066C5.51305 4.82331 5.75473 4.75 6.00195 4.75C6.33347 4.75 6.65142 4.8817 6.88584 5.11612C7.12026 5.35054 7.25195 5.66848 7.25195 6Z" fill="#231F20"/>
<path id="Vector_3" d="M15.002 4.75H17.252V7C17.252 7.19891 17.331 7.38968 17.4716 7.53033C17.6123 7.67098 17.803 7.75 18.002 7.75C18.2009 7.75 18.3916 7.67098 18.5323 7.53033C18.6729 7.38968 18.752 7.19891 18.752 7V4.75H21.002C21.2009 4.75 21.3916 4.67098 21.5323 4.53033C21.6729 4.38968 21.752 4.19891 21.752 4C21.752 3.80109 21.6729 3.61032 21.5323 3.46967C21.3916 3.32902 21.2009 3.25 21.002 3.25H18.752V1C18.752 0.801088 18.6729 0.610322 18.5323 0.46967C18.3916 0.329018 18.2009 0.25 18.002 0.25C17.803 0.25 17.6123 0.329018 17.4716 0.46967C17.331 0.610322 17.252 0.801088 17.252 1V3.25H15.002C14.803 3.25 14.6123 3.32902 14.4716 3.46967C14.331 3.61032 14.252 3.80109 14.252 4C14.252 4.19891 14.331 4.38968 14.4716 4.53033C14.6123 4.67098 14.803 4.75 15.002 4.75Z" fill="#231F20"/>
</g>
</svg>
