<svg width="41" height="40" viewBox="0 0 41 40" fill="none" xmlns="http://www.w3.org/2000/svg">
<path d="M26.6005 13.056C26.2605 12.208 27.6205 11.696 27.9605 12.588C28.4285 13.908 30.8525 13.952 30.8525 12.504C30.8525 11.824 29.2525 11.568 28.6405 11.44C27.6205 11.228 26.6005 10.336 26.6005 9.22805C26.6106 8.69107 26.8006 8.17301 27.14 7.75675C27.4794 7.3405 27.9486 7.05011 28.4725 6.93205C28.5401 6.9062 28.5973 6.859 28.6356 6.79763C28.6738 6.73626 28.691 6.66408 28.6845 6.59205V6.00005C28.6981 5.81784 28.78 5.64751 28.9139 5.52321C29.0478 5.3989 29.2238 5.32982 29.4065 5.32982C29.5892 5.32982 29.7652 5.3989 29.8991 5.52321C30.033 5.64751 30.1149 5.81784 30.1285 6.00005V6.68005C30.1344 6.74945 30.1567 6.81647 30.1936 6.87558C30.2304 6.93469 30.2808 6.9842 30.3405 7.02005C30.7556 7.18084 31.1326 7.42647 31.4473 7.74123C31.7621 8.05599 32.0077 8.43296 32.1685 8.84805C32.22 9.02557 32.2013 9.21611 32.1162 9.3802C32.0311 9.54429 31.8861 9.66936 31.7113 9.72951C31.5365 9.78966 31.3453 9.78028 31.1772 9.70331C31.0092 9.62634 30.8771 9.48768 30.8085 9.31605C30.7227 9.07998 30.5825 8.86744 30.3993 8.69562C30.216 8.5238 29.9949 8.39753 29.7538 8.32704C29.5128 8.25654 29.2585 8.2438 29.0115 8.28984C28.7646 8.33588 28.532 8.43941 28.3325 8.59205C27.5325 9.22805 28.3325 9.86805 29.0125 10.036C30.4165 10.38 32.2845 10.632 32.2845 12.504C32.2962 13.0644 32.1114 13.6112 31.7622 14.0495C31.4129 14.4879 30.9213 14.7902 30.3725 14.904C30.3022 14.9309 30.2408 14.977 30.1955 15.0372C30.1502 15.0973 30.1229 15.169 30.1165 15.244V15.836C30.1029 16.0182 30.021 16.1886 29.8871 16.3129C29.7532 16.4372 29.5772 16.5063 29.3945 16.5063C29.2118 16.5063 29.0358 16.4372 28.9019 16.3129C28.768 16.1886 28.6861 16.0182 28.6725 15.836V15.056C28.6725 14.972 28.6285 14.888 28.5445 14.888C28.0992 14.7544 27.6909 14.5194 27.3515 14.2016C27.0122 13.8837 26.751 13.4917 26.5885 13.056H26.6005ZM22.0125 16.288L21.2885 16.588C21.2181 16.6001 21.1541 16.6362 21.1075 16.6902C21.0608 16.7442 21.0343 16.8127 21.0325 16.884V35.768C21.032 35.8282 21.0475 35.8873 21.0773 35.9395C21.1072 35.9917 21.1503 36.035 21.2023 36.0651C21.2544 36.0952 21.3135 36.111 21.3736 36.1108C21.4337 36.1106 21.4927 36.0945 21.5445 36.064L36.5045 29.176C36.6231 29.1281 36.7246 29.0456 36.7959 28.9394C36.8672 28.8332 36.905 28.708 36.9045 28.58V17.864C36.9181 17.6818 37 17.5115 37.1339 17.3872C37.2678 17.2629 37.4438 17.1938 37.6265 17.1938C37.8092 17.1938 37.9852 17.2629 38.1191 17.3872C38.253 17.5115 38.3349 17.6818 38.3485 17.864V28.58C38.3495 28.9836 38.2337 29.3789 38.0151 29.7181C37.7965 30.0574 37.4844 30.3261 37.1165 30.492L21.2045 37.808C20.9312 37.9345 20.6337 38.0001 20.3325 38.0001C20.0314 38.0001 19.7338 37.9345 19.4605 37.808L3.56451 30.492C3.19661 30.3261 2.88455 30.0574 2.66595 29.7181C2.44736 29.3789 2.33155 28.9836 2.33251 28.58V10.292C2.32323 9.86409 2.44988 9.44421 2.69424 9.09276C2.93861 8.74131 3.2881 8.47638 3.69251 8.33605L19.5885 2.17205C19.822 2.0652 20.0757 2.0099 20.3325 2.0099C20.5893 2.0099 20.843 2.0652 21.0765 2.17205L21.9325 2.46805C22.8285 2.80805 22.2725 4.16805 21.4245 3.82805L20.5725 3.48805C20.421 3.44405 20.26 3.44405 20.1085 3.48805L5.65651 9.08805C5.59015 9.11069 5.53253 9.15352 5.49174 9.21055C5.45094 9.26757 5.42901 9.33593 5.42901 9.40605C5.42901 9.47616 5.45094 9.54452 5.49174 9.60155C5.53253 9.65857 5.59015 9.70141 5.65651 9.72405L8.37651 10.744C8.42382 10.7692 8.47784 10.7789 8.53094 10.7717C8.58405 10.7645 8.63356 10.7409 8.67251 10.704C8.83303 10.5998 9.00478 10.5139 9.18451 10.448L22.4365 5.31605C22.4805 5.27605 22.5205 5.27605 22.5645 5.18805C23.4077 4.19435 24.456 3.39491 25.6374 2.84461C26.8188 2.29432 28.1053 2.0062 29.4085 2.00005C30.5945 1.97492 31.7735 2.1868 32.8765 2.62328C33.9795 3.05976 34.9843 3.71205 35.8319 4.54191C36.6796 5.37177 37.353 6.3625 37.8127 7.45601C38.2725 8.54952 38.5093 9.72382 38.5093 10.91C38.5093 12.0963 38.2725 13.2706 37.8127 14.3641C37.353 15.4576 36.6796 16.4483 35.8319 17.2782C34.9843 18.108 33.9795 18.7603 32.8765 19.1968C31.7735 19.6333 30.5945 19.8452 29.4085 19.82C28.0577 19.8109 26.7262 19.4989 25.512 18.907C24.2978 18.3152 23.2318 17.4585 22.3925 16.4C22.3509 16.3412 22.2917 16.2971 22.2234 16.2741C22.1551 16.2511 22.0812 16.2504 22.0125 16.272V16.288ZM19.3765 16.588L14.2765 14.588C14.2228 14.5693 14.1654 14.5638 14.1092 14.5721C14.0529 14.5804 13.9995 14.6022 13.9535 14.6356C13.9075 14.669 13.8703 14.713 13.8451 14.764C13.8198 14.8149 13.8073 14.8712 13.8085 14.928V20.16C13.8078 20.3882 13.7518 20.6128 13.6453 20.8146C13.5388 21.0163 13.385 21.1893 13.1971 21.3187C13.0091 21.448 12.7926 21.5299 12.5661 21.5573C12.3396 21.5847 12.1099 21.5568 11.8965 21.476L8.79251 20.244C8.52159 20.1453 8.28705 19.9665 8.11992 19.7316C7.95278 19.4966 7.86093 19.2164 7.85651 18.928V12.376C7.86111 12.3043 7.84314 12.233 7.80512 12.172C7.7671 12.111 7.71093 12.0635 7.64451 12.036L4.24451 10.72C4.19084 10.7013 4.13342 10.6958 4.07718 10.7041C4.02093 10.7124 3.96753 10.7342 3.92153 10.7676C3.87554 10.801 3.83832 10.845 3.81306 10.896C3.78781 10.9469 3.77526 11.0032 3.77651 11.06V28.58C3.77597 28.708 3.81379 28.8332 3.88509 28.9394C3.95639 29.0456 4.0579 29.1281 4.17651 29.176L19.1325 36.064C19.1847 36.092 19.2432 36.1061 19.3024 36.1052C19.3616 36.1042 19.4196 36.0881 19.4709 36.0585C19.5221 36.0288 19.565 35.9866 19.5954 35.9358C19.6257 35.885 19.6427 35.8272 19.6445 35.768V16.884C19.6427 16.8127 19.6163 16.7442 19.5696 16.6902C19.5229 16.6362 19.4589 16.6001 19.3885 16.588H19.3765ZM15.6365 13.6L20.1005 15.3C20.2526 15.3402 20.4125 15.3402 20.5645 15.3L21.1325 15.1C21.1785 15.0851 21.2208 15.0607 21.2568 15.0284C21.2928 14.9962 21.3217 14.9568 21.3417 14.9128C21.3616 14.8687 21.3722 14.821 21.3726 14.7727C21.3731 14.7244 21.3636 14.6765 21.3445 14.632C20.8134 13.4711 20.5405 12.2087 20.5445 10.932C20.5499 9.94964 20.7078 8.97402 21.0125 8.04005C21.0355 7.97859 21.0411 7.91198 21.0286 7.84756C21.0161 7.78314 20.9861 7.72342 20.9418 7.675C20.8975 7.62658 20.8407 7.59134 20.7777 7.57317C20.7146 7.555 20.6478 7.55461 20.5845 7.57205L9.72851 11.78C9.60343 11.8211 9.49478 11.901 9.41847 12.0083C9.34217 12.1156 9.30223 12.2444 9.30451 12.376V18.712C9.30532 18.7776 9.32603 18.8414 9.36388 18.895C9.40174 18.9486 9.45496 18.9894 9.51651 19.012L11.8965 19.948C11.9508 19.9693 12.0096 19.9763 12.0674 19.9685C12.1252 19.9608 12.1801 19.9384 12.2269 19.9036C12.2737 19.8689 12.3108 19.8227 12.3349 19.7696C12.359 19.7165 12.3692 19.6582 12.3645 19.6V14.12C12.3624 13.6937 12.4919 13.2771 12.7353 12.927C12.9787 12.577 13.3241 12.3105 13.7245 12.164L18.2725 10.4C18.3618 10.3667 18.4568 10.3513 18.5521 10.3546C18.6473 10.358 18.741 10.3801 18.8277 10.4196C18.9145 10.4592 18.9926 10.5154 19.0575 10.5852C19.1225 10.6549 19.1732 10.7367 19.2065 10.826C19.2399 10.9153 19.2553 11.0103 19.2519 11.1056C19.2486 11.2009 19.2265 11.2945 19.1869 11.3813C19.1474 11.468 19.0911 11.5461 19.0214 11.6111C18.9517 11.6761 18.8698 11.7267 18.7805 11.76L15.6365 12.96C15.5695 12.9887 15.5125 13.0364 15.4724 13.0972C15.4322 13.158 15.4109 13.2292 15.4109 13.302C15.4109 13.3749 15.4322 13.4461 15.4724 13.5069C15.5125 13.5677 15.5695 13.6154 15.6365 13.644V13.6ZM33.9325 25.688C34.1129 25.6207 34.3126 25.6277 34.4877 25.7076C34.6629 25.7875 34.7991 25.9337 34.8665 26.114C34.9339 26.2944 34.9268 26.4941 34.8469 26.6693C34.7671 26.8444 34.6209 26.9807 34.4405 27.048L28.6845 29.26C28.51 29.3332 28.3136 29.3341 28.1384 29.2625C27.9632 29.1908 27.8237 29.0526 27.7505 28.878C27.6773 28.7035 27.6764 28.5071 27.7481 28.3319C27.8197 28.1568 27.958 28.0172 28.1325 27.944L33.9325 25.688ZM21.9685 10.932C21.9685 12.9106 22.7545 14.808 24.1535 16.2071C25.5525 17.6061 27.45 18.392 29.4285 18.392C31.407 18.392 33.3045 17.6061 34.7035 16.2071C36.1025 14.808 36.8885 12.9106 36.8885 10.932C36.8885 9.95239 36.6955 8.98232 36.3206 8.07723C35.9457 7.17214 35.3963 6.34975 34.7035 5.65703C34.0108 4.9643 33.1884 4.41481 32.2833 4.03991C31.3782 3.66501 30.4082 3.47205 29.4285 3.47205C28.4488 3.47205 27.4788 3.66501 26.5737 4.03991C25.6686 4.41481 24.8462 4.9643 24.1535 5.65703C23.4608 6.34975 22.9113 7.17214 22.5364 8.07723C22.1615 8.98232 21.9685 9.95239 21.9685 10.932Z" fill="#666666"/>
</svg>
