<svg width="41" height="40" viewBox="0 0 41 40" fill="none" xmlns="http://www.w3.org/2000/svg">
<path d="M2.66797 21.124C2.66797 20.9378 2.74193 20.7593 2.87358 20.6276C3.00523 20.496 3.18379 20.422 3.36997 20.422C3.55615 20.422 3.73471 20.496 3.86636 20.6276C3.99801 20.7593 4.07197 20.9378 4.07197 21.124V24.776C4.07197 25.116 4.28397 25.712 4.71197 25.712H8.07197C8.16861 25.7047 8.26572 25.7174 8.35722 25.7494C8.44871 25.7814 8.53262 25.8319 8.60368 25.8978C8.67475 25.9637 8.73144 26.0436 8.77021 26.1324C8.80898 26.2212 8.829 26.3171 8.829 26.414C8.829 26.5109 8.80898 26.6068 8.77021 26.6956C8.73144 26.7844 8.67475 26.8643 8.60368 26.9302C8.53262 26.9961 8.44871 27.0466 8.35722 27.0786C8.26572 27.1106 8.16861 27.1233 8.07197 27.116H4.71197C3.46797 27.116 2.66797 25.924 2.66797 24.776V21.124ZM22.452 30.64C19.925 30.6475 17.4976 29.6555 15.6992 27.8803C13.9008 26.1051 12.8773 23.6908 12.852 21.164V6.632C12.8653 6.45497 12.9451 6.28953 13.0753 6.16882C13.2055 6.0481 13.3764 5.98103 13.554 5.98103C13.7315 5.98103 13.9025 6.0481 14.0327 6.16882C14.1628 6.28953 14.2426 6.45497 14.256 6.632V15.384C14.256 15.6 14.468 15.64 14.556 15.512C15.0323 14.8686 15.568 14.2713 16.156 13.728C16.196 13.728 16.196 13.688 16.196 13.6V6.632C16.2093 6.45497 16.2891 6.28953 16.4193 6.16882C16.5495 6.0481 16.7204 5.98103 16.898 5.98103C17.0755 5.98103 17.2465 6.0481 17.3767 6.16882C17.5068 6.28953 17.5866 6.45497 17.6 6.632V12.4C17.6049 12.4323 17.618 12.4627 17.6381 12.4885C17.6581 12.5143 17.6844 12.5346 17.7144 12.5474C17.7444 12.5602 17.7772 12.5652 17.8097 12.5618C17.8422 12.5584 17.8732 12.5467 17.9 12.528C18.3992 12.2539 18.9244 12.0301 19.468 11.86C19.556 11.86 19.596 11.772 19.596 11.688V6.632C19.596 6.44582 19.6699 6.26726 19.8016 6.13561C19.9332 6.00396 20.1118 5.93 20.298 5.93C20.4841 5.93 20.6627 6.00396 20.7944 6.13561C20.926 6.26726 21 6.44582 21 6.632V11.308C21.007 11.3579 21.0329 11.4032 21.0723 11.4344C21.1118 11.4657 21.1618 11.4806 21.212 11.476C21.7342 11.4062 22.2612 11.3781 22.788 11.392C22.916 11.392 22.96 11.348 22.96 11.22V6.632C22.9735 6.4498 23.0555 6.27946 23.1894 6.15516C23.3233 6.03086 23.4993 5.96178 23.682 5.96178C23.8647 5.96178 24.0406 6.03086 24.1745 6.15516C24.3084 6.27946 24.3904 6.4498 24.404 6.632V11.432C24.404 11.52 24.448 11.604 24.532 11.604C25.0705 11.7292 25.5977 11.8991 26.108 12.112C26.1356 12.123 26.1656 12.1271 26.1952 12.124C26.2248 12.1209 26.2533 12.1107 26.2781 12.0941C26.3028 12.0776 26.3232 12.0553 26.3375 12.0292C26.3518 12.003 26.3595 11.9738 26.36 11.944V6.632C26.36 6.44582 26.4339 6.26726 26.5656 6.13561C26.6972 6.00396 26.8758 5.93 27.062 5.93C27.2481 5.93 27.4267 6.00396 27.5584 6.13561C27.69 6.26726 27.764 6.44582 27.764 6.632V12.92C27.764 12.964 27.808 13.008 27.852 13.048C28.4338 13.4283 28.9636 13.8828 29.428 14.4C29.4544 14.4287 29.4888 14.4488 29.5268 14.4578C29.5648 14.4668 29.6046 14.4643 29.6411 14.4505C29.6776 14.4368 29.7092 14.4124 29.7318 14.3806C29.7544 14.3488 29.767 14.311 29.768 14.272V6.632C29.7813 6.45497 29.8611 6.28953 29.9913 6.16882C30.1215 6.0481 30.2924 5.98103 30.47 5.98103C30.6475 5.98103 30.8185 6.0481 30.9487 6.16882C31.0788 6.28953 31.1586 6.45497 31.172 6.632V16.96C31.7906 18.2296 32.1107 19.6238 32.108 21.036C32.0959 23.4247 31.2029 25.7249 29.6 27.496C29.5382 27.5582 29.5035 27.6423 29.5035 27.73C29.5035 27.8177 29.5382 27.9018 29.6 27.964L30.92 29.28C31.009 29.3352 31.1112 29.3656 31.216 29.368C31.4335 29.3226 31.6592 29.3356 31.87 29.4059C32.0808 29.4762 32.2692 29.6011 32.416 29.768L38.236 35.572C39.556 36.888 37.556 38.884 36.236 37.572L30.408 31.748C30.2612 31.587 30.1498 31.397 30.0809 31.1904C30.012 30.9837 29.9872 30.7649 30.008 30.548C30.017 30.4955 30.0141 30.4417 29.9996 30.3905C29.9851 30.3392 29.9592 30.2919 29.924 30.252L28.52 28.848C28.4665 28.7905 28.3938 28.7546 28.3156 28.7472C28.2374 28.7398 28.1592 28.7615 28.096 28.808C26.4522 29.9932 24.4785 30.6339 22.452 30.64ZM36.536 20.952C36.536 20.7658 36.6099 20.5873 36.7416 20.4556C36.8732 20.324 37.0518 20.25 37.238 20.25C37.4241 20.25 37.6027 20.324 37.7344 20.4556C37.866 20.5873 37.94 20.7658 37.94 20.952V24.776C37.94 25.924 37.14 27.116 35.896 27.116H32.408C32.2218 27.116 32.0432 27.042 31.9116 26.9104C31.7799 26.7787 31.706 26.6002 31.706 26.414C31.706 26.2278 31.7799 26.0493 31.9116 25.9176C32.0432 25.786 32.2218 25.712 32.408 25.712H35.896C36.32 25.712 36.536 25.116 36.536 24.776V20.952ZM6.02797 6.632C6.04134 6.45497 6.1211 6.28953 6.25128 6.16882C6.38146 6.0481 6.55244 5.98103 6.72997 5.98103C6.9075 5.98103 7.07848 6.0481 7.20866 6.16882C7.33883 6.28953 7.4186 6.45497 7.43197 6.632V22.524C7.43197 22.7102 7.35801 22.8887 7.22636 23.0204C7.09471 23.152 6.91615 23.226 6.72997 23.226C6.54379 23.226 6.36523 23.152 6.23358 23.0204C6.10193 22.8887 6.02797 22.7102 6.02797 22.524V6.632ZM26.364 16.8C26.3567 16.7034 26.3694 16.6062 26.4014 16.5148C26.4333 16.4233 26.4839 16.3394 26.5498 16.2683C26.6157 16.1972 26.6955 16.1405 26.7843 16.1018C26.8732 16.063 26.969 16.043 27.066 16.043C27.1629 16.043 27.2588 16.063 27.3476 16.1018C27.4364 16.1405 27.5163 16.1972 27.5822 16.2683C27.6481 16.3394 27.6986 16.4233 27.7306 16.5148C27.7625 16.6062 27.7753 16.7034 27.768 16.8V22.524C27.768 22.7102 27.694 22.8887 27.5624 23.0204C27.4307 23.152 27.2521 23.226 27.066 23.226C26.8798 23.226 26.7012 23.152 26.5696 23.0204C26.4379 22.8887 26.364 22.7102 26.364 22.524V16.8ZM22.964 15.016C22.9775 14.8338 23.0595 14.6635 23.1934 14.5392C23.3273 14.4149 23.5033 14.3458 23.686 14.3458C23.8687 14.3458 24.0446 14.4149 24.1785 14.5392C24.3124 14.6635 24.3944 14.8338 24.408 15.016V22.536C24.3944 22.7182 24.3124 22.8885 24.1785 23.0128C24.0446 23.1371 23.8687 23.2062 23.686 23.2062C23.5033 23.2062 23.3273 23.1371 23.1934 23.0128C23.0595 22.8885 22.9775 22.7182 22.964 22.536V15.016ZM19.6 15.016C19.5927 14.9194 19.6054 14.8222 19.6374 14.7308C19.6693 14.6393 19.7199 14.5553 19.7858 14.4843C19.8517 14.4132 19.9315 14.3565 20.0203 14.3178C20.1092 14.279 20.205 14.259 20.302 14.259C20.3989 14.259 20.4948 14.279 20.5836 14.3178C20.6724 14.3565 20.7523 14.4132 20.8182 14.4843C20.8841 14.5553 20.9346 14.6393 20.9666 14.7308C20.9985 14.8222 21.0113 14.9194 21.004 15.016V22.536C21.004 22.7222 20.93 22.9007 20.7984 23.0324C20.6667 23.164 20.4881 23.238 20.302 23.238C20.1158 23.238 19.9372 23.164 19.8056 23.0324C19.6739 22.9007 19.6 22.7222 19.6 22.536V15.016ZM16.196 17.6C16.196 16.708 17.6 16.708 17.6 17.6V22.524C17.6 22.7102 17.526 22.8887 17.3944 23.0204C17.2627 23.152 17.0842 23.226 16.898 23.226C16.7118 23.226 16.5332 23.152 16.4016 23.0204C16.2699 22.8887 16.196 22.7102 16.196 22.524V17.6ZM33.132 6.632C33.1455 6.4498 33.2275 6.27946 33.3614 6.15516C33.4953 6.03086 33.6713 5.96178 33.854 5.96178C34.0367 5.96178 34.2126 6.03086 34.3465 6.15516C34.4804 6.27946 34.5624 6.4498 34.576 6.632V22.524C34.5624 22.7062 34.4804 22.8765 34.3465 23.0008C34.2126 23.1251 34.0367 23.1942 33.854 23.1942C33.6713 23.1942 33.4953 23.1251 33.3614 23.0008C33.2275 22.8765 33.1455 22.7062 33.132 22.524V6.632ZM22.452 12.8C20.8256 12.7984 19.2353 13.2791 17.882 14.1813C16.5288 15.0834 15.4735 16.3666 14.8494 17.8685C14.2254 19.3704 14.0607 21.0236 14.3762 22.6191C14.6916 24.2146 15.473 25.6807 16.6217 26.8322C17.7703 27.9836 19.2345 28.7686 20.8293 29.0879C22.424 29.4072 24.0776 29.2466 25.581 28.6262C27.0844 28.0058 28.3701 26.9536 29.2756 25.6026C30.181 24.2515 30.6656 22.6624 30.668 21.036C30.6695 19.9557 30.4583 18.8856 30.0462 17.887C29.6341 16.8883 29.0293 15.9807 28.2663 15.2158C27.5033 14.451 26.5971 13.844 25.5995 13.4295C24.6018 13.0149 23.5323 12.8011 22.452 12.8ZM9.43197 6.632C9.44534 6.45497 9.5251 6.28953 9.65528 6.16882C9.78546 6.0481 9.95644 5.98103 10.134 5.98103C10.3115 5.98103 10.4825 6.0481 10.6127 6.16882C10.7428 6.28953 10.8226 6.45497 10.836 6.632V22.524C10.836 22.7102 10.762 22.8887 10.6304 23.0204C10.4987 23.152 10.3202 23.226 10.134 23.226C9.94779 23.226 9.76923 23.152 9.63758 23.0204C9.50593 22.8887 9.43197 22.7102 9.43197 22.524V6.632ZM37.94 8.16C37.94 8.34618 37.866 8.52474 37.7344 8.65639C37.6027 8.78804 37.4241 8.862 37.238 8.862C37.0518 8.862 36.8732 8.78804 36.7416 8.65639C36.6099 8.52474 36.536 8.34618 36.536 8.16V4.4C36.536 4 36.32 3.464 35.896 3.464H32.408C32.2258 3.45043 32.0554 3.36847 31.9311 3.23457C31.8068 3.10066 31.7377 2.92471 31.7377 2.742C31.7377 2.55929 31.8068 2.38334 31.9311 2.24943C32.0554 2.11553 32.2258 2.03357 32.408 2.02H35.896C37.128 2.02 37.94 3.22 37.94 4.4V8.16ZM4.07197 8.036C4.0586 8.21303 3.97883 8.37847 3.84866 8.49918C3.71848 8.6199 3.5475 8.68697 3.36997 8.68697C3.19244 8.68697 3.02146 8.6199 2.89128 8.49918C2.7611 8.37847 2.68134 8.21303 2.66797 8.036V4.4C2.66797 3.2 3.46797 2 4.71197 2H8.07197C8.25417 2.01357 8.42451 2.09553 8.54881 2.22943C8.67311 2.36334 8.74219 2.53929 8.74219 2.722C8.74219 2.90471 8.67311 3.08066 8.54881 3.21457C8.42451 3.34847 8.25417 3.43043 8.07197 3.444H4.71197C4.26797 3.444 4.07197 4 4.07197 4.4V8.036Z" fill="#666666"/>
</svg>
